<?xml version="1.0" encoding="utf-8"?>
<!-- Generator: Adobe Illustrator 24.0.0, SVG Export Plug-In . SVG Version: 6.00 Build 0)  -->
<svg version="1.1" id="Capa_1" xmlns="http://www.w3.org/2000/svg" xmlns:xlink="http://www.w3.org/1999/xlink" x="0px" y="0px"
	 viewBox="0 0 400 400" style="enable-background:new 0 0 400 400;" xml:space="preserve">
<style type="text/css">
	.st0{opacity:0.25;fill:#585857;}
	.st1{opacity:0.25;}
	.st2{fill:#585857;}
	.st3{fill:#B0C2CD;}
	.st4{fill:#E6EBEE;}
	.st5{fill:#596B7B;}
	.st6{fill:#E23B21;}
	.st7{fill:#F29104;}
	.st8{fill:#FFFFFF;}
	.st9{fill:#F8B133;}
	.st10{fill:#E8501D;}
	.st11{fill:#1C3F76;}
	.st12{fill:#396EAC;}
	.st13{fill:#D4EBFA;}
	.st14{fill:#93A5B1;}
	.st15{fill:#75838D;}
	.st16{fill:#83949E;}
	.st17{fill:#DEE4EC;}
	.st18{enable-background:new    ;}
	.st19{clip-path:url(#SVGID_2_);enable-background:new    ;}
	.st20{clip-path:url(#SVGID_4_);enable-background:new    ;}
	.st21{clip-path:url(#SVGID_6_);enable-background:new    ;}
	.st22{clip-path:url(#SVGID_8_);enable-background:new    ;}
	.st23{clip-path:url(#SVGID_10_);enable-background:new    ;}
	.st24{clip-path:url(#SVGID_14_);enable-background:new    ;}
	.st25{opacity:0.57;}
	.st26{fill:none;}
	.st27{fill:#E98C4D;}
	.st28{fill:#F9DBB5;}
	.st29{fill:#F6B65F;}
	.st30{fill:#EE7A07;}
	.st31{fill:#903178;}
	.st32{fill:#425562;}
	.st33{fill:#F6A873;}
	.st34{clip-path:url(#SVGID_16_);enable-background:new    ;}
	.st35{fill:#121011;}
	.st36{clip-path:url(#SVGID_18_);enable-background:new    ;}
	.st37{clip-path:url(#SVGID_20_);enable-background:new    ;}
	.st38{clip-path:url(#SVGID_22_);enable-background:new    ;}
	.st39{clip-path:url(#SVGID_24_);enable-background:new    ;}
	.st40{fill:#141213;}
	.st41{clip-path:url(#SVGID_28_);enable-background:new    ;}
	.st42{fill:#939393;}
	.st43{fill:#989999;}
	.st44{fill:#9D9D9D;}
	.st45{fill:#A3A1A1;}
	.st46{fill:#A7A6A6;}
	.st47{fill:#ACACAC;}
	.st48{fill:#B4B4B2;}
	.st49{fill:#B8B7B7;}
	.st50{fill:#8D8E8E;}
	.st51{fill:#888A8A;}
	.st52{fill:#848685;}
	.st53{fill:#151212;}
	.st54{fill:#161415;}
	.st55{fill:#171414;}
	.st56{fill:#171415;}
	.st57{fill:#191516;}
	.st58{fill:#191717;}
	.st59{fill:#191618;}
	.st60{fill:#C8D2DF;}
	.st61{fill:#171517;}
	.st62{fill:#A5539A;}
	.st63{fill:#CDCAE6;}
	.st64{fill:#7975B5;}
	.st65{fill:url(#SVGID_29_);}
	.st66{fill:#E5352B;}
	.st67{fill:url(#SVGID_30_);}
	.st68{opacity:0.5;fill:#CDCAE6;}
	.st69{fill:url(#SVGID_31_);}
	.st70{fill:url(#SVGID_32_);}
	.st71{fill:url(#SVGID_33_);}
	.st72{fill:url(#SVGID_34_);}
	.st73{fill:url(#SVGID_35_);}
	.st74{fill:url(#SVGID_36_);}
	.st75{fill:url(#SVGID_37_);}
	.st76{fill:#F07E1B;}
	.st77{fill:#F5F5F7;}
	.st78{fill:#683D90;}
	.st79{fill:#D0D9E4;}
	.st80{fill:url(#SVGID_38_);}
	.st81{fill:#005E77;}
	.st82{fill:#519BD5;}
	.st83{fill:#F8F8FA;}
	.st84{fill:url(#SVGID_39_);}
	.st85{fill:#D3DBE6;}
</style>
<g>
	<g class="st1">
		<g>
			<g>
				<g>
					<path class="st2" d="M149.57,369.76c0-8.46-5.98-11.87-13.35-7.61c-7.38,4.26-13.35,14.57-13.35,23.03
						c0,7.17,4.29,10.71,10.09,9.03l3.26,4.6l3.26-8.37C145.28,385.43,149.57,376.93,149.57,369.76z"/>
					<g>
						<path class="st2" d="M138.22,377.66c0,1.27-0.9,2.82-2,3.45c-1.11,0.64-2,0.13-2-1.14c0-1.27,0.9-2.82,2-3.45
							C137.32,375.88,138.22,376.39,138.22,377.66z"/>
						<path class="st2" d="M144.69,373.92c0,1.27-0.9,2.82-2,3.45c-1.11,0.64-2,0.13-2-1.14c0-1.27,0.9-2.82,2-3.45
							C143.79,372.14,144.69,372.65,144.69,373.92z"/>
						<path class="st2" d="M127.75,383.7c0,1.27,0.9,1.78,2,1.14c1.11-0.64,2-2.18,2-3.45c0-1.27-0.9-1.78-2-1.14
							C128.64,380.89,127.75,382.44,127.75,383.7z"/>
					</g>
				</g>
				<g>
					<path class="st2" d="M122.86,385.18c0-8.46,5.98-18.78,13.35-23.03c3.68-2.12,7.01-2.34,9.42-0.97
						c-0.7-0.4-3.59-2.07-3.59-2.07c-2.41-1.35-5.73-1.13-9.4,0.99c-7.38,4.26-13.36,14.57-13.36,23.04c0,4.19,1.47,7.13,3.84,8.53
						l3.65,2.11C124.36,392.38,122.86,389.41,122.86,385.18z"/>
					<path class="st2" d="M145.79,361.26L145.79,361.26c0-0.01-0.04-0.03-0.11-0.07C145.72,361.22,145.75,361.24,145.79,361.26z"/>
					<path class="st2" d="M133.4,394.84l-0.44-0.63c-0.64,0.18-1.25,0.3-1.85,0.36l1.55,2.18l3.57,2.06L133.4,394.84L133.4,394.84z"
						/>
				</g>
			</g>
			<g>
				<g>
					<path class="st2" d="M182.65,350.66c0-8.46-5.98-11.87-13.36-7.61c-7.38,4.26-13.36,14.57-13.36,23.03
						c0,7.17,4.29,10.71,10.09,9.03l3.26,4.6l3.26-8.37C178.35,366.33,182.65,357.83,182.65,350.66z"/>
					<path class="st2" d="M169.29,365.11c3.6-3.7,6.38-11.64,4.21-12.77c-1.68-0.87-4.21,4.91-4.21,4.91s-2.54-2.85-4.21-0.04
						C162.91,360.84,165.7,365.56,169.29,365.11z"/>
				</g>
				<g>
					<path class="st2" d="M155.94,366.08c0-8.46,5.98-18.78,13.36-23.03c3.68-2.12,7.01-2.34,9.42-0.97
						c-0.69-0.4-3.59-2.07-3.59-2.07c-2.41-1.35-5.73-1.13-9.4,0.99c-7.38,4.26-13.36,14.57-13.36,23.03c0,4.19,1.46,7.13,3.84,8.53
						l3.65,2.11C157.44,373.28,155.94,370.32,155.94,366.08z"/>
					<path class="st2" d="M178.87,342.17L178.87,342.17c0-0.01-0.04-0.03-0.11-0.07C178.8,342.12,178.83,342.14,178.87,342.17z"/>
					<path class="st2" d="M166.47,375.74l-0.44-0.63c-0.64,0.18-1.25,0.3-1.85,0.36l1.55,2.18l3.57,2.06L166.47,375.74
						L166.47,375.74z"/>
				</g>
			</g>
			<g>
				<g>
					<path class="st2" d="M215.73,331.57c0-8.46-5.98-11.87-13.35-7.61c-7.38,4.26-13.35,14.57-13.35,23.03
						c0,7.17,4.29,10.71,10.09,9.03l3.26,4.6l3.26-8.37C211.43,347.24,215.73,338.74,215.73,331.57z"/>
					<g>
						<path class="st2" d="M199.95,340.73c0,1.52-0.78,3.2-1.74,3.76c-0.96,0.55-1.74-0.23-1.74-1.75c0-1.52,0.78-3.2,1.74-3.76
							C199.17,338.42,199.95,339.2,199.95,340.73z"/>
						<path class="st2" d="M204.79,337.93c0,1.52,0.78,2.31,1.74,1.75c0.96-0.55,1.74-2.24,1.74-3.76c0-1.52-0.78-2.31-1.74-1.75
							C205.57,334.72,204.79,336.41,204.79,337.93z"/>
						<g>
							<path class="st2" d="M202.37,343.69c-0.99,0.57-1.8,0.11-1.8-1.03c0-0.2,0.14-0.45,0.32-0.55c0.18-0.1,0.32-0.02,0.32,0.18
								c0,0.74,0.52,1.03,1.16,0.66c0.64-0.37,1.16-1.27,1.16-2.01c0-0.2,0.14-0.45,0.32-0.55c0.18-0.1,0.32-0.02,0.32,0.18
								C204.17,341.72,203.36,343.11,202.37,343.69z"/>
						</g>
					</g>
				</g>
				<g>
					<path class="st2" d="M189.02,346.99c0-8.46,5.98-18.78,13.35-23.03c3.68-2.12,7.01-2.34,9.42-0.97
						c-0.69-0.4-3.59-2.07-3.59-2.07c-2.41-1.35-5.73-1.13-9.4,0.99c-7.38,4.26-13.35,14.57-13.35,23.03c0,4.19,1.46,7.13,3.84,8.53
						l3.65,2.11C190.51,354.19,189.02,351.22,189.02,346.99z"/>
					<path class="st2" d="M211.94,323.07L211.94,323.07c0-0.01-0.04-0.03-0.11-0.07C211.87,323.02,211.91,323.05,211.94,323.07z"/>
					<path class="st2" d="M199.55,356.65l-0.44-0.63c-0.64,0.18-1.25,0.3-1.85,0.36l1.55,2.18l3.57,2.06L199.55,356.65
						L199.55,356.65z"/>
				</g>
			</g>
		</g>
		<g>
			<path class="st2" d="M222.76,92.85c0,0-1.81-11.85-14.12-9.31l-59.98,33.77c0,0-11.65,5.38-11.88,18.61l-0.23,172.71
				c0,0,0.79,9.46,12.09,7.88l70.22-39.05l-2.4-188.3L222.76,92.85z"/>
			<path class="st2" d="M185,101.53c-0.4-0.7-1.29-0.95-2-0.55l-6.19,3.53c-0.7,0.4-0.95,1.29-0.55,1.99l0,0
				c0.4,0.7,1.29,0.95,1.99,0.55l6.2-3.53C185.15,103.13,185.4,102.24,185,101.53L185,101.53z"/>
		</g>
		<g>
			<path class="st2" d="M215.85,89.1l-62.13,34.75c0,0-6.75,3.15-7.4,12.56l-1.38,176.88c0,0,0.57,4.34,4.47,2.63l67.85-37.96
				c0,0,4.83-1.58,4.92-8.35l0.58-176.77C222.76,92.85,222.28,86.22,215.85,89.1z"/>
			<polygon class="st2" points="218.38,103.69 150.74,141.48 151.15,292.54 218.38,255.05 			"/>
			<path class="st2" d="M179.25,293.25c-2.29-1.35-2.24-5.67,0.1-9.65c2.35-3.98,6.1-6.12,8.39-4.77c2.29,1.35,2.24,5.67-0.11,9.65
				C185.3,292.47,181.54,294.6,179.25,293.25z"/>
		</g>
		<g>
			<polygon class="st2" points="264.84,124.71 198.48,160.77 198.89,313.13 264.84,275.83 			"/>
			<path class="st2" d="M198.57,160.78L198.48,222v34.35c0,10.02,5.8,11,8.05,11.08c0,0,7.52,0.1,7.33-10.89v-15.28
				c0-10.02,6.35-17.01,14.56-17.01c0,0,11.34-0.5,12.87,13.27l0.82,23.37c0.95,15.78,22.84,13.29,22.71-0.49l-0.01,7.85
				l0.22-143.53L198.57,160.78z"/>
			<polygon class="st2" points="265.02,124.71 198.4,160.78 196.68,159.79 263.3,123.73 			"/>
			<polygon class="st2" points="198.4,160.78 199.02,313.26 197.3,312.28 196.68,159.79 			"/>
		</g>
		<g>
			<path class="st2" d="M327.15,33.39c0,0,0-0.03,0-0.05c0-17.46-12.33-24.49-27.55-15.71c-11.04,6.37-20.56,19.33-24.96,32.63
				c-2.21,0.33-4.61,1.18-7.11,2.63c-11.19,6.46-20.26,22.1-20.26,34.94c0,12.84,9.07,18.01,20.26,11.55l58.78-33.94
				c7.61-4.39,13.78-15.03,13.78-23.76C340.09,33.27,334.37,29.72,327.15,33.39z"/>
			<g>
				<path class="st2" d="M327.15,33.34c0,0.02,0,0.03,0,0.03c3.42-1.72,6.5-1.82,8.8-0.57l-0.01-0.03l-6.82-3.68
					c-0.71-0.43-1.51-0.7-2.36-0.85C327.01,29.83,327.15,31.53,327.15,33.34z"/>
				<path class="st2" d="M247.27,87.83c0-12.84,9.07-28.48,20.26-34.94c2.5-1.45,4.9-2.3,7.11-2.63
					c4.39-13.3,13.91-26.25,24.96-32.63c7.43-4.29,14.17-4.8,19.12-2.17v-0.01l-6.99-3.78c-4.96-2.68-11.74-2.19-19.21,2.13
					c-11.04,6.38-20.56,19.33-24.96,32.63c-2.21,0.32-4.61,1.18-7.11,2.63C249.27,55.51,240.2,71.16,240.2,84
					c0,6.41,2.26,10.9,5.91,13l7.43,4.03V101C249.69,99,247.27,94.44,247.27,87.83z"/>
			</g>
		</g>
		<g>
			<polygon class="st2" points="315.97,129.87 308.23,124.73 307.7,121.2 315.97,121.2 			"/>
			<path class="st2" d="M333.04,78.6c-3.94-2.61-9.4-1.99-14.76,1.08c0.87,0.14,1.68,0.44,2.41,0.92
				c4.36,2.89,4.08,10.98-0.62,18.08c-4.71,7.09-12.06,10.51-16.43,7.62c-0.97-0.65-1.7-1.57-2.22-2.67
				c-1.35,6.94,0.11,13.06,4.44,15.94c6.96,4.61,18.67-0.83,26.18-12.14C339.54,96.11,339.99,83.2,333.04,78.6z"/>
			<path class="st2" d="M341.98,91.78c1.1-5.61,1.08-9.81-0.9-13.64l0,0l4.25-5.59l-4.51-6.05l-7.16,4.74
				c-2.26-0.69-4.78-0.72-7.41-0.18l0.06-0.03l-2.42-6.91l-9.29,4.64v8.68c-3.87,2.8-6.73,6.76-9.84,11.45c-0.42,0.63,0.38-0.64,0,0
				l-6.38,1.61l-3.03,9.62l3.58,1.82c-1.19,5.55-0.33,9.08,1.45,12.99l-5.61,7.48l5.32,6.27l7.97-6.28
				c2.42,0.72,4.25,1.46,7.07,0.78l0.86,6.7l10.33-6.17v-6.37c3.32-2.67,6.47-6.08,9.17-10.15c0.45-0.67,0.85-1.35,1.26-2.03
				l-0.01,0.05h5.86l4.23-9.44L341.98,91.78z M329.06,102.22c-4.71,7.09-12.06,10.51-16.42,7.62c-4.35-2.89-4.08-10.99,0.63-18.08
				c4.7-7.1,12.05-10.51,16.42-7.62C334.04,87.03,333.76,95.12,329.06,102.22z"/>
			<polygon class="st2" points="300.08,128.67 294.76,122.4 287.78,118.05 292.75,123.67 			"/>
			<polygon class="st2" points="287.78,118.05 293.39,110.3 300.37,114.92 294.76,122.4 			"/>
			<path class="st2" d="M293.39,110.3c0,0-1.71-5.59-0.32-11.73l5.85,3.36c0,0-1.4,8.43,1.45,12.99L293.39,110.3z"/>
			<polygon class="st2" points="298.38,90.5 291.47,85.47 287.78,94.72 295.26,100.16 			"/>
			<polygon class="st2" points="291.47,85.47 298.73,84.55 304.76,88.89 298.38,90.5 			"/>
			<path class="st2" d="M298.73,84.55c0,0,3.37-6.87,9.6-11.31l6.26,4.2c0,0-5.55,4.55-9.84,11.45L298.73,84.55z"/>
			<polygon class="st2" points="314.59,77.44 308.33,73.24 308.33,64.11 314.59,68.4 			"/>
			<polygon class="st2" points="317.23,59.22 308.33,64.11 314.59,68.75 323.89,64.11 			"/>
			<path class="st2" d="M324.73,66.54c0,0,2.38,0.15,3.59,0.72l5.33,3.98c0,0-2.73-1-7.41-0.18L324.73,66.54z"/>
			<polygon class="st2" points="328.05,67.17 333.66,61.71 340.82,66.49 333.66,71.23 			"/>
			<polygon class="st2" points="346.81,95.76 342.13,91.01 341.98,91.78 			"/>
		</g>
		<g>
			<polygon class="st2" points="232.79,204.11 232.78,313.5 231.06,312.51 231.07,203.12 			"/>
			<g>
				<polygon class="st2" points="277.35,178.48 232.79,204.11 231.07,203.12 275.63,177.5 				"/>
				<g>
					<polygon class="st2" points="277.35,287.84 232.75,313.5 232.75,204.14 277.35,178.48 					"/>
				</g>
				<g>
					<polygon class="st2" points="270.52,266.18 241.1,283.27 241.1,275.39 270.52,258.31 					"/>
				</g>
				<g>
					<polygon class="st2" points="270.52,278.66 241.1,295.75 241.1,287.87 270.52,270.79 					"/>
				</g>
				<polygon class="st2" points="232.75,221.06 277.35,194.67 277.35,178.48 232.75,204.14 				"/>
				<path class="st2" d="M240.6,209.96c0.91-1.35,1.05-2.85,0.32-3.34c-0.73-0.49-2.06,0.22-2.96,1.57
					c-0.91,1.36-1.05,2.85-0.32,3.34C238.37,212.02,239.69,211.32,240.6,209.96z"/>
				<path class="st2" d="M248.93,205.53c0.91-1.35,1.05-2.85,0.32-3.34c-0.73-0.49-2.06,0.21-2.96,1.57
					c-0.91,1.36-1.05,2.85-0.32,3.34C246.7,207.59,248.03,206.89,248.93,205.53z"/>
				<path class="st2" d="M257.27,200.31c0.91-1.35,1.05-2.85,0.32-3.34c-0.73-0.49-2.06,0.22-2.96,1.57
					c-0.91,1.36-1.05,2.85-0.32,3.34C255.03,202.37,256.36,201.67,257.27,200.31z"/>
				<path class="st2" d="M267.42,215.62c-5.7-4.02-15.9,0.64-22.79,10.4c-6.89,9.76-7.86,20.94-2.16,24.96
					c5.7,4.02,15.9-0.64,22.79-10.4C272.15,230.81,273.12,219.64,267.42,215.62z"/>
				<g>
					<path class="st2" d="M258.42,228.5c2.34-3.49,2.71-7.35,0.83-8.61c-1.88-1.26-5.31,0.56-7.64,4.05
						c-2.34,3.5-2.72,7.36-0.83,8.61C252.66,233.81,256.08,232,258.42,228.5z"/>
					<path class="st2" d="M246.87,247.99l17.87-10.73c0,0-2.87-8.21-9.73-3.35C248.15,238.77,246.87,247.99,246.87,247.99z"/>
				</g>
			</g>
		</g>
		<g>
			<path class="st2" d="M265.87,296.97c-7.35-4.33-7.2-18.21,0.34-31c7.54-12.79,19.61-19.66,26.96-15.32
				c7.35,4.33,7.19,18.21-0.35,31C285.28,294.44,273.21,301.3,265.87,296.97z"/>
			<path class="st2" d="M267.66,298.76c-7.35-4.33-7.2-18.21,0.34-31c7.54-12.79,19.61-19.65,26.96-15.32
				c7.35,4.33,7.19,18.21-0.35,31C287.07,296.23,275,303.09,267.66,298.76z"/>
			<g>
				<polygon class="st2" points="278.4,287.39 274.98,285.54 274.98,269.33 289.58,269 293,270.86 278.4,271.19 				"/>
				<polygon class="st2" points="293,270.86 278.4,271.19 278.4,287.39 				"/>
			</g>
		</g>
		<g>
			<g>
				<polygon class="st2" points="56.73,235.84 56.72,307.53 54.7,306.38 54.71,234.68 				"/>
				<polygon class="st2" points="108.97,205.79 56.73,235.84 54.71,234.68 106.95,204.64 				"/>
				<g>
					<polygon class="st2" points="108.97,277.45 56.68,307.53 56.68,235.87 108.97,205.79 					"/>
				</g>
				<polygon class="st2" points="61.81,304.58 108.97,212.14 108.97,205.79 105.39,207.85 56.68,302.79 56.68,307.53 				"/>
				<polygon class="st2" points="80.45,267.97 61.81,304.51 104.11,280.17 104.1,280.17 				"/>
				<polygon class="st2" points="56.68,235.8 56.68,292.4 97.88,212.1 				"/>
				<polygon class="st2" points="108.97,270.61 108.97,212.07 85.36,258.36 				"/>
				<polygon class="st2" points="108.97,205.79 97.88,212.17 56.68,292.48 56.68,307.53 61.81,304.58 80.45,268.05 104.1,280.25 
					108.97,277.73 108.97,270.68 85.36,258.43 108.97,212.14 				"/>
			</g>
			<g>
				<g>
					<path class="st2" d="M70.5,214.07c3.64-2.11,6.6-7.2,6.6-11.38c0-4.18-2.95-5.86-6.6-3.76c-0.5,0.29-0.98,0.64-1.45,1.03
						c-0.57,3.15-2.51,6.48-4.97,8.55c-0.11,0.61-0.18,1.22-0.18,1.81C63.9,214.49,66.85,216.18,70.5,214.07z"/>
					<path class="st2" d="M82.41,186.03L82.41,186.03l-0.02-0.01C82.4,186.02,82.4,186.03,82.41,186.03z"/>
					<path class="st2" d="M53.7,216.2L53.7,216.2c0-3.61,13.7-27.19,16.8-28.98c4.63-2.68,8.83-2.95,11.87-1.22l-7.29-4.18
						c-3.07-2.12-7.51-1.99-12.45,0.85c-9.28,5.36-16.8,18.33-16.8,28.98l0,0c0,6.27,1.71,13.48,8.39,17.19l7.63,4.4
						C55.37,229.5,53.7,222.4,53.7,216.2z"/>
					<path class="st2" d="M62.14,233.42l0.03,0.02v0C62.17,233.43,62.15,233.42,62.14,233.42z"/>
				</g>
				<path class="st2" d="M70.5,187.22c-9.28,5.36-16.8,18.33-16.8,28.98l0,0c0,8.35,3.04,18.37,16.8,19.56
					c13.76-17.07,16.8-30.6,16.8-38.95v0C87.3,186.15,79.78,181.87,70.5,187.22z M70.5,214.07c-3.64,2.1-6.6,0.42-6.6-3.76
					c0-4.18,2.95-9.27,6.6-11.38c3.64-2.1,6.6-0.42,6.6,3.76C77.09,206.87,74.14,211.97,70.5,214.07z"/>
			</g>
		</g>
	</g>
	<g>
		<g>
			<g>
				<g>
					<path class="st7" d="M156.94,360.93c0-8.46-5.98-11.87-13.35-7.61c-7.38,4.26-13.35,14.57-13.35,23.03
						c0,7.17,4.29,10.71,10.09,9.03l3.26,4.6l3.26-8.37C152.65,376.6,156.94,368.1,156.94,360.93z"/>
					<g>
						<path class="st77" d="M145.59,368.82c0,1.27-0.9,2.82-2,3.45c-1.11,0.64-2,0.13-2-1.14c0-1.27,0.9-2.82,2-3.45
							C144.69,367.04,145.59,367.56,145.59,368.82z"/>
						<path class="st77" d="M152.06,365.09c0,1.27-0.9,2.82-2,3.45c-1.11,0.64-2,0.13-2-1.14c0-1.27,0.9-2.82,2-3.45
							C151.16,363.31,152.06,363.82,152.06,365.09z"/>
						<path class="st77" d="M135.12,374.87c0,1.27,0.9,1.78,2,1.14c1.11-0.64,2-2.18,2-3.45c0-1.27-0.9-1.78-2-1.14
							C136.01,372.05,135.12,373.6,135.12,374.87z"/>
					</g>
				</g>
				<g>
					<path class="st10" d="M130.23,376.35c0-8.46,5.98-18.78,13.35-23.03c3.68-2.12,7.01-2.34,9.42-0.97
						c-0.7-0.4-3.59-2.07-3.59-2.07c-2.41-1.35-5.73-1.13-9.4,0.99c-7.38,4.26-13.36,14.57-13.36,23.04c0,4.19,1.47,7.13,3.84,8.53
						l3.65,2.11C131.73,383.55,130.23,380.58,130.23,376.35z"/>
					<path class="st78" d="M153.16,352.43L153.16,352.43c0-0.01-0.04-0.03-0.11-0.07C153.09,352.38,153.12,352.41,153.16,352.43z"/>
					<path class="st10" d="M140.77,386.01l-0.44-0.63c-0.64,0.18-1.25,0.3-1.85,0.36l1.55,2.18l3.57,2.06L140.77,386.01
						L140.77,386.01z"/>
				</g>
			</g>
			<g>
				<g>
					<path class="st7" d="M190.02,341.83c0-8.46-5.98-11.87-13.36-7.61c-7.38,4.26-13.36,14.57-13.36,23.03
						c0,7.17,4.29,10.71,10.09,9.03l3.26,4.6l3.26-8.37C185.72,357.5,190.02,349,190.02,341.83z"/>
					<path class="st77" d="M176.66,356.28c3.6-3.7,6.38-11.64,4.21-12.77c-1.68-0.87-4.21,4.91-4.21,4.91s-2.54-2.85-4.21-0.04
						C170.28,352.01,173.07,356.73,176.66,356.28z"/>
				</g>
				<g>
					<path class="st10" d="M163.31,357.25c0-8.46,5.98-18.78,13.36-23.03c3.68-2.12,7.01-2.34,9.42-0.97
						c-0.69-0.4-3.59-2.07-3.59-2.07c-2.41-1.35-5.73-1.13-9.4,0.99c-7.38,4.26-13.36,14.57-13.36,23.03c0,4.19,1.46,7.13,3.84,8.53
						l3.65,2.11C164.81,364.45,163.31,361.48,163.31,357.25z"/>
					<path class="st78" d="M186.24,333.33L186.24,333.33c0-0.01-0.04-0.03-0.11-0.07C186.17,333.29,186.2,333.31,186.24,333.33z"/>
					<path class="st10" d="M173.84,366.91l-0.44-0.63c-0.64,0.18-1.25,0.3-1.85,0.36l1.55,2.18l3.57,2.06L173.84,366.91
						L173.84,366.91z"/>
				</g>
			</g>
			<g>
				<g>
					<path class="st7" d="M223.1,322.73c0-8.46-5.98-11.87-13.35-7.61c-7.38,4.26-13.35,14.57-13.35,23.03
						c0,7.17,4.29,10.71,10.09,9.03l3.26,4.6l3.26-8.37C218.8,338.4,223.1,329.9,223.1,322.73z"/>
					<g>
						<path class="st77" d="M207.32,331.89c0,1.52-0.78,3.2-1.74,3.76c-0.96,0.55-1.74-0.23-1.74-1.75c0-1.52,0.78-3.2,1.74-3.76
							C206.54,329.59,207.32,330.37,207.32,331.89z"/>
						<path class="st77" d="M212.16,329.09c0,1.52,0.78,2.31,1.74,1.75c0.96-0.55,1.74-2.24,1.74-3.76c0-1.52-0.78-2.31-1.74-1.75
							C212.94,325.89,212.16,327.57,212.16,329.09z"/>
						<g>
							<path class="st77" d="M209.74,334.85c-0.99,0.57-1.8,0.11-1.8-1.03c0-0.2,0.14-0.45,0.32-0.55c0.18-0.1,0.32-0.02,0.32,0.18
								c0,0.74,0.52,1.03,1.16,0.66c0.64-0.37,1.16-1.27,1.16-2.01c0-0.2,0.14-0.45,0.32-0.55c0.18-0.1,0.32-0.02,0.32,0.18
								C211.54,332.89,210.73,334.28,209.74,334.85z"/>
						</g>
					</g>
				</g>
				<g>
					<path class="st10" d="M196.39,338.15c0-8.46,5.98-18.78,13.35-23.03c3.68-2.12,7.01-2.34,9.42-0.97
						c-0.69-0.4-3.59-2.07-3.59-2.07c-2.41-1.35-5.73-1.13-9.4,0.99c-7.38,4.26-13.35,14.57-13.35,23.03c0,4.19,1.46,7.13,3.84,8.53
						l3.65,2.11C197.88,345.35,196.39,342.39,196.39,338.15z"/>
					<path class="st78" d="M219.31,314.24L219.31,314.24c0-0.01-0.04-0.03-0.11-0.07C219.24,314.19,219.28,314.21,219.31,314.24z"/>
					<path class="st10" d="M206.92,347.81l-0.44-0.63c-0.64,0.18-1.25,0.3-1.85,0.36l1.55,2.18l3.57,2.06L206.92,347.81
						L206.92,347.81z"/>
				</g>
			</g>
		</g>
		<g>
			<path class="st7" d="M230.13,84.02c0,0-1.81-11.85-14.12-9.31l-59.98,33.77c0,0-11.65,5.38-11.88,18.61l-0.23,172.71
				c0,0,0.79,9.46,12.09,7.88l70.22-39.05l-2.4-188.3L230.13,84.02z"/>
			<path class="st8" d="M192.37,92.7c-0.4-0.7-1.29-0.95-2-0.55l-6.19,3.53c-0.7,0.4-0.95,1.29-0.55,1.99l0,0
				c0.4,0.7,1.29,0.95,1.99,0.55l6.2-3.53C192.52,94.3,192.77,93.4,192.37,92.7L192.37,92.7z"/>
		</g>
		<g>
			<path class="st8" d="M223.22,80.27l-62.13,34.75c0,0-6.75,3.15-7.4,12.56l-1.38,176.88c0,0,0.57,4.34,4.47,2.63l67.85-37.96
				c0,0,4.83-1.58,4.92-8.35l0.58-176.77C230.13,84.02,229.65,77.38,223.22,80.27z"/>
			<polygon class="st10" points="225.75,94.86 158.11,132.64 158.52,283.7 225.75,246.22 			"/>
			<path class="st7" d="M186.62,284.42c-2.29-1.35-2.24-5.67,0.1-9.65c2.35-3.98,6.1-6.12,8.39-4.77c2.29,1.35,2.24,5.67-0.11,9.65
				C192.67,283.63,188.91,285.77,186.62,284.42z"/>
		</g>
		<g>
			<polygon class="st28" points="272.21,115.88 205.85,151.94 206.26,304.3 272.21,267 			"/>
			<path class="st9" d="M205.94,151.94l-0.09,61.23v34.35c0,10.02,5.8,11,8.05,11.08c0,0,7.52,0.1,7.33-10.89v-15.28
				c0-10.02,6.35-17.01,14.56-17.01c0,0,11.34-0.5,12.87,13.27l0.82,23.37c0.95,15.78,22.84,13.29,22.71-0.49l-0.01,7.85
				l0.22-143.53L205.94,151.94z"/>
			<polygon class="st7" points="272.39,115.88 205.77,151.95 204.05,150.96 270.67,114.89 			"/>
			<polygon class="st30" points="205.77,151.95 206.39,304.43 204.67,303.44 204.05,150.96 			"/>
		</g>
		<g>
			<path class="st8" d="M334.52,24.56c0,0,0-0.03,0-0.05c0-17.46-12.33-24.49-27.55-15.71c-11.04,6.37-20.56,19.33-24.96,32.63
				c-2.21,0.33-4.61,1.18-7.11,2.63c-11.19,6.46-20.26,22.1-20.26,34.94c0,12.84,9.07,18.01,20.26,11.55l58.78-33.94
				c7.61-4.39,13.78-15.03,13.78-23.76C347.46,24.44,341.74,20.89,334.52,24.56z"/>
			<g>
				<path class="st7" d="M334.52,24.51c0,0.02,0,0.03,0,0.03c3.42-1.72,6.5-1.82,8.8-0.57l-0.01-0.03l-6.82-3.68
					c-0.71-0.43-1.51-0.7-2.36-0.85C334.38,21,334.52,22.69,334.52,24.51z"/>
				<path class="st7" d="M254.64,79c0-12.84,9.07-28.48,20.26-34.94c2.5-1.45,4.9-2.3,7.11-2.63c4.39-13.3,13.91-26.25,24.96-32.63
					c7.43-4.29,14.17-4.8,19.12-2.17V6.61l-6.99-3.78c-4.96-2.68-11.74-2.19-19.21,2.13c-11.04,6.38-20.56,19.33-24.96,32.63
					c-2.21,0.32-4.61,1.18-7.11,2.63c-11.19,6.46-20.26,22.11-20.26,34.94c0,6.41,2.26,10.9,5.91,13l7.43,4.03v-0.03
					C257.06,90.16,254.64,85.61,254.64,79z"/>
			</g>
		</g>
		<g>
			<polygon class="st10" points="323.35,121.03 315.6,115.9 315.07,112.37 323.35,112.37 			"/>
			<path class="st10" d="M340.41,69.76c-3.94-2.61-9.4-1.99-14.76,1.08c0.87,0.14,1.68,0.44,2.41,0.92
				c4.36,2.89,4.08,10.98-0.62,18.08c-4.71,7.09-12.06,10.51-16.43,7.62c-0.97-0.65-1.7-1.57-2.22-2.67
				c-1.35,6.94,0.11,13.06,4.44,15.94c6.96,4.61,18.67-0.83,26.18-12.14C346.91,87.27,347.36,74.36,340.41,69.76z"/>
			<path class="st28" d="M349.35,82.94c1.1-5.61,1.08-9.81-0.9-13.64l0,0l4.25-5.59l-4.51-6.05l-7.16,4.74
				c-2.26-0.69-4.78-0.72-7.41-0.18l0.06-0.03l-2.42-6.91l-9.29,4.64v8.68c-3.87,2.8-6.73,6.76-9.84,11.45c-0.42,0.63,0.38-0.64,0,0
				l-6.38,1.61l-3.03,9.62l3.58,1.82c-1.19,5.55-0.33,9.08,1.45,12.99l-5.61,7.48l5.32,6.27l7.97-6.28
				c2.42,0.72,4.25,1.46,7.07,0.78l0.86,6.7l10.33-6.17v-6.37c3.32-2.67,6.47-6.08,9.17-10.15c0.45-0.67,0.85-1.35,1.26-2.03
				l-0.01,0.05h5.86l4.23-9.44L349.35,82.94z M336.43,93.39c-4.71,7.09-12.06,10.51-16.42,7.62c-4.35-2.89-4.08-10.99,0.63-18.08
				c4.7-7.1,12.05-10.51,16.42-7.62C341.41,78.19,341.13,86.29,336.43,93.39z"/>
			<polygon class="st10" points="307.45,119.84 302.13,113.56 295.15,109.22 300.12,114.84 			"/>
			<polygon class="st7" points="295.15,109.22 300.77,101.47 307.74,106.09 302.13,113.56 			"/>
			<path class="st10" d="M300.77,101.47c0,0-1.71-5.59-0.32-11.73l5.85,3.36c0,0-1.4,8.43,1.45,12.99L300.77,101.47z"/>
			<polygon class="st7" points="305.75,81.67 298.84,76.64 295.15,85.89 302.63,91.33 			"/>
			<polygon class="st10" points="298.84,76.64 306.1,75.71 312.13,80.05 305.75,81.67 			"/>
			<path class="st7" d="M306.1,75.71c0,0,3.37-6.87,9.6-11.31l6.26,4.2c0,0-5.55,4.55-9.84,11.45L306.1,75.71z"/>
			<polygon class="st10" points="321.96,68.6 315.7,64.4 315.7,55.28 321.96,59.57 			"/>
			<polygon class="st7" points="324.6,50.39 315.7,55.28 321.96,59.92 331.26,55.28 			"/>
			<path class="st10" d="M332.1,57.7c0,0,2.38,0.15,3.59,0.72l5.33,3.98c0,0-2.73-1-7.41-0.18L332.1,57.7z"/>
			<polygon class="st7" points="335.42,58.33 341.03,52.88 348.19,57.66 341.03,62.4 			"/>
			<polygon class="st10" points="354.18,86.93 349.5,82.17 349.35,82.94 			"/>
		</g>
		<g>
			<polygon class="st66" points="240.16,195.27 240.15,304.67 238.43,303.68 238.44,194.29 			"/>
			<g>
				<polygon class="st10" points="284.72,169.65 240.16,195.27 238.44,194.29 283,168.66 				"/>
				<g>
					<polygon class="st7" points="284.72,279.01 240.12,304.67 240.12,195.3 284.72,169.65 					"/>
				</g>
				<g>
					<polygon class="st28" points="277.89,257.35 248.47,274.43 248.47,266.56 277.89,249.48 					"/>
				</g>
				<g>
					<polygon class="st28" points="277.89,269.83 248.47,286.91 248.47,279.04 277.89,261.96 					"/>
				</g>
				<polygon class="st8" points="240.12,212.23 284.72,185.83 284.72,169.65 240.12,195.3 				"/>
				<path class="st10" d="M247.97,201.13c0.91-1.35,1.05-2.85,0.32-3.34c-0.73-0.49-2.06,0.22-2.96,1.57
					c-0.91,1.36-1.05,2.85-0.32,3.34C245.74,203.19,247.06,202.49,247.97,201.13z"/>
				<path class="st10" d="M256.3,196.7c0.91-1.35,1.05-2.85,0.32-3.34c-0.73-0.49-2.06,0.21-2.96,1.57
					c-0.91,1.36-1.05,2.85-0.32,3.34C254.07,198.76,255.4,198.05,256.3,196.7z"/>
				<path class="st10" d="M264.64,191.48c0.91-1.35,1.05-2.85,0.32-3.34c-0.73-0.49-2.06,0.22-2.96,1.57
					c-0.91,1.36-1.05,2.85-0.32,3.34C262.4,193.54,263.73,192.84,264.64,191.48z"/>
				<path class="st28" d="M274.79,206.78c-5.7-4.02-15.9,0.64-22.79,10.4c-6.89,9.76-7.86,20.94-2.16,24.96
					c5.7,4.02,15.9-0.64,22.79-10.4C279.52,221.98,280.49,210.81,274.79,206.78z"/>
				<g>
					<path class="st10" d="M265.79,219.67c2.34-3.49,2.71-7.35,0.83-8.61c-1.88-1.26-5.31,0.56-7.64,4.05
						c-2.34,3.5-2.72,7.36-0.83,8.61C260.03,224.98,263.45,223.17,265.79,219.67z"/>
					<path class="st10" d="M254.24,239.16l17.87-10.73c0,0-2.87-8.21-9.73-3.35C255.52,229.94,254.24,239.16,254.24,239.16z"/>
				</g>
			</g>
		</g>
		<g>
			<path class="st10" d="M273.24,288.13c-7.35-4.33-7.2-18.21,0.34-31c7.54-12.79,19.61-19.66,26.96-15.32
				c7.35,4.33,7.19,18.21-0.35,31C292.65,285.61,280.58,292.47,273.24,288.13z"/>
			<path class="st7" d="M275.03,289.92c-7.35-4.33-7.2-18.21,0.34-31c7.54-12.79,19.61-19.65,26.96-15.32
				c7.35,4.33,7.19,18.21-0.35,31C294.44,287.4,282.37,294.26,275.03,289.92z"/>
			<g>
				<polygon class="st79" points="285.77,278.56 282.35,276.7 282.35,260.5 296.95,260.17 300.37,262.03 285.77,262.35 				"/>
				<polygon class="st77" points="300.37,262.03 285.77,262.35 285.77,278.56 				"/>
			</g>
		</g>
		<g>
			<g>
				<polygon class="st66" points="64.1,227 64.09,298.7 62.07,297.54 62.08,225.85 				"/>
				<polygon class="st10" points="116.34,196.96 64.1,227 62.08,225.85 114.32,195.8 				"/>
				<g>
					<polygon class="st7" points="116.34,268.62 64.06,298.7 64.06,227.04 116.34,196.96 					"/>
				</g>
				<polygon class="st8" points="69.18,295.75 116.34,203.31 116.34,196.96 112.76,199.02 64.06,293.95 64.06,298.7 				"/>
				<polygon class="st9" points="87.82,259.14 69.18,295.67 111.48,271.34 111.47,271.34 				"/>
				<polygon class="st7" points="64.06,226.96 64.06,283.57 105.25,203.26 				"/>
				<polygon class="st28" points="116.34,261.77 116.34,203.23 92.73,249.52 				"/>
				<polygon class="st8" points="116.34,196.96 105.25,203.34 64.06,283.64 64.06,298.7 69.18,295.75 87.82,259.21 111.47,271.42 
					116.34,268.9 116.34,261.85 92.73,249.6 116.34,203.31 				"/>
			</g>
			<g>
				<g>
					<path class="st9" d="M77.87,205.24c3.64-2.11,6.6-7.2,6.6-11.38c0-4.18-2.95-5.86-6.6-3.76c-0.5,0.29-0.98,0.64-1.45,1.03
						c-0.57,3.15-2.51,6.48-4.97,8.55c-0.11,0.61-0.18,1.22-0.18,1.81C71.27,205.66,74.22,207.34,77.87,205.24z"/>
					<path class="st10" d="M89.78,177.2L89.78,177.2l-0.02-0.01C89.77,177.19,89.77,177.19,89.78,177.2z"/>
					<path class="st9" d="M61.07,207.37L61.07,207.37c0-3.61,13.7-27.19,16.8-28.98c4.63-2.68,8.83-2.95,11.87-1.22l-7.29-4.18
						c-3.07-2.12-7.51-1.99-12.45,0.85c-9.28,5.36-16.8,18.33-16.8,28.98l0,0c0,6.27,1.71,13.48,8.39,17.19l7.63,4.4
						C62.74,220.67,61.07,213.56,61.07,207.37z"/>
					<path class="st10" d="M69.51,224.58l0.03,0.02v0C69.54,224.6,69.52,224.59,69.51,224.58z"/>
				</g>
				<path class="st28" d="M77.87,178.39c-9.28,5.36-16.8,18.33-16.8,28.98l0,0c0,8.35,3.04,18.37,16.8,19.56
					c13.76-17.07,16.8-30.6,16.8-38.95v0C94.67,177.32,87.15,173.03,77.87,178.39z M77.87,205.24c-3.64,2.1-6.6,0.42-6.6-3.76
					c0-4.18,2.95-9.27,6.6-11.38c3.64-2.1,6.6-0.42,6.6,3.76C84.46,198.04,81.51,203.14,77.87,205.24z"/>
			</g>
		</g>
	</g>
</g>
</svg>
