<?xml version="1.0" encoding="utf-8"?>
<!-- Generator: Adobe Illustrator 24.0.0, SVG Export Plug-In . SVG Version: 6.00 Build 0)  -->
<svg version="1.1" id="Capa_1" xmlns="http://www.w3.org/2000/svg" xmlns:xlink="http://www.w3.org/1999/xlink" x="0px" y="0px"
	 viewBox="0 0 400 400" style="enable-background:new 0 0 400 400;" xml:space="preserve">
<style type="text/css">
	.st0{opacity:0.25;fill:#585857;}
	.st1{opacity:0.25;}
	.st2{fill:#585857;}
	.st3{fill:#B0C2CD;}
	.st4{fill:#E6EBEE;}
	.st5{fill:#596B7B;}
	.st6{fill:#E23B21;}
	.st7{fill:#F29104;}
	.st8{fill:#FFFFFF;}
	.st9{fill:#F8B133;}
	.st10{fill:#E8501D;}
	.st11{fill:#1C3F76;}
	.st12{fill:#396EAC;}
	.st13{fill:#D4EBFA;}
	.st14{fill:#93A5B1;}
	.st15{fill:#75838D;}
	.st16{fill:#83949E;}
	.st17{fill:#DEE4EC;}
	.st18{enable-background:new    ;}
	.st19{clip-path:url(#SVGID_2_);enable-background:new    ;}
	.st20{clip-path:url(#SVGID_4_);enable-background:new    ;}
	.st21{clip-path:url(#SVGID_6_);enable-background:new    ;}
	.st22{clip-path:url(#SVGID_8_);enable-background:new    ;}
	.st23{clip-path:url(#SVGID_10_);enable-background:new    ;}
	.st24{clip-path:url(#SVGID_14_);enable-background:new    ;}
	.st25{opacity:0.57;}
	.st26{fill:none;}
	.st27{fill:#E98C4D;}
	.st28{fill:#F9DBB5;}
	.st29{fill:#F6B65F;}
	.st30{fill:#EE7A07;}
	.st31{fill:#903178;}
	.st32{fill:#425562;}
	.st33{fill:#F6A873;}
	.st34{clip-path:url(#SVGID_16_);enable-background:new    ;}
	.st35{fill:#121011;}
	.st36{clip-path:url(#SVGID_18_);enable-background:new    ;}
	.st37{clip-path:url(#SVGID_20_);enable-background:new    ;}
	.st38{clip-path:url(#SVGID_22_);enable-background:new    ;}
	.st39{clip-path:url(#SVGID_24_);enable-background:new    ;}
	.st40{fill:#141213;}
	.st41{clip-path:url(#SVGID_28_);enable-background:new    ;}
	.st42{fill:#939393;}
	.st43{fill:#989999;}
	.st44{fill:#9D9D9D;}
	.st45{fill:#A3A1A1;}
	.st46{fill:#A7A6A6;}
	.st47{fill:#ACACAC;}
	.st48{fill:#B4B4B2;}
	.st49{fill:#B8B7B7;}
	.st50{fill:#8D8E8E;}
	.st51{fill:#888A8A;}
	.st52{fill:#848685;}
	.st53{fill:#151212;}
	.st54{fill:#161415;}
	.st55{fill:#171414;}
	.st56{fill:#171415;}
	.st57{fill:#191516;}
	.st58{fill:#191717;}
	.st59{fill:#191618;}
	.st60{fill:#C8D2DF;}
	.st61{fill:#171517;}
	.st62{fill:#A5539A;}
	.st63{fill:#CDCAE6;}
	.st64{fill:#7975B5;}
	.st65{fill:url(#SVGID_29_);}
	.st66{fill:#E5352B;}
	.st67{fill:url(#SVGID_30_);}
	.st68{opacity:0.5;fill:#CDCAE6;}
	.st69{fill:url(#SVGID_31_);}
	.st70{fill:url(#SVGID_32_);}
	.st71{fill:url(#SVGID_33_);}
	.st72{fill:url(#SVGID_34_);}
	.st73{fill:url(#SVGID_35_);}
	.st74{fill:url(#SVGID_36_);}
	.st75{fill:url(#SVGID_37_);}
	.st76{fill:#F07E1B;}
	.st77{fill:#F5F5F7;}
	.st78{fill:#683D90;}
	.st79{fill:#D0D9E4;}
	.st80{fill:url(#SVGID_38_);}
	.st81{fill:#005E77;}
	.st82{fill:#519BD5;}
	.st83{fill:#F8F8FA;}
	.st84{fill:url(#SVGID_39_);}
	.st85{fill:#D3DBE6;}
</style>
<g>
	<path class="st0" d="M131.88,397.2l118.08-68.18c3.34-1.93,2.92-5.3-0.94-7.52l-80.41-46.41c-3.86-2.23-9.69-2.47-13.03-0.54
		L37.5,342.73c-3.34,1.93-2.92,5.3,0.94,7.52l80.41,46.41C122.7,398.88,128.54,399.13,131.88,397.2z"/>
	<g class="st1">
		<path class="st2" d="M185.63,386.04l60.03-34.66c1.3-0.75,1.14-2.06-0.36-2.92l0,0c-1.5-0.87-3.77-0.96-5.06-0.21l-60.03,34.66
			c-1.3,0.75-1.14,2.06,0.36,2.92l0,0C182.06,386.7,184.33,386.79,185.63,386.04z"/>
		<path class="st2" d="M178.68,388.52l5.6-3.23c0.68-0.39,0.59-1.07-0.19-1.52l0,0c-0.78-0.45-1.96-0.5-2.64-0.11l-5.6,3.23
			c-0.68,0.39-0.59,1.07,0.19,1.52l0,0C176.82,388.86,178,388.91,178.68,388.52z"/>
	</g>
	<path class="st0" d="M262.82,291.87l-56.35-32.13c-2.06-1.19-1.8-3.27,0.58-4.64l32.42-18.72c2.38-1.37,5.98-1.52,8.04-0.33
		l56.35,32.13c2.06,1.19,1.8,3.27-0.58,4.64l-32.42,18.72C268.48,292.91,264.88,293.06,262.82,291.87z"/>
	<path class="st0" d="M333.93,331.04l-56.35-32.13c-2.06-1.19-1.8-3.27,0.58-4.64l32.42-18.72c2.38-1.37,5.98-1.52,8.04-0.33
		l56.35,32.13c2.06,1.19,1.8,3.27-0.58,4.64l-32.42,18.72C339.59,332.08,335.99,332.23,333.93,331.04z"/>
	<g>
		<g>
			<g>
				<ellipse class="st0" cx="172.91" cy="250.87" rx="15.37" ry="8.88"/>
				<polygon class="st3" points="188.12,247.74 192.97,225.87 152.76,225.87 157.62,247.74 				"/>
				<path class="st4" d="M187.2,232.65c-7.92,4.57-20.75,4.57-28.67,0c-7.92-4.57-7.92-11.98,0-16.55c7.92-4.57,20.75-4.57,28.67,0
					C195.12,220.67,195.12,228.08,187.2,232.65z"/>
				<path class="st3" d="M172.87,234.05c-5.06,0-9.8-1.12-13.32-3.16c-3.18-1.83-4.93-4.15-4.93-6.52c0-2.37,1.75-4.69,4.93-6.52
					c3.53-2.04,8.26-3.16,13.32-3.16c5.06,0,9.8,1.12,13.32,3.16c3.18,1.83,4.93,4.15,4.93,6.52c0,2.37-1.75,4.69-4.93,6.52
					C182.66,232.93,177.93,234.05,172.87,234.05z"/>
				<path class="st5" d="M186.19,223.17c-3.53-2.04-8.26-3.16-13.32-3.16c-5.06,0-9.8,1.12-13.32,3.16
					c-1.97,1.14-3.38,2.46-4.18,3.86c0.8,1.4,2.21,2.73,4.18,3.86c3.53,2.04,8.26,3.16,13.32,3.16c5.06,0,9.8-1.12,13.32-3.16
					c1.97-1.14,3.38-2.46,4.18-3.86C189.57,225.63,188.16,224.31,186.19,223.17z"/>
				<ellipse class="st3" cx="172.87" cy="246.61" rx="15.37" ry="8.88"/>
			</g>
			<path class="st6" d="M171.53,213.15v13.64c0,0.2,0.13,0.39,0.39,0.54c0.52,0.3,1.37,0.3,1.89,0c0.26-0.15,0.39-0.35,0.39-0.54
				v-13.64H171.53z"/>
			<path class="st7" d="M190.7,204.15c0,9.85-7.99,17.84-17.84,17.84c-9.85,0-17.84-7.99-17.84-17.84
				c0-9.85,17.84-34.61,17.84-34.61S190.7,194.3,190.7,204.15z"/>
			<path class="st7" d="M181.68,182.98c0.42,2.15,0.65,4.38,0.65,6.65c0,13.04-7.28,24.38-17.99,30.18
				c2.53,1.38,5.44,2.17,8.53,2.17c9.85,0,17.84-7.99,17.84-17.84C190.7,199.19,186.18,190.44,181.68,182.98z"/>
		</g>
		<g>
			<g>
				<g>
					<path class="st7" d="M306.03,262.59L306.03,262.59v-118.7l-47.19-12.35l-8.69-5.02c-1.99-1.15-5.48-1.01-7.78,0.32l-8.11,4.68
						l-25.17-0.01l7.45,114.59c-0.06,0.78,0.38,1.53,1.34,2.09l47.09,35.53c1.99,1.15,5.48,1.01,7.78-0.32l31.38-18.12
						C305.46,264.51,306.1,263.51,306.03,262.59z"/>
					<path class="st8" d="M246.54,125.75c-1.46,0.04-2.97,0.4-4.17,1.09l-8.11,4.68l-25.17-0.01v119.02
						c-0.06,0.78,0.38,1.53,1.34,2.09l54.54,31.1c0.96,0.55,2.26,0.8,3.61,0.77l0.56-119.76L246.54,125.75z"/>
					<path class="st9" d="M265.47,283.96c1.72,0.74,4.21,0.7,6.22-0.07V163.31h-6.22V283.96z"/>
					<path class="st8" d="M264.97,164.74l-54.54-31.1c-1.99-1.15-1.74-3.16,0.56-4.49l31.38-18.12c2.3-1.33,5.79-1.47,7.78-0.32
						l54.54,31.1c1.99,1.15,1.74,3.16-0.56,4.49l-31.38,18.12C270.45,165.75,266.96,165.89,264.97,164.74z"/>
					<path class="st8" d="M304.14,144.09l-31.38,18.12c-2.3,1.33-5.79,1.47-7.78,0.32l-54.54-31.1c-0.44-0.26-0.77-0.56-1-0.88
						c-0.69,1.1-0.37,2.3,1,3.09l54.54,31.1c1.99,1.15,5.48,1.01,7.78-0.32l31.38-18.12c1.79-1.03,2.33-2.48,1.55-3.61
						C305.38,143.19,304.86,143.67,304.14,144.09z"/>
					<g>
						<path class="st10" d="M266.51,152.13l-36.31-21.05c-0.93-0.54-0.82-1.48,0.26-2.1l14.69-8.48c1.08-0.62,2.71-0.69,3.64-0.15
							l36.31,21.05c0.93,0.54,0.82,1.48-0.26,2.1l-14.69,8.48C269.08,152.61,267.45,152.67,266.51,152.13z"/>
						<g>
							<path class="st8" d="M246.91,132.03l-2.1-1.21c-0.13-0.07-0.11-0.2,0.04-0.29l2.03-1.17c0.15-0.09,0.37-0.1,0.5-0.02
								l2.1,1.21c0.13,0.07,0.11,0.2-0.04,0.29l-2.03,1.17C247.26,132.1,247.04,132.1,246.91,132.03z"/>
							<path class="st8" d="M253.94,136.07l-2.1-1.21c-0.13-0.07-0.11-0.2,0.04-0.29l2.03-1.17c0.15-0.09,0.37-0.1,0.5-0.02
								l2.1,1.21c0.13,0.07,0.11,0.2-0.04,0.29l-2.03,1.17C254.29,136.14,254.07,136.15,253.94,136.07z"/>
							<path class="st8" d="M260.97,140.11l-2.1-1.21c-0.13-0.07-0.11-0.2,0.04-0.29l2.03-1.17c0.15-0.09,0.37-0.1,0.5-0.02
								l2.1,1.21c0.13,0.07,0.11,0.2-0.04,0.29l-2.03,1.17C261.32,140.18,261.1,140.19,260.97,140.11z"/>
							<path class="st8" d="M268,144.16l-2.1-1.21c-0.13-0.07-0.11-0.2,0.04-0.29l2.03-1.17c0.15-0.09,0.37-0.1,0.5-0.02l2.1,1.21
								c0.13,0.07,0.11,0.2-0.04,0.29l-2.03,1.17C268.35,144.22,268.13,144.23,268,144.16z"/>
						</g>
						<path class="st7" d="M230.2,131.08l0.04,0.02c0.07-0.05,0.14-0.1,0.22-0.15l14.69-8.48c1.08-0.62,2.71-0.69,3.64-0.15
							l36.27,21.03c0.86-0.62,0.91-1.45,0.04-1.95l-36.31-21.05c-0.93-0.54-2.56-0.47-3.64,0.15l-14.69,8.48
							C229.38,129.6,229.27,130.55,230.2,131.08z"/>
					</g>
				</g>
				<g>
					<path class="st11" d="M278.88,188.26l20.65-11.82c1.16-0.67,2.1-2.47,2.1-4.02v-7.38c0-1.55-0.94-2.26-2.1-1.59l-20.65,11.82
						c-1.16,0.67-2.1,2.47-2.1,4.02v7.38C276.78,188.22,277.72,188.93,278.88,188.26z"/>
					<path class="st8" d="M300.55,163.22c0.32,0.31,0.53,0.83,0.53,1.54v7.38c0,1.55-0.94,3.35-2.1,4.02l-20.65,11.82
						c-0.37,0.22-0.72,0.27-1.02,0.22c0.39,0.36,0.94,0.42,1.58,0.05l20.65-11.82c1.16-0.67,2.1-2.47,2.1-4.02v-7.38
						C301.63,163.98,301.19,163.33,300.55,163.22z"/>
					<g>
						<path class="st12" d="M285.09,180.24l1.89-1.09c0.25-0.15,0.46-0.54,0.46-0.88v-2.02c0-0.34-0.21-0.49-0.46-0.35l-1.89,1.09
							c-0.25,0.15-0.46,0.54-0.46,0.88v2.02C284.63,180.23,284.84,180.38,285.09,180.24z"/>
						<path class="st8" d="M291.42,176.58l1.89-1.09c0.25-0.15,0.46-0.54,0.46-0.88v-2.02c0-0.34-0.21-0.49-0.46-0.35l-1.89,1.09
							c-0.25,0.15-0.46,0.54-0.46,0.88v2.02C290.96,176.57,291.17,176.73,291.42,176.58z"/>
					</g>
				</g>
				<g>
					<path class="st11" d="M278.88,241.61l20.65-11.82c1.16-0.67,2.1-2.47,2.1-4.02v-7.38c0-1.55-0.94-2.26-2.1-1.59l-20.65,11.82
						c-1.16,0.67-2.1,2.47-2.1,4.02v7.38C276.78,241.57,277.72,242.28,278.88,241.61z"/>
					<path class="st8" d="M300.55,216.57c0.32,0.31,0.53,0.83,0.53,1.54v7.38c0,1.55-0.94,3.35-2.1,4.02l-20.65,11.82
						c-0.37,0.22-0.72,0.27-1.02,0.22c0.39,0.36,0.94,0.42,1.58,0.05l20.65-11.82c1.16-0.67,2.1-2.47,2.1-4.02v-7.38
						C301.63,217.33,301.19,216.68,300.55,216.57z"/>
					<g>
						<path class="st12" d="M285.09,233.59l1.89-1.09c0.25-0.15,0.46-0.54,0.46-0.88v-2.02c0-0.34-0.21-0.49-0.46-0.35l-1.89,1.09
							c-0.25,0.15-0.46,0.54-0.46,0.88v2.02C284.63,233.58,284.84,233.74,285.09,233.59z"/>
						<path class="st8" d="M291.42,229.93l1.89-1.09c0.25-0.15,0.46-0.54,0.46-0.88v-2.02c0-0.34-0.21-0.49-0.46-0.35l-1.89,1.09
							c-0.25,0.15-0.46,0.54-0.46,0.88v2.02C290.96,229.93,291.17,230.08,291.42,229.93z"/>
					</g>
				</g>
				<g>
					<path class="st11" d="M278.88,268.29l20.65-11.82c1.16-0.67,2.1-2.47,2.1-4.02v-7.38c0-1.55-0.94-2.26-2.1-1.59l-20.65,11.82
						c-1.16,0.67-2.1,2.47-2.1,4.02v7.38C276.78,268.25,277.72,268.96,278.88,268.29z"/>
					<path class="st8" d="M300.55,243.25c0.32,0.31,0.53,0.83,0.53,1.54v7.38c0,1.55-0.94,3.35-2.1,4.02l-20.65,11.82
						c-0.37,0.22-0.72,0.27-1.02,0.22c0.39,0.36,0.94,0.42,1.58,0.05l20.65-11.82c1.16-0.67,2.1-2.47,2.1-4.02v-7.38
						C301.63,244.01,301.19,243.36,300.55,243.25z"/>
					<g>
						<path class="st12" d="M285.09,260.27l1.89-1.09c0.25-0.15,0.46-0.54,0.46-0.88v-2.02c0-0.34-0.21-0.49-0.46-0.35l-1.89,1.09
							c-0.25,0.15-0.46,0.54-0.46,0.88v2.02C284.63,260.26,284.84,260.41,285.09,260.27z"/>
						<path class="st8" d="M291.42,256.61l1.89-1.09c0.25-0.15,0.46-0.54,0.46-0.88v-2.02c0-0.34-0.21-0.49-0.46-0.35l-1.89,1.09
							c-0.25,0.15-0.46,0.54-0.46,0.88v2.02C290.96,256.6,291.17,256.76,291.42,256.61z"/>
					</g>
				</g>
				<g>
					<path class="st11" d="M278.88,214.93l20.65-11.82c1.16-0.67,2.1-2.47,2.1-4.02v-7.38c0-1.55-0.94-2.26-2.1-1.59l-20.65,11.82
						c-1.16,0.67-2.1,2.47-2.1,4.02v7.38C276.78,214.89,277.72,215.6,278.88,214.93z"/>
					<path class="st8" d="M300.55,189.9c0.32,0.31,0.53,0.83,0.53,1.54v7.38c0,1.55-0.94,3.35-2.1,4.02l-20.65,11.82
						c-0.37,0.22-0.72,0.27-1.02,0.22c0.39,0.36,0.94,0.42,1.58,0.05l20.65-11.82c1.16-0.67,2.1-2.47,2.1-4.02v-7.38
						C301.63,190.66,301.19,190.01,300.55,189.9z"/>
					<g>
						<path class="st12" d="M285.09,206.91l1.89-1.09c0.25-0.15,0.46-0.54,0.46-0.88v-2.02c0-0.34-0.21-0.49-0.46-0.35l-1.89,1.09
							c-0.25,0.15-0.46,0.54-0.46,0.88v2.02C284.63,206.9,284.84,207.06,285.09,206.91z"/>
						<path class="st8" d="M291.42,203.26l1.89-1.09c0.25-0.15,0.46-0.54,0.46-0.88v-2.02c0-0.34-0.21-0.49-0.46-0.35l-1.89,1.09
							c-0.25,0.15-0.46,0.54-0.46,0.88v2.02C290.96,203.25,291.17,203.4,291.42,203.26z"/>
					</g>
				</g>
			</g>
			<g>
				<path class="st9" d="M261,180.7l-47.63-27.5c-1.07-0.62-1.93-2.27-1.93-3.69v-9.08c0-1.42,0.86-2.08,1.93-1.46l47.63,27.5
					c1.07,0.62,1.93,2.27,1.93,3.69v9.08C262.93,180.66,262.06,181.31,261,180.7z"/>
				<path class="st8" d="M259.63,177.51l-44.9-25.92c-0.54-0.31-0.98-1.15-0.98-1.87v-6.83c0-0.72,0.44-1.05,0.98-0.74l44.9,25.92
					c0.54,0.31,0.98,1.15,0.98,1.87v6.83C260.61,177.49,260.17,177.83,259.63,177.51z"/>
				<path class="st8" d="M224.09,153.54l-6.7-3.87c-0.53-0.3-0.95-1.12-0.95-1.82l0,0c0-0.7,0.43-1.02,0.95-0.72l6.7,3.87
					c0.53,0.3,0.95,1.12,0.95,1.82l0,0C225.04,153.52,224.61,153.84,224.09,153.54z"/>
				<path class="st6" d="M229.8,155.57c0,0.7-0.49,0.98-1.1,0.63c-0.61-0.35-1.1-1.2-1.1-1.9c0-0.7,0.49-0.98,1.1-0.63
					C229.31,154.02,229.8,154.87,229.8,155.57z"/>
				<path class="st6" d="M233.67,157.81c0,0.7-0.49,0.98-1.1,0.63c-0.61-0.35-1.1-1.2-1.1-1.9c0-0.7,0.49-0.98,1.1-0.63
					C233.18,156.25,233.67,157.11,233.67,157.81z"/>
				<path class="st8" d="M237.55,160.04c0,0.7-0.49,0.98-1.1,0.63c-0.61-0.35-1.1-1.2-1.1-1.9c0-0.7,0.49-0.98,1.1-0.63
					C237.05,158.49,237.55,159.34,237.55,160.04z"/>
				<path class="st6" d="M241.42,162.28c0,0.7-0.49,0.98-1.1,0.63c-0.61-0.35-1.1-1.2-1.1-1.9c0-0.7,0.49-0.98,1.1-0.63
					C240.93,160.73,241.42,161.58,241.42,162.28z"/>
				<path class="st6" d="M257.74,173.71l-2.26-1.3c-0.34-0.19-0.61-0.72-0.61-1.17v-2.39c0-0.45,0.27-0.66,0.61-0.46l2.26,1.3
					c0.34,0.19,0.61,0.72,0.61,1.17v2.39C258.35,173.7,258.08,173.91,257.74,173.71z"/>
			</g>
			<g>
				<path class="st9" d="M261,196.72l-47.63-27.5c-1.07-0.62-1.93-2.27-1.93-3.69v-9.08c0-1.42,0.86-2.07,1.93-1.46l47.63,27.5
					c1.07,0.62,1.93,2.27,1.93,3.69v9.08C262.93,196.68,262.06,197.33,261,196.72z"/>
				<path class="st8" d="M259.63,193.53l-44.9-25.92c-0.54-0.31-0.98-1.15-0.98-1.87v-6.83c0-0.72,0.44-1.05,0.98-0.74l44.9,25.92
					c0.54,0.31,0.98,1.15,0.98,1.87v6.83C260.61,193.51,260.17,193.84,259.63,193.53z"/>
				<path class="st8" d="M224.09,169.56l-6.7-3.87c-0.53-0.3-0.95-1.12-0.95-1.82l0,0c0-0.7,0.43-1.02,0.95-0.72l6.7,3.87
					c0.53,0.3,0.95,1.12,0.95,1.82l0,0C225.04,169.54,224.61,169.86,224.09,169.56z"/>
				<path class="st8" d="M229.8,171.59c0,0.7-0.49,0.98-1.1,0.63c-0.61-0.35-1.1-1.2-1.1-1.9c0-0.7,0.49-0.98,1.1-0.63
					C229.31,170.03,229.8,170.89,229.8,171.59z"/>
				<path class="st6" d="M233.67,173.82c0,0.7-0.49,0.98-1.1,0.63c-0.61-0.35-1.1-1.2-1.1-1.9c0-0.7,0.49-0.98,1.1-0.63
					C233.18,172.27,233.67,173.12,233.67,173.82z"/>
				<path class="st8" d="M237.55,176.06c0,0.7-0.49,0.98-1.1,0.63c-0.61-0.35-1.1-1.2-1.1-1.9c0-0.7,0.49-0.98,1.1-0.63
					C237.05,174.51,237.55,175.36,237.55,176.06z"/>
				<path class="st6" d="M241.42,178.3c0,0.7-0.49,0.98-1.1,0.63c-0.61-0.35-1.1-1.2-1.1-1.9c0-0.7,0.49-0.98,1.1-0.63
					C240.93,176.75,241.42,177.6,241.42,178.3z"/>
				<path class="st6" d="M257.74,189.73l-2.26-1.3c-0.34-0.19-0.61-0.72-0.61-1.17v-2.39c0-0.45,0.27-0.66,0.61-0.46l2.26,1.3
					c0.34,0.19,0.61,0.72,0.61,1.17v2.39C258.35,189.72,258.08,189.92,257.74,189.73z"/>
			</g>
			<g>
				<path class="st9" d="M261,212.73l-47.63-27.5c-1.07-0.62-1.93-2.27-1.93-3.69v-9.08c0-1.42,0.86-2.08,1.93-1.46L261,198.5
					c1.07,0.62,1.93,2.27,1.93,3.69v9.08C262.93,212.69,262.06,213.35,261,212.73z"/>
				<path class="st8" d="M259.63,209.55l-44.9-25.92c-0.54-0.31-0.98-1.15-0.98-1.87v-6.83c0-0.72,0.44-1.05,0.98-0.74l44.9,25.92
					c0.54,0.31,0.98,1.15,0.98,1.87v6.83C260.61,209.53,260.17,209.86,259.63,209.55z"/>
				<path class="st8" d="M224.09,185.58l-6.7-3.87c-0.53-0.3-0.95-1.12-0.95-1.82l0,0c0-0.7,0.43-1.02,0.95-0.72l6.7,3.87
					c0.53,0.3,0.95,1.12,0.95,1.82l0,0C225.04,185.56,224.61,185.88,224.09,185.58z"/>
				<path class="st8" d="M229.8,187.6c0,0.7-0.49,0.98-1.1,0.63c-0.61-0.35-1.1-1.2-1.1-1.9s0.49-0.98,1.1-0.63
					C229.31,186.05,229.8,186.9,229.8,187.6z"/>
				<path class="st6" d="M233.67,189.84c0,0.7-0.49,0.98-1.1,0.63c-0.61-0.35-1.1-1.2-1.1-1.9c0-0.7,0.49-0.98,1.1-0.63
					C233.18,188.29,233.67,189.14,233.67,189.84z"/>
				<path class="st8" d="M237.55,192.08c0,0.7-0.49,0.98-1.1,0.63c-0.61-0.35-1.1-1.2-1.1-1.9c0-0.7,0.49-0.98,1.1-0.63
					C237.05,190.53,237.55,191.38,237.55,192.08z"/>
				<path class="st6" d="M241.42,194.31c0,0.7-0.49,0.98-1.1,0.63c-0.61-0.35-1.1-1.2-1.1-1.9c0-0.7,0.49-0.98,1.1-0.63
					C240.93,192.76,241.42,193.61,241.42,194.31z"/>
				<path class="st6" d="M257.74,205.75l-2.26-1.3c-0.34-0.19-0.61-0.72-0.61-1.17v-2.39c0-0.45,0.27-0.66,0.61-0.46l2.26,1.3
					c0.34,0.19,0.61,0.72,0.61,1.17v2.39C258.35,205.73,258.08,205.94,257.74,205.75z"/>
			</g>
			<g>
				<path class="st9" d="M261,228.75l-47.63-27.5c-1.07-0.62-1.93-2.27-1.93-3.69v-9.08c0-1.42,0.86-2.07,1.93-1.46l47.63,27.5
					c1.07,0.62,1.93,2.27,1.93,3.69v9.08C262.93,228.71,262.06,229.37,261,228.75z"/>
				<path class="st8" d="M259.63,225.56l-44.9-25.92c-0.54-0.31-0.98-1.15-0.98-1.87v-6.83c0-0.72,0.44-1.05,0.98-0.74l44.9,25.92
					c0.54,0.31,0.98,1.15,0.98,1.87v6.83C260.61,225.55,260.17,225.88,259.63,225.56z"/>
				<path class="st8" d="M224.09,201.59l-6.7-3.87c-0.53-0.3-0.95-1.12-0.95-1.82l0,0c0-0.7,0.43-1.02,0.95-0.72l6.7,3.87
					c0.53,0.3,0.95,1.12,0.95,1.82l0,0C225.04,201.57,224.61,201.9,224.09,201.59z"/>
				<path class="st6" d="M229.8,203.62c0,0.7-0.49,0.98-1.1,0.63c-0.61-0.35-1.1-1.2-1.1-1.9c0-0.7,0.49-0.98,1.1-0.63
					C229.31,202.07,229.8,202.92,229.8,203.62z"/>
				<path class="st6" d="M233.67,205.86c0,0.7-0.49,0.98-1.1,0.63c-0.61-0.35-1.1-1.2-1.1-1.9c0-0.7,0.49-0.98,1.1-0.63
					C233.18,204.31,233.67,205.16,233.67,205.86z"/>
				<path class="st8" d="M237.55,208.09c0,0.7-0.49,0.98-1.1,0.63c-0.61-0.35-1.1-1.2-1.1-1.9c0-0.7,0.49-0.98,1.1-0.63
					C237.05,206.54,237.55,207.39,237.55,208.09z"/>
				<ellipse transform="matrix(0.866 -0.5 0.5 0.866 -72.652 148.2565)" class="st6" cx="240.32" cy="209.7" rx="0.9" ry="1.55"/>
				<path class="st8" d="M257.74,221.76l-2.26-1.3c-0.34-0.19-0.61-0.72-0.61-1.17v-2.39c0-0.45,0.27-0.66,0.61-0.46l2.26,1.3
					c0.34,0.19,0.61,0.72,0.61,1.17v2.39C258.35,221.75,258.08,221.96,257.74,221.76z"/>
			</g>
			<g>
				<path class="st9" d="M261,244.77l-47.63-27.5c-1.07-0.62-1.93-2.27-1.93-3.69v-9.08c0-1.42,0.86-2.07,1.93-1.46l47.63,27.5
					c1.07,0.62,1.93,2.27,1.93,3.69v9.08C262.93,244.73,262.06,245.38,261,244.77z"/>
				<path class="st8" d="M259.63,241.58l-44.9-25.92c-0.54-0.31-0.98-1.15-0.98-1.87v-6.83c0-0.72,0.44-1.05,0.98-0.74l44.9,25.92
					c0.54,0.31,0.98,1.15,0.98,1.87v6.83C260.61,241.56,260.17,241.89,259.63,241.58z"/>
				<path class="st8" d="M224.09,217.61l-6.7-3.87c-0.53-0.3-0.95-1.12-0.95-1.82l0,0c0-0.7,0.43-1.02,0.95-0.72l6.7,3.87
					c0.53,0.3,0.95,1.12,0.95,1.82l0,0C225.04,217.59,224.61,217.91,224.09,217.61z"/>
				<path class="st6" d="M229.8,219.64c0,0.7-0.49,0.98-1.1,0.63c-0.61-0.35-1.1-1.2-1.1-1.9c0-0.7,0.49-0.98,1.1-0.63
					C229.31,218.09,229.8,218.94,229.8,219.64z"/>
				<path class="st8" d="M233.67,221.87c0,0.7-0.49,0.98-1.1,0.63c-0.61-0.35-1.1-1.2-1.1-1.9c0-0.7,0.49-0.98,1.1-0.63
					C233.18,220.32,233.67,221.17,233.67,221.87z"/>
				<path class="st8" d="M237.55,224.11c0,0.7-0.49,0.98-1.1,0.63c-0.61-0.35-1.1-1.2-1.1-1.9c0-0.7,0.49-0.98,1.1-0.63
					C237.05,222.56,237.55,223.41,237.55,224.11z"/>
				<path class="st8" d="M241.42,226.35c0,0.7-0.49,0.98-1.1,0.63c-0.61-0.35-1.1-1.2-1.1-1.9c0-0.7,0.49-0.98,1.1-0.63
					C240.93,224.8,241.42,225.65,241.42,226.35z"/>
				<path class="st8" d="M257.74,237.78l-2.26-1.3c-0.34-0.19-0.61-0.72-0.61-1.17v-2.39c0-0.45,0.27-0.66,0.61-0.46l2.26,1.3
					c0.34,0.19,0.61,0.72,0.61,1.17v2.39C258.35,237.77,258.08,237.97,257.74,237.78z"/>
			</g>
			<g>
				<path class="st9" d="M261,260.78l-47.63-27.5c-1.07-0.62-1.93-2.27-1.93-3.69v-9.08c0-1.42,0.86-2.08,1.93-1.46l47.63,27.5
					c1.07,0.62,1.93,2.27,1.93,3.69v9.08C262.93,260.75,262.06,261.4,261,260.78z"/>
				<path class="st8" d="M259.63,257.6l-44.9-25.92c-0.54-0.31-0.98-1.15-0.98-1.87v-6.83c0-0.72,0.44-1.05,0.98-0.74l44.9,25.92
					c0.54,0.31,0.98,1.15,0.98,1.87v6.83C260.61,257.58,260.17,257.91,259.63,257.6z"/>
				<path class="st8" d="M224.09,233.63l-6.7-3.87c-0.53-0.3-0.95-1.12-0.95-1.82l0,0c0-0.7,0.43-1.02,0.95-0.72l6.7,3.87
					c0.53,0.3,0.95,1.12,0.95,1.82l0,0C225.04,233.61,224.61,233.93,224.09,233.63z"/>
				<path class="st6" d="M229.8,235.66c0,0.7-0.49,0.98-1.1,0.63c-0.61-0.35-1.1-1.2-1.1-1.9c0-0.7,0.49-0.98,1.1-0.63
					C229.31,234.1,229.8,234.95,229.8,235.66z"/>
				<path class="st6" d="M233.67,237.89c0,0.7-0.49,0.98-1.1,0.63c-0.61-0.35-1.1-1.2-1.1-1.9c0-0.7,0.49-0.98,1.1-0.63
					C233.18,236.34,233.67,237.19,233.67,237.89z"/>
				<path class="st8" d="M237.55,240.13c0,0.7-0.49,0.98-1.1,0.63c-0.61-0.35-1.1-1.2-1.1-1.9c0-0.7,0.49-0.98,1.1-0.63
					C237.05,238.58,237.55,239.43,237.55,240.13z"/>
				<path class="st6" d="M241.42,242.37c0,0.7-0.49,0.98-1.1,0.63c-0.61-0.35-1.1-1.2-1.1-1.9c0-0.7,0.49-0.98,1.1-0.63
					S241.42,241.67,241.42,242.37z"/>
				<path class="st6" d="M257.74,253.8l-2.26-1.3c-0.34-0.19-0.61-0.72-0.61-1.17v-2.39c0-0.45,0.27-0.66,0.61-0.46l2.26,1.3
					c0.34,0.19,0.61,0.72,0.61,1.17v2.39C258.35,253.78,258.08,253.99,257.74,253.8z"/>
			</g>
			<g>
				<path class="st9" d="M261,276.8l-47.63-27.5c-1.07-0.62-1.93-2.27-1.93-3.69v-9.08c0-1.42,0.86-2.07,1.93-1.46l47.63,27.5
					c1.07,0.62,1.93,2.27,1.93,3.69v9.08C262.93,276.76,262.06,277.42,261,276.8z"/>
				<path class="st8" d="M259.63,273.62l-44.9-25.92c-0.54-0.31-0.98-1.15-0.98-1.87v-6.83c0-0.72,0.44-1.05,0.98-0.74l44.9,25.92
					c0.54,0.31,0.98,1.15,0.98,1.87v6.83C260.61,273.6,260.17,273.93,259.63,273.62z"/>
				<path class="st8" d="M224.09,249.64l-6.7-3.87c-0.53-0.3-0.95-1.12-0.95-1.82l0,0c0-0.7,0.43-1.02,0.95-0.72l6.7,3.87
					c0.53,0.3,0.95,1.12,0.95,1.82l0,0C225.04,249.63,224.61,249.95,224.09,249.64z"/>
				<path class="st6" d="M254.87,266.45c0,1.32-0.93,1.86-2.07,1.2c-1.15-0.66-2.07-2.27-2.07-3.59c0-1.32,0.93-1.86,2.07-1.2
					C253.94,263.52,254.87,265.13,254.87,266.45z"/>
				<path class="st6" d="M229.8,251.87c0,0.7-0.49,0.98-1.1,0.63c-0.61-0.35-1.1-1.2-1.1-1.9c0-0.7,0.49-0.98,1.1-0.63
					C229.31,250.32,229.8,251.17,229.8,251.87z"/>
				<path class="st8" d="M233.67,254.11c0,0.7-0.49,0.98-1.1,0.63c-0.61-0.35-1.1-1.2-1.1-1.9c0-0.7,0.49-0.98,1.1-0.63
					C233.18,252.56,233.67,253.41,233.67,254.11z"/>
				<ellipse transform="matrix(0.866 -0.5 0.5 0.866 -96.1785 152.4838)" class="st6" cx="236.45" cy="255.71" rx="0.9" ry="1.55"/>
			</g>
		</g>
		<g>
			<g>
				<g>
					<path class="st7" d="M373.6,301.32L373.6,301.32v-118.7l-47.19-12.35l-8.69-5.02c-1.99-1.15-5.48-1.01-7.78,0.32l-8.11,4.68
						l-25.17-0.01l7.45,114.59c-0.06,0.78,0.38,1.53,1.34,2.09l47.09,35.53c1.99,1.15,5.48,1.01,7.78-0.32L371.71,304
						C373.04,303.24,373.68,302.24,373.6,301.32z"/>
					<path class="st8" d="M314.11,164.48c-1.46,0.04-2.97,0.4-4.17,1.09l-8.11,4.68l-25.17-0.01v119.02
						c-0.06,0.78,0.38,1.53,1.34,2.09l54.54,31.1c0.96,0.55,2.26,0.8,3.61,0.77l0.56-119.76L314.11,164.48z"/>
					<path class="st9" d="M333.04,322.69c1.72,0.74,4.21,0.7,6.22-0.07V202.04h-6.22V322.69z"/>
					<path class="st8" d="M332.54,203.47L278,172.37c-1.99-1.15-1.74-3.16,0.56-4.49l31.38-18.12c2.3-1.33,5.79-1.47,7.78-0.32
						l54.54,31.1c1.99,1.15,1.74,3.16-0.56,4.49l-31.38,18.12C338.02,204.48,334.54,204.62,332.54,203.47z"/>
					<path class="st8" d="M371.71,182.82l-31.38,18.12c-2.3,1.33-5.79,1.47-7.78,0.32L278,170.16c-0.44-0.26-0.77-0.56-1-0.88
						c-0.69,1.1-0.37,2.3,1,3.09l54.54,31.1c1.99,1.15,5.48,1.01,7.78-0.32l31.38-18.12c1.79-1.03,2.33-2.48,1.55-3.61
						C372.95,181.92,372.43,182.4,371.71,182.82z"/>
					<g>
						<path class="st10" d="M334.09,190.86l-36.31-21.05c-0.93-0.54-0.82-1.48,0.26-2.1l14.69-8.48c1.08-0.62,2.71-0.69,3.64-0.15
							l36.31,21.05c0.93,0.54,0.82,1.48-0.26,2.1l-14.69,8.48C336.65,191.34,335.02,191.4,334.09,190.86z"/>
						<g>
							<path class="st8" d="M314.48,170.76l-2.1-1.21c-0.13-0.07-0.11-0.2,0.04-0.29l2.03-1.17c0.15-0.09,0.37-0.1,0.5-0.02
								l2.1,1.21c0.13,0.07,0.11,0.2-0.04,0.29l-2.03,1.17C314.84,170.83,314.61,170.83,314.48,170.76z"/>
							<path class="st8" d="M321.51,174.8l-2.1-1.21c-0.13-0.07-0.11-0.2,0.04-0.29l2.03-1.17c0.15-0.09,0.37-0.1,0.5-0.02l2.1,1.21
								c0.13,0.07,0.11,0.2-0.04,0.29l-2.03,1.17C321.87,174.87,321.64,174.88,321.51,174.8z"/>
							<path class="st8" d="M328.54,178.84l-2.1-1.21c-0.13-0.07-0.11-0.2,0.04-0.29l2.03-1.17c0.15-0.09,0.37-0.1,0.5-0.02
								l2.1,1.21c0.13,0.07,0.11,0.2-0.04,0.29l-2.03,1.17C328.9,178.91,328.67,178.92,328.54,178.84z"/>
							<path class="st8" d="M335.57,182.89l-2.1-1.21c-0.13-0.07-0.11-0.2,0.04-0.29l2.03-1.17c0.15-0.09,0.37-0.1,0.5-0.02
								l2.1,1.21c0.13,0.07,0.11,0.2-0.04,0.29l-2.03,1.17C335.93,182.95,335.7,182.96,335.57,182.89z"/>
						</g>
						<path class="st7" d="M297.77,169.81l0.04,0.02c0.07-0.05,0.14-0.1,0.22-0.15l14.69-8.48c1.08-0.62,2.71-0.69,3.64-0.15
							l36.27,21.03c0.86-0.62,0.91-1.45,0.04-1.95l-36.31-21.05c-0.93-0.54-2.56-0.47-3.64,0.15l-14.69,8.48
							C296.96,168.33,296.84,169.28,297.77,169.81z"/>
					</g>
				</g>
				<g>
					<path class="st6" d="M346.45,226.99l20.65-11.82c1.16-0.67,2.1-2.47,2.1-4.02v-7.38c0-1.55-0.94-2.26-2.1-1.59l-20.65,11.82
						c-1.16,0.67-2.1,2.47-2.1,4.02v7.38C344.35,226.95,345.29,227.66,346.45,226.99z"/>
					<path class="st8" d="M368.12,201.95c0.32,0.31,0.53,0.83,0.53,1.54v7.38c0,1.55-0.94,3.35-2.1,4.02l-20.65,11.82
						c-0.37,0.22-0.72,0.27-1.02,0.22c0.39,0.36,0.94,0.42,1.58,0.05l20.65-11.82c1.16-0.67,2.1-2.47,2.1-4.02v-7.38
						C369.2,202.71,368.77,202.06,368.12,201.95z"/>
					<g>
						<path class="st8" d="M352.66,218.97l1.89-1.09c0.25-0.15,0.46-0.54,0.46-0.88v-2.02c0-0.34-0.21-0.49-0.46-0.35l-1.89,1.09
							c-0.25,0.15-0.46,0.54-0.46,0.88v2.02C352.21,218.96,352.41,219.11,352.66,218.97z"/>
						<path class="st8" d="M359,215.31l1.89-1.09c0.25-0.15,0.46-0.54,0.46-0.88v-2.02c0-0.34-0.21-0.49-0.46-0.35l-1.89,1.09
							c-0.25,0.15-0.46,0.54-0.46,0.88v2.02C358.54,215.3,358.74,215.46,359,215.31z"/>
					</g>
				</g>
				<g>
					<path class="st6" d="M346.45,280.34l20.65-11.82c1.16-0.67,2.1-2.47,2.1-4.02v-7.38c0-1.55-0.94-2.26-2.1-1.59l-20.65,11.82
						c-1.16,0.67-2.1,2.47-2.1,4.02v7.38C344.35,280.3,345.29,281.01,346.45,280.34z"/>
					<path class="st8" d="M368.12,255.3c0.32,0.31,0.53,0.83,0.53,1.54v7.38c0,1.55-0.94,3.35-2.1,4.02l-20.65,11.82
						c-0.37,0.22-0.72,0.27-1.02,0.22c0.39,0.36,0.94,0.42,1.58,0.05l20.65-11.82c1.16-0.67,2.1-2.47,2.1-4.02v-7.38
						C369.2,256.06,368.77,255.41,368.12,255.3z"/>
					<g>
						<path class="st8" d="M352.66,272.32l1.89-1.09c0.25-0.15,0.46-0.54,0.46-0.88v-2.02c0-0.34-0.21-0.49-0.46-0.35l-1.89,1.09
							c-0.25,0.15-0.46,0.54-0.46,0.88v2.02C352.21,272.31,352.41,272.47,352.66,272.32z"/>
						<path class="st8" d="M359,268.66l1.89-1.09c0.25-0.15,0.46-0.54,0.46-0.88v-2.02c0-0.34-0.21-0.49-0.46-0.35l-1.89,1.09
							c-0.25,0.15-0.46,0.54-0.46,0.88v2.02C358.54,268.66,358.74,268.81,359,268.66z"/>
					</g>
				</g>
				<g>
					<path class="st6" d="M346.45,307.02l20.65-11.82c1.16-0.67,2.1-2.47,2.1-4.02v-7.38c0-1.55-0.94-2.26-2.1-1.59l-20.65,11.82
						c-1.16,0.67-2.1,2.47-2.1,4.02v7.38C344.35,306.98,345.29,307.69,346.45,307.02z"/>
					<path class="st8" d="M368.12,281.98c0.32,0.31,0.53,0.83,0.53,1.54v7.38c0,1.55-0.94,3.35-2.1,4.02l-20.65,11.82
						c-0.37,0.22-0.72,0.27-1.02,0.22c0.39,0.36,0.94,0.42,1.58,0.05l20.65-11.82c1.16-0.67,2.1-2.47,2.1-4.02v-7.38
						C369.2,282.74,368.77,282.09,368.12,281.98z"/>
					<g>
						<path class="st8" d="M352.66,299l1.89-1.09c0.25-0.15,0.46-0.54,0.46-0.88v-2.02c0-0.34-0.21-0.49-0.46-0.35l-1.89,1.09
							c-0.25,0.15-0.46,0.54-0.46,0.88v2.02C352.21,298.99,352.41,299.14,352.66,299z"/>
						<path class="st8" d="M359,295.34l1.89-1.09c0.25-0.15,0.46-0.54,0.46-0.88v-2.02c0-0.34-0.21-0.49-0.46-0.35L359,292.1
							c-0.25,0.15-0.46,0.54-0.46,0.88v2.02C358.54,295.33,358.74,295.49,359,295.34z"/>
					</g>
				</g>
				<g>
					<path class="st6" d="M346.45,253.66l20.65-11.82c1.16-0.67,2.1-2.47,2.1-4.02v-7.38c0-1.55-0.94-2.26-2.1-1.59l-20.65,11.82
						c-1.16,0.67-2.1,2.47-2.1,4.02v7.38C344.35,253.62,345.29,254.33,346.45,253.66z"/>
					<path class="st8" d="M368.12,228.63c0.32,0.31,0.53,0.83,0.53,1.54v7.38c0,1.55-0.94,3.35-2.1,4.02l-20.65,11.82
						c-0.37,0.22-0.72,0.27-1.02,0.22c0.39,0.36,0.94,0.42,1.58,0.05l20.65-11.82c1.16-0.67,2.1-2.47,2.1-4.02v-7.38
						C369.2,229.39,368.77,228.74,368.12,228.63z"/>
					<g>
						<path class="st8" d="M352.66,245.64l1.89-1.09c0.25-0.15,0.46-0.54,0.46-0.88v-2.02c0-0.34-0.21-0.49-0.46-0.35l-1.89,1.09
							c-0.25,0.15-0.46,0.54-0.46,0.88v2.02C352.21,245.63,352.41,245.79,352.66,245.64z"/>
						<path class="st8" d="M359,241.99l1.89-1.09c0.25-0.15,0.46-0.54,0.46-0.88v-2.02c0-0.34-0.21-0.49-0.46-0.35l-1.89,1.09
							c-0.25,0.15-0.46,0.54-0.46,0.88v2.02C358.54,241.98,358.74,242.13,359,241.99z"/>
					</g>
				</g>
			</g>
			<g>
				<path class="st9" d="M328.57,219.43l-47.63-27.5c-1.07-0.62-1.93-2.27-1.93-3.69v-9.08c0-1.42,0.86-2.08,1.93-1.46l47.63,27.5
					c1.07,0.62,1.93,2.27,1.93,3.69v9.08C330.5,219.39,329.64,220.04,328.57,219.43z"/>
				<path class="st8" d="M327.2,216.24l-44.9-25.92c-0.54-0.31-0.98-1.15-0.98-1.87v-6.83c0-0.72,0.44-1.05,0.98-0.74l44.9,25.92
					c0.54,0.31,0.98,1.15,0.98,1.87v6.83C328.18,216.22,327.74,216.56,327.2,216.24z"/>
				<path class="st8" d="M291.66,192.27l-6.7-3.87c-0.53-0.3-0.95-1.12-0.95-1.82l0,0c0-0.7,0.43-1.02,0.95-0.72l6.7,3.87
					c0.53,0.3,0.95,1.12,0.95,1.82l0,0C292.61,192.25,292.19,192.57,291.66,192.27z"/>
				<path class="st6" d="M297.37,194.3c0,0.7-0.49,0.98-1.1,0.63c-0.61-0.35-1.1-1.2-1.1-1.9c0-0.7,0.49-0.98,1.1-0.63
					C296.88,192.75,297.37,193.6,297.37,194.3z"/>
				<path class="st6" d="M301.25,196.54c0,0.7-0.49,0.98-1.1,0.63c-0.61-0.35-1.1-1.2-1.1-1.9c0-0.7,0.49-0.98,1.1-0.63
					C300.75,194.98,301.25,195.84,301.25,196.54z"/>
				<path class="st8" d="M305.12,198.77c0,0.7-0.49,0.98-1.1,0.63c-0.61-0.35-1.1-1.2-1.1-1.9c0-0.7,0.49-0.98,1.1-0.63
					C304.63,197.22,305.12,198.07,305.12,198.77z"/>
				<path class="st6" d="M308.99,201.01c0,0.7-0.49,0.98-1.1,0.63c-0.61-0.35-1.1-1.2-1.1-1.9c0-0.7,0.49-0.98,1.1-0.63
					C308.5,199.46,308.99,200.31,308.99,201.01z"/>
				<path class="st6" d="M325.31,212.44l-2.26-1.3c-0.34-0.19-0.61-0.72-0.61-1.17v-2.39c0-0.45,0.27-0.66,0.61-0.46l2.26,1.3
					c0.34,0.19,0.61,0.72,0.61,1.17v2.39C325.93,212.43,325.65,212.64,325.31,212.44z"/>
			</g>
			<g>
				<path class="st9" d="M328.57,235.45l-47.63-27.5c-1.07-0.62-1.93-2.27-1.93-3.69v-9.08c0-1.42,0.86-2.08,1.93-1.46l47.63,27.5
					c1.07,0.62,1.93,2.27,1.93,3.69v9.08C330.5,235.41,329.64,236.06,328.57,235.45z"/>
				<path class="st8" d="M327.2,232.26l-44.9-25.92c-0.54-0.31-0.98-1.15-0.98-1.87v-6.83c0-0.72,0.44-1.05,0.98-0.74l44.9,25.92
					c0.54,0.31,0.98,1.15,0.98,1.87v6.83C328.18,232.24,327.74,232.57,327.2,232.26z"/>
				<path class="st8" d="M291.66,208.29l-6.7-3.87c-0.53-0.3-0.95-1.12-0.95-1.82l0,0c0-0.7,0.43-1.02,0.95-0.72l6.7,3.87
					c0.53,0.3,0.95,1.12,0.95,1.82l0,0C292.61,208.27,292.19,208.59,291.66,208.29z"/>
				<path class="st8" d="M297.37,210.32c0,0.7-0.49,0.98-1.1,0.63c-0.61-0.35-1.1-1.2-1.1-1.9c0-0.7,0.49-0.98,1.1-0.63
					C296.88,208.76,297.37,209.62,297.37,210.32z"/>
				<path class="st6" d="M301.25,212.55c0,0.7-0.49,0.98-1.1,0.63c-0.61-0.35-1.1-1.2-1.1-1.9c0-0.7,0.49-0.98,1.1-0.63
					C300.75,211,301.25,211.85,301.25,212.55z"/>
				<path class="st8" d="M305.12,214.79c0,0.7-0.49,0.98-1.1,0.63c-0.61-0.35-1.1-1.2-1.1-1.9c0-0.7,0.49-0.98,1.1-0.63
					C304.63,213.24,305.12,214.09,305.12,214.79z"/>
				<path class="st6" d="M308.99,217.03c0,0.7-0.49,0.98-1.1,0.63c-0.61-0.35-1.1-1.2-1.1-1.9c0-0.7,0.49-0.98,1.1-0.63
					C308.5,215.48,308.99,216.33,308.99,217.03z"/>
				<path class="st6" d="M325.31,228.46l-2.26-1.3c-0.34-0.19-0.61-0.72-0.61-1.17v-2.39c0-0.45,0.27-0.66,0.61-0.46l2.26,1.3
					c0.34,0.19,0.61,0.72,0.61,1.17V228C325.93,228.45,325.65,228.65,325.31,228.46z"/>
			</g>
			<g>
				<path class="st9" d="M328.57,251.46l-47.63-27.5c-1.07-0.62-1.93-2.27-1.93-3.69v-9.08c0-1.42,0.86-2.07,1.93-1.46l47.63,27.5
					c1.07,0.62,1.93,2.27,1.93,3.69V250C330.5,251.42,329.64,252.08,328.57,251.46z"/>
				<path class="st8" d="M327.2,248.28l-44.9-25.92c-0.54-0.31-0.98-1.15-0.98-1.87v-6.83c0-0.72,0.44-1.05,0.98-0.74l44.9,25.92
					c0.54,0.31,0.98,1.15,0.98,1.87v6.83C328.18,248.26,327.74,248.59,327.2,248.28z"/>
				<path class="st8" d="M291.66,224.31l-6.7-3.87c-0.53-0.3-0.95-1.12-0.95-1.82l0,0c0-0.7,0.43-1.02,0.95-0.72l6.7,3.87
					c0.53,0.3,0.95,1.12,0.95,1.82l0,0C292.61,224.29,292.19,224.61,291.66,224.31z"/>
				<ellipse transform="matrix(0.866 -0.5 0.5 0.866 -73.157 178.3761)" class="st8" cx="296.27" cy="225.7" rx="0.9" ry="1.55"/>
				<ellipse transform="matrix(0.866 -0.5 0.5 0.866 -73.7564 180.6129)" class="st6" cx="300.15" cy="227.94" rx="0.9" ry="1.55"/>
				<path class="st8" d="M305.12,230.81c0,0.7-0.49,0.98-1.1,0.63c-0.61-0.35-1.1-1.2-1.1-1.9s0.49-0.98,1.1-0.63
					C304.63,229.26,305.12,230.11,305.12,230.81z"/>
				<path class="st6" d="M308.99,233.04c0,0.7-0.49,0.98-1.1,0.63c-0.61-0.35-1.1-1.2-1.1-1.9c0-0.7,0.49-0.98,1.1-0.63
					C308.5,231.49,308.99,232.34,308.99,233.04z"/>
				<path class="st6" d="M325.31,244.48l-2.26-1.3c-0.34-0.19-0.61-0.72-0.61-1.17v-2.39c0-0.45,0.27-0.66,0.61-0.46l2.26,1.3
					c0.34,0.19,0.61,0.72,0.61,1.17v2.39C325.93,244.46,325.65,244.67,325.31,244.48z"/>
			</g>
			<g>
				<path class="st9" d="M328.57,267.48l-47.63-27.5c-1.07-0.62-1.93-2.27-1.93-3.69v-9.08c0-1.42,0.86-2.08,1.93-1.46l47.63,27.5
					c1.07,0.62,1.93,2.27,1.93,3.69v9.08C330.5,267.44,329.64,268.1,328.57,267.48z"/>
				<path class="st8" d="M327.2,264.29l-44.9-25.92c-0.54-0.31-0.98-1.15-0.98-1.87v-6.83c0-0.72,0.44-1.05,0.98-0.74l44.9,25.92
					c0.54,0.31,0.98,1.15,0.98,1.87v6.83C328.18,264.28,327.74,264.61,327.2,264.29z"/>
				<path class="st8" d="M291.66,240.32l-6.7-3.87c-0.53-0.3-0.95-1.12-0.95-1.82l0,0c0-0.7,0.43-1.02,0.95-0.72l6.7,3.87
					c0.53,0.3,0.95,1.12,0.95,1.82l0,0C292.61,240.3,292.19,240.63,291.66,240.32z"/>
				<path class="st6" d="M297.37,242.35c0,0.7-0.49,0.98-1.1,0.63c-0.61-0.35-1.1-1.2-1.1-1.9c0-0.7,0.49-0.98,1.1-0.63
					C296.88,240.8,297.37,241.65,297.37,242.35z"/>
				<path class="st6" d="M301.25,244.59c0,0.7-0.49,0.98-1.1,0.63c-0.61-0.35-1.1-1.2-1.1-1.9c0-0.7,0.49-0.98,1.1-0.63
					C300.75,243.04,301.25,243.89,301.25,244.59z"/>
				<path class="st8" d="M305.12,246.82c0,0.7-0.49,0.98-1.1,0.63c-0.61-0.35-1.1-1.2-1.1-1.9c0-0.7,0.49-0.98,1.1-0.63
					C304.63,245.27,305.12,246.12,305.12,246.82z"/>
				<path class="st6" d="M308.99,249.06c0,0.7-0.49,0.98-1.1,0.63c-0.61-0.35-1.1-1.2-1.1-1.9c0-0.7,0.49-0.98,1.1-0.63
					C308.5,247.51,308.99,248.36,308.99,249.06z"/>
				<path class="st8" d="M325.31,260.49l-2.26-1.3c-0.34-0.19-0.61-0.72-0.61-1.17v-2.39c0-0.45,0.27-0.66,0.61-0.46l2.26,1.3
					c0.34,0.19,0.61,0.72,0.61,1.17v2.39C325.93,260.48,325.65,260.69,325.31,260.49z"/>
			</g>
			<g>
				<path class="st9" d="M328.57,283.5l-47.63-27.5c-1.07-0.62-1.93-2.27-1.93-3.69v-9.08c0-1.42,0.86-2.07,1.93-1.46l47.63,27.5
					c1.07,0.62,1.93,2.27,1.93,3.69v9.08C330.5,283.46,329.64,284.11,328.57,283.5z"/>
				<path class="st8" d="M327.2,280.31l-44.9-25.92c-0.54-0.31-0.98-1.15-0.98-1.87v-6.83c0-0.72,0.44-1.05,0.98-0.74l44.9,25.92
					c0.54,0.31,0.98,1.15,0.98,1.87v6.83C328.18,280.29,327.74,280.62,327.2,280.31z"/>
				<path class="st8" d="M291.66,256.34l-6.7-3.87c-0.53-0.3-0.95-1.12-0.95-1.82l0,0c0-0.7,0.43-1.02,0.95-0.72l6.7,3.87
					c0.53,0.3,0.95,1.12,0.95,1.82l0,0C292.61,256.32,292.19,256.64,291.66,256.34z"/>
				<ellipse transform="matrix(0.866 -0.5 0.5 0.866 -89.1742 182.6675)" class="st6" cx="296.27" cy="257.73" rx="0.9" ry="1.55"/>
				<ellipse transform="matrix(0.866 -0.5 0.5 0.866 -89.7736 184.9044)" class="st8" cx="300.15" cy="259.97" rx="0.9" ry="1.55"/>
				<ellipse transform="matrix(0.866 -0.5 0.5 0.866 -90.3729 187.1413)" class="st8" cx="304.02" cy="262.21" rx="0.9" ry="1.55"/>
				<path class="st8" d="M308.99,265.08c0,0.7-0.49,0.98-1.1,0.63c-0.61-0.35-1.1-1.2-1.1-1.9c0-0.7,0.49-0.98,1.1-0.63
					C308.5,263.53,308.99,264.38,308.99,265.08z"/>
				<path class="st8" d="M325.31,276.51l-2.26-1.3c-0.34-0.19-0.61-0.72-0.61-1.17v-2.39c0-0.45,0.27-0.66,0.61-0.46l2.26,1.3
					c0.34,0.19,0.61,0.72,0.61,1.17v2.39C325.93,276.5,325.65,276.7,325.31,276.51z"/>
			</g>
			<g>
				<path class="st9" d="M328.57,299.51l-47.63-27.5c-1.07-0.62-1.93-2.27-1.93-3.69v-9.08c0-1.42,0.86-2.08,1.93-1.46l47.63,27.5
					c1.07,0.62,1.93,2.27,1.93,3.69v9.08C330.5,299.48,329.64,300.13,328.57,299.51z"/>
				<path class="st8" d="M327.2,296.33l-44.9-25.92c-0.54-0.31-0.98-1.15-0.98-1.87v-6.83c0-0.72,0.44-1.05,0.98-0.74l44.9,25.92
					c0.54,0.31,0.98,1.15,0.98,1.87v6.83C328.18,296.31,327.74,296.64,327.2,296.33z"/>
				<path class="st8" d="M291.66,272.36l-6.7-3.87c-0.53-0.3-0.95-1.12-0.95-1.82l0,0c0-0.7,0.43-1.02,0.95-0.72l6.7,3.87
					c0.53,0.3,0.95,1.12,0.95,1.82l0,0C292.61,272.34,292.19,272.66,291.66,272.36z"/>
				<path class="st6" d="M297.37,274.39c0,0.7-0.49,0.98-1.1,0.63c-0.61-0.35-1.1-1.2-1.1-1.9c0-0.7,0.49-0.98,1.1-0.63
					C296.88,272.83,297.37,273.68,297.37,274.39z"/>
				<path class="st6" d="M301.25,276.62c0,0.7-0.49,0.98-1.1,0.63c-0.61-0.35-1.1-1.2-1.1-1.9c0-0.7,0.49-0.98,1.1-0.63
					C300.75,275.07,301.25,275.92,301.25,276.62z"/>
				<path class="st8" d="M305.12,278.86c0,0.7-0.49,0.98-1.1,0.63c-0.61-0.35-1.1-1.2-1.1-1.9c0-0.7,0.49-0.98,1.1-0.63
					C304.63,277.31,305.12,278.16,305.12,278.86z"/>
				<path class="st6" d="M308.99,281.1c0,0.7-0.49,0.98-1.1,0.63c-0.61-0.35-1.1-1.2-1.1-1.9c0-0.7,0.49-0.98,1.1-0.63
					C308.5,279.54,308.99,280.4,308.99,281.1z"/>
				<path class="st6" d="M325.31,292.53l-2.26-1.3c-0.34-0.19-0.61-0.72-0.61-1.17v-2.39c0-0.45,0.27-0.66,0.61-0.46l2.26,1.3
					c0.34,0.19,0.61,0.72,0.61,1.17v2.39C325.93,292.51,325.65,292.72,325.31,292.53z"/>
			</g>
			<g>
				<path class="st9" d="M328.57,315.53l-47.63-27.5c-1.07-0.62-1.93-2.27-1.93-3.69v-9.08c0-1.42,0.86-2.07,1.93-1.46l47.63,27.5
					c1.07,0.62,1.93,2.27,1.93,3.69v9.08C330.5,315.49,329.64,316.15,328.57,315.53z"/>
				<path class="st8" d="M327.2,312.35l-44.9-25.92c-0.54-0.31-0.98-1.15-0.98-1.87v-6.83c0-0.72,0.44-1.05,0.98-0.74l44.9,25.92
					c0.54,0.31,0.98,1.15,0.98,1.87v6.83C328.18,312.33,327.74,312.66,327.2,312.35z"/>
				<path class="st8" d="M291.66,288.37l-6.7-3.87c-0.53-0.3-0.95-1.12-0.95-1.82l0,0c0-0.7,0.43-1.02,0.95-0.72l6.7,3.87
					c0.53,0.3,0.95,1.12,0.95,1.82l0,0C292.61,288.36,292.19,288.68,291.66,288.37z"/>
				<path class="st6" d="M298.6,291.27c0,1.32-0.93,1.86-2.07,1.2c-1.15-0.66-2.07-2.27-2.07-3.59c0-1.32,0.93-1.86,2.07-1.2
					C297.67,288.34,298.6,289.95,298.6,291.27z"/>
				<path class="st6" d="M306.62,295.96c0,0.7-0.49,0.98-1.1,0.63c-0.61-0.35-1.1-1.2-1.1-1.9c0-0.7,0.49-0.98,1.1-0.63
					C306.13,294.41,306.62,295.26,306.62,295.96z"/>
				<path class="st8" d="M310.49,298.2c0,0.7-0.49,0.98-1.1,0.63c-0.61-0.35-1.1-1.2-1.1-1.9c0-0.7,0.49-0.98,1.1-0.63
					C310,296.65,310.49,297.5,310.49,298.2z"/>
				<ellipse transform="matrix(0.866 -0.5 0.5 0.866 -107.9323 196.803)" class="st6" cx="313.27" cy="299.8" rx="0.9" ry="1.55"/>
				<path class="st8" d="M325.31,308.54l-2.26-1.3c-0.34-0.19-0.61-0.72-0.61-1.17v-2.39c0-0.45,0.27-0.66,0.61-0.46l2.26,1.3
					c0.34,0.19,0.61,0.72,0.61,1.17v2.39C325.93,308.53,325.65,308.74,325.31,308.54z"/>
			</g>
		</g>
		<g>
			<g>
				<path class="st9" d="M292.23,134.98c-0.55,0-1-0.45-1-1V92.92c0-0.55,0.45-1,1-1c0.55,0,1,0.45,1,1v41.06
					C293.23,134.54,292.78,134.98,292.23,134.98z"/>
				<g>
					<g>
						<rect x="288.66" y="90.34" class="st9" width="7.13" height="15.39"/>
						<path class="st9" d="M294.75,107.19c-1.39,0.8-3.65,0.8-5.04,0c-1.39-0.8-1.39-2.11,0-2.91c1.39-0.8,3.65-0.8,5.04,0
							C296.14,105.08,296.14,106.39,294.75,107.19z"/>
					</g>
					<g>
						<rect x="286.45" y="68.89" class="st9" width="11.56" height="24.14"/>
						<path class="st7" d="M288.66,92.87v5.21c2.09,0.96,5.04,0.96,7.13,0v-5.21C293.7,91.92,290.75,91.92,288.66,92.87z"/>
						<path class="st9" d="M296.31,95.39c-2.26,1.3-5.92,1.3-8.17,0c-2.26-1.3-2.26-3.42,0-4.72c2.26-1.3,5.92-1.3,8.17,0
							C298.57,91.97,298.57,94.09,296.31,95.39z"/>
					</g>
				</g>
			</g>
			<g>
				<path class="st9" d="M332.27,157.51c-0.55,0-1-0.45-1-1v-41.06c0-0.55,0.45-1,1-1s1,0.45,1,1v41.06
					C333.27,157.07,332.82,157.51,332.27,157.51z"/>
				<g>
					<g>
						<rect x="328.7" y="112.87" class="st9" width="7.13" height="15.39"/>
						<path class="st9" d="M334.79,129.72c-1.39,0.8-3.65,0.8-5.04,0c-1.39-0.8-1.39-2.11,0-2.91c1.39-0.8,3.65-0.8,5.04,0
							C336.19,127.61,336.19,128.92,334.79,129.72z"/>
					</g>
					<g>
						<rect x="326.49" y="91.42" class="st9" width="11.56" height="24.14"/>
						<path class="st7" d="M328.7,115.4v5.21c2.09,0.96,5.04,0.96,7.13,0v-5.21C333.74,114.45,330.8,114.45,328.7,115.4z"/>
						<path class="st9" d="M336.36,117.92c-2.26,1.3-5.92,1.3-8.17,0c-2.26-1.3-2.26-3.42,0-4.72c2.26-1.3,5.92-1.3,8.17,0
							C338.61,114.51,338.61,116.62,336.36,117.92z"/>
					</g>
				</g>
			</g>
			<g>
				<polygon class="st7" points="371.19,131.48 386.69,122.35 371.93,103.93 368.05,110.27 				"/>
				<path class="st7" d="M258.65,30.37l24.74-14.23c0,0-0.93,14.2-0.93,14.23c0,0.03-14.21,4.4-14.21,4.4L258.65,30.37z"/>
				<path class="st7" d="M375.5,85.15c-1.88-1.09-3.68-1.72-5.35-1.98c-2.49-13.11-11.61-27.03-22.49-33.31
					c-3.27-1.89-6.38-2.9-9.2-3.11c-1.48-15.89-12.53-33.94-25.95-41.69c-7.01-4.05-13.36-4.52-18.06-2.05l0-0.01l-0.23,0.13
					c-0.12,0.07-0.24,0.13-0.36,0.21l-14.59,8.61l4.85,3.83c-4.35,1.9-7.1,6.78-7.1,13.99c0,13.3,9.34,29.48,20.86,36.13
					l77.61,55.42c8.65,4.99,15.66,0.95,15.66-9.04C391.16,102.29,384.15,90.15,375.5,85.15z"/>
				<path class="st7" d="M277.75,23.92l33.48-19.56c-6.5-3.39-12.37-3.67-16.78-1.34l0-0.01l-0.23,0.13
					c-0.12,0.07-0.24,0.13-0.36,0.21l-14.59,8.61l4.85,3.83C281.09,17.11,278.84,19.9,277.75,23.92z"/>
				<path class="st7" d="M339.58,81.46l24.43-14.33c-4.19-7.25-9.96-13.58-16.35-17.26c-0.85-0.49-1.68-0.91-2.5-1.29l-31.07,18.17
					L339.58,81.46z"/>
				<path class="st8" d="M360.19,94.17c-1.88-1.09-3.68-1.72-5.35-1.98c-2.49-13.11-11.61-27.03-22.49-33.31
					c-3.27-1.89-6.38-2.9-9.2-3.11c-1.48-15.89-12.53-33.94-25.95-41.69c-14.43-8.33-26.12-1.58-26.12,15.08
					c0,0.57,0.02,1.13,0.04,1.71c-10.55-4.89-18.79,0.62-18.79,13.12c0,13.3,9.34,29.48,20.86,36.13l87,50.23
					c8.65,4.99,15.66,0.95,15.66-9.04C375.85,111.31,368.84,99.17,360.19,94.17z"/>
				<g>
					<path class="st8" d="M271.12,30.87c-0.03-0.57-0.04-1.14-0.04-1.71c0-0.02,0-0.05,0-0.07c-5.83-2.27-10.84-1.28-13.98,2.36
						C260.51,28.64,265.48,28.25,271.12,30.87z"/>
					<path class="st8" d="M361.46,92.93c-1.88-1.09-3.68-1.72-5.35-1.98c-2.49-13.11-11.61-27.03-22.49-33.31
						c-3.27-1.89-6.38-2.9-9.2-3.11c-1.48-15.89-12.53-33.94-25.95-41.69c-8.99-5.19-16.91-4.52-21.61,0.74
						c4.79-4.09,12.12-4.25,20.34,0.5c13.41,7.74,24.46,25.8,25.95,41.69c2.82,0.22,5.93,1.23,9.2,3.11
						c10.88,6.28,20,20.2,22.49,33.31c1.67,0.26,3.47,0.9,5.35,1.98c8.65,4.99,15.66,17.14,15.66,27.13c0,3.6-0.92,6.42-2.5,8.33
						c2.35-1.81,3.77-5.08,3.77-9.57C377.12,110.07,370.11,97.93,361.46,92.93z"/>
				</g>
				<g>
					<path class="st10" d="M269.28,34.84l6.54,3.03l-0.33-7.2c-0.02-0.51-0.04-1.01-0.04-1.51c0-6.43,1.94-11.09,5.46-13.12
						c3.52-2.03,8.53-1.38,14.1,1.83c11.97,6.91,22.42,23.74,23.78,38.31l0.34,3.67l3.68,0.28c2.26,0.17,4.73,1.03,7.35,2.54
						c9.51,5.49,18.08,18.25,20.38,30.34l0.58,3.03l3.04,0.48c1.21,0.19,2.51,0.68,3.84,1.45c7.3,4.22,13.48,14.91,13.48,23.34
						c0,3.16-0.88,5.47-2.4,6.35c-1.52,0.88-3.97,0.48-6.7-1.1l-87-50.23c-10.12-5.84-18.67-20.65-18.67-32.34
						c0-4.59,1.35-8.08,3.71-9.59c0.97-0.62,2.14-0.93,3.47-0.93C265.49,33.47,267.32,33.93,269.28,34.84z"/>
				</g>
			</g>
			<path class="st8" d="M291.13,103.07c0,0.71-0.5,0.99-1.11,0.64c-0.61-0.35-1.11-1.21-1.11-1.92c0-0.71,0.5-0.99,1.11-0.64
				C290.64,101.5,291.13,102.36,291.13,103.07z"/>
			<path class="st8" d="M331.27,125.93c0,0.71-0.5,1-1.11,0.64c-0.61-0.35-1.11-1.21-1.11-1.92c0-0.71,0.5-1,1.11-0.64
				C330.77,124.36,331.27,125.22,331.27,125.93z"/>
		</g>
		<g>
			<path class="st9" d="M248.45,303.55c-0.24,0-0.47-0.12-0.6-0.35c-0.19-0.33-0.08-0.76,0.25-0.95l9.39-5.43
				c1.07-0.62,1.73-1.76,1.73-3v-4.97c0-0.38,0.31-0.69,0.69-0.69s0.69,0.31,0.69,0.69v4.97c0,1.72-0.93,3.33-2.42,4.19l-9.39,5.43
				C248.69,303.52,248.57,303.55,248.45,303.55z"/>
			<g>
				<g>
					<g>
						<g>
							
								<rect x="241.2" y="299.18" transform="matrix(0.4974 0.8675 -0.8675 0.4974 387.5486 -58.2626)" class="st9" width="5.72" height="12.34"/>
							<path class="st9" d="M251.43,303.46c0-1.29-0.9-2.86-2.01-3.51s-2.02-0.13-2.03,1.16c0,1.29,0.9,2.86,2.01,3.51
								C250.52,305.27,251.43,304.75,251.43,303.46z"/>
						</g>
						<g>
							
								<rect x="227.55" y="302.49" transform="matrix(0.4974 0.8675 -0.8675 0.4974 387.4873 -44.5337)" class="st9" width="9.27" height="19.36"/>
							<path class="st7" d="M239.04,304.93l3.62-2.08c1.5,1.07,2.68,3.12,2.85,4.96l-3.62,2.08
								C240.39,308.82,239.21,306.77,239.04,304.93z"/>
							<path class="st9" d="M243.85,309.25c0.01-2.09-1.45-4.64-3.26-5.69c-1.81-1.05-3.28-0.21-3.28,1.88
								c-0.01,2.09,1.45,4.64,3.26,5.69C242.37,312.18,243.84,311.34,243.85,309.25z"/>
						</g>
					</g>
				</g>
				<path class="st13" d="M248.05,302.13c0.52-0.3,0.53-0.79,0-1.1c-0.52-0.3-1.37-0.31-1.9-0.01c-0.52,0.3-0.53,0.79,0,1.1
					C246.68,302.43,247.53,302.43,248.05,302.13z"/>
			</g>
			<path class="st9" d="M280.47,300.53c-0.91,0-1.81-0.23-2.62-0.7l-36.42-21.09c-1.13-0.66-1.82-1.83-1.83-3.14
				c-0.01-1.31,0.65-2.5,1.77-3.18l10.08-6.1c0.33-0.2,0.75-0.09,0.95,0.23c0.2,0.33,0.09,0.75-0.23,0.95l-10.08,6.1
				c-0.7,0.42-1.11,1.16-1.1,1.98c0.01,0.82,0.43,1.55,1.14,1.96l36.42,21.09c1.22,0.71,2.74,0.69,3.94-0.05l12.54-7.66
				c0.33-0.2,0.75-0.1,0.95,0.23c0.2,0.33,0.1,0.75-0.23,0.95l-12.54,7.66C282.36,300.27,281.42,300.53,280.47,300.53z"/>
		</g>
		<g>
			<path class="st14" d="M13.27,227.86l115.03-66.41c1.34-0.77,2.69-0.89,3.9-0.48l-0.01-0.01l0.21,0.08
				c0.02,0.01,0.03,0.01,0.05,0.02l4.16,1.59l-3.73,1.83c0.02,0.07,0.04,0.13,0.05,0.2l18.74,85.29c0.94,4.27-0.94,9.25-4.19,11.13
				L35.21,325.91l0.4,4.76l-4.54-1.76c-1.53-0.71-2.75-2.33-3.25-4.63L9.08,238.99C8.14,234.72,10.02,229.74,13.27,227.86z"/>
			<path class="st15" d="M13.27,227.86l115.03-66.41c1.34-0.77,2.69-0.89,3.9-0.48l-0.01-0.01l0.21,0.08
				c0.02,0.01,0.03,0.01,0.05,0.02l4.16,1.59l-3.73,1.83c0.02,0.07,0.04,0.13,0.05,0.2l12.35,56.21L89,264.73L9.64,232.44
				C10.4,230.46,11.67,228.78,13.27,227.86z"/>
			<path class="st16" d="M17.61,240.97l-8.76-3.73c-0.16-3.39,1.24-6.89,3.55-8.77l13.86,5.83L17.61,240.97z"/>
			<path class="st8" d="M39.61,330.21l115.03-66.41c3.25-1.88,5.13-6.86,4.19-11.13l-18.74-85.29c-0.94-4.27-4.34-6.21-7.59-4.33
				L17.48,229.47c-3.25,1.88-5.13,6.86-4.19,11.13l18.74,85.29C32.96,330.16,36.35,332.09,39.61,330.21z"/>
			<path class="st8" d="M16.37,229.06l115.03-66.41c1.58-0.91,3.18-0.91,4.53-0.2c-1.08-0.24-2.26-0.07-3.42,0.6L17.48,229.47
				c-3.25,1.88-5.13,6.86-4.19,11.13l18.74,85.29c0.48,2.2,1.63,3.77,3.06,4.52c-1.94-0.42-3.56-2.19-4.17-4.93l-18.74-85.29
				C11.24,235.93,13.12,230.94,16.37,229.06z"/>
			<path class="st8" d="M42.1,323.87l108.19-62.43c2.98-1.72,4.7-6.28,3.84-10.19l-17.15-78.05c-0.86-3.91-3.97-5.68-6.95-3.96
				L21.85,231.68c-2.98,1.72-4.7,6.28-3.84,10.19l17.15,78.05C36.01,323.82,39.12,325.59,42.1,323.87z"/>
			<path class="st10" d="M42.1,323.87l108.19-62.43c2.98-1.72,4.7-6.28,3.84-10.19l-17.15-78.05c-0.86-3.91-3.97-5.68-6.95-3.96
				L21.85,231.68c-2.98,1.72-4.7,6.28-3.84,10.19l17.15,78.05C36.01,323.82,39.12,325.59,42.1,323.87z"/>
			<path class="st7" d="M41.16,323.49l108.19-62.43c2.98-1.72,4.7-6.28,3.84-10.18l-17.15-78.05c-0.43-1.98-1.45-3.4-2.73-4.11
				c1.71,0.44,3.13,2.05,3.67,4.49l17.15,78.05c0.86,3.91-0.86,8.47-3.84,10.19L42.1,323.87c-1.47,0.85-2.97,0.84-4.22,0.15
				C38.91,324.28,40.04,324.13,41.16,323.49z"/>
			<path class="st14" d="M38.02,333.11l15.72-2.08l101.5-58.6c3.25-1.88,8.94-1.64,12.7,0.53l71.92,41.51l9.51-1.26v5.39l-0.01,0
				c0.06,1.25-0.65,2.45-2.18,3.33l-115.03,66.41c-3.25,1.88-8.94,1.64-12.7-0.53l-78.33-45.21c-2.11-1.22-3.17-2.79-3.11-4.27l0,0
				V333.11z"/>
			<path class="st15" d="M114.29,296.08l7.21-4.16h79.28l39.09,22.55l9.51-1.26v5.39l-0.01,0c0.06,1.25-0.65,2.45-2.18,3.33
				l-115.03,66.41c-1.72,0.99-4.12,1.39-6.55,1.23L114.29,296.08z"/>
			<path class="st16" d="M245.16,313.77l4.22-0.56v5.39l-0.01,0c0.06,1.25-0.65,2.45-2.18,3.33l-2.03,1.17V313.77z"/>
			<path class="st16" d="M130.99,388.89c-3.08,1.17-7.49,0.92-10.79-0.67v-12.03h10.79V388.89z"/>
			<path class="st17" d="M132.15,382.96l115.03-66.41c3.25-1.88,2.85-5.16-0.91-7.33l-78.33-45.21c-3.76-2.17-9.44-2.41-12.7-0.53
				L40.21,329.9c-3.25,1.88-2.85,5.16,0.91,7.33l78.33,45.21C123.21,384.61,128.9,384.84,132.15,382.96z"/>
			<path class="st8" d="M41.13,335.26l78.33,45.21c3.76,2.17,9.44,2.4,12.7,0.53l115.03-66.41c1.07-0.62,1.73-1.38,2.02-2.21
				c0.51,1.54-0.14,3.1-2.02,4.18l-115.03,66.41c-3.25,1.88-8.94,1.64-12.7-0.53l-78.33-45.21c-2.53-1.46-3.53-3.42-2.93-5.12
				C38.56,333.23,39.54,334.34,41.13,335.26z"/>
			<g>
				<path class="st7" d="M198.26,294.56l5.2-3.01c0.42-0.24,0.37-0.66-0.12-0.94l-6.14-3.55c-0.48-0.28-1.21-0.31-1.63-0.07l-5.2,3
					c-0.42,0.24-0.37,0.66,0.12,0.94l6.14,3.55C197.11,294.77,197.84,294.8,198.26,294.56z"/>
				<path class="st7" d="M190.22,299.2l5.2-3.01c0.42-0.24,0.37-0.66-0.12-0.94l-6.14-3.55c-0.48-0.28-1.21-0.31-1.63-0.07l-5.2,3
					c-0.42,0.24-0.37,0.66,0.12,0.94l6.14,3.55C189.07,299.41,189.8,299.44,190.22,299.2z"/>
				<path class="st7" d="M182.18,303.84l5.2-3.01c0.42-0.24,0.37-0.66-0.12-0.94l-6.14-3.55c-0.48-0.28-1.21-0.31-1.63-0.07l-5.2,3
					c-0.42,0.24-0.37,0.66,0.12,0.94l6.14,3.55C181.03,304.05,181.76,304.08,182.18,303.84z"/>
				<path class="st7" d="M171.07,300.01l5.2-3c0.42-0.24,0.37-0.66-0.12-0.94l-5.16-2.98c-0.48-0.28-1.21-0.31-1.63-0.07l-5.2,3
					c-0.42,0.24-0.37,0.66,0.12,0.94l5.16,2.98C169.92,300.22,170.65,300.25,171.07,300.01z"/>
				<path class="st7" d="M163.03,304.65l5.2-3c0.42-0.24,0.37-0.66-0.12-0.94l-5.16-2.98c-0.48-0.28-1.21-0.31-1.63-0.07l-5.2,3
					c-0.42,0.24-0.37,0.66,0.12,0.94l5.16,2.98C161.88,304.86,162.61,304.89,163.03,304.65z"/>
				<path class="st7" d="M154.99,309.29l5.2-3c0.42-0.24,0.37-0.66-0.12-0.94l-5.16-2.98c-0.48-0.28-1.21-0.31-1.63-0.07l-5.2,3
					c-0.42,0.24-0.37,0.66,0.12,0.94l5.16,2.98C153.84,309.5,154.57,309.53,154.99,309.29z"/>
				<path class="st7" d="M146.95,313.93l5.2-3.01c0.42-0.24,0.37-0.66-0.12-0.94l-5.16-2.98c-0.48-0.28-1.21-0.31-1.63-0.07l-5.2,3
					c-0.42,0.24-0.37,0.66,0.12,0.94l5.16,2.98C145.81,314.14,146.53,314.17,146.95,313.93z"/>
				<path class="st7" d="M138.92,318.57l5.2-3.01c0.42-0.24,0.37-0.66-0.12-0.94l-5.16-2.98c-0.48-0.28-1.21-0.31-1.63-0.07l-5.2,3
					c-0.42,0.24-0.37,0.66,0.12,0.94l5.16,2.98C137.77,318.78,138.5,318.81,138.92,318.57z"/>
				<path class="st7" d="M130.88,323.21l5.2-3.01c0.42-0.24,0.37-0.66-0.12-0.94l-5.16-2.98c-0.48-0.28-1.21-0.31-1.63-0.07l-5.2,3
					c-0.42,0.24-0.37,0.66,0.12,0.94l5.16,2.98C129.73,323.42,130.46,323.45,130.88,323.21z"/>
				<path class="st7" d="M122.84,327.85l5.2-3.01c0.42-0.24,0.37-0.66-0.12-0.94l-5.16-2.98c-0.48-0.28-1.21-0.31-1.63-0.07
					l-5.2,3.01c-0.42,0.24-0.37,0.66,0.12,0.94l5.16,2.98C121.69,328.07,122.42,328.1,122.84,327.85z"/>
				<path class="st7" d="M114.8,332.49l5.2-3.01c0.42-0.24,0.37-0.66-0.12-0.94l-5.16-2.98c-0.48-0.28-1.21-0.31-1.63-0.07
					l-5.2,3.01c-0.42,0.24-0.37,0.66,0.12,0.94l5.16,2.98C113.65,332.71,114.38,332.74,114.8,332.49z"/>
				<path class="st7" d="M106.76,337.14l5.2-3.01c0.42-0.24,0.37-0.66-0.12-0.94l-5.16-2.98c-0.48-0.28-1.21-0.31-1.63-0.07
					l-5.2,3.01c-0.42,0.24-0.37,0.66,0.12,0.94l5.16,2.98C105.62,337.35,106.35,337.38,106.76,337.14z"/>
				<path class="st7" d="M98.73,341.78l5.2-3.01c0.42-0.24,0.37-0.66-0.12-0.94l-5.16-2.98c-0.48-0.28-1.21-0.31-1.63-0.07
					l-5.2,3.01c-0.42,0.24-0.37,0.66,0.12,0.94l5.16,2.98C97.58,341.99,98.31,342.02,98.73,341.78z"/>
				<path class="st7" d="M159.22,297.81l5.2-3.01c0.42-0.24,0.37-0.66-0.12-0.94l-5.16-2.98c-0.48-0.28-1.21-0.31-1.63-0.07l-5.2,3
					c-0.42,0.24-0.37,0.66,0.12,0.94l5.16,2.98C158.08,298.02,158.81,298.05,159.22,297.81z"/>
				<path class="st7" d="M167.38,293.1l5.2-3c0.42-0.24,0.37-0.66-0.12-0.94l-5.16-2.98c-0.48-0.28-1.21-0.31-1.63-0.07l-5.2,3.01
					c-0.42,0.24-0.37,0.66,0.12,0.94l5.16,2.98C166.23,293.31,166.96,293.34,167.38,293.1z"/>
				<path class="st7" d="M175.55,288.39l11.21-6.47c0.42-0.24,0.37-0.66-0.12-0.94l-5.16-2.98c-0.48-0.28-1.21-0.31-1.63-0.07
					l-11.21,6.47c-0.42,0.24-0.37,0.66,0.12,0.94l5.16,2.98C174.4,288.6,175.13,288.63,175.55,288.39z"/>
				<path class="st7" d="M169.84,282.65l9.1-5.25c0.42-0.24,0.37-0.66-0.12-0.94l-5.16-2.98c-0.48-0.28-1.21-0.31-1.63-0.07
					l-9.1,5.25c-0.42,0.24-0.37,0.66,0.12,0.94l5.16,2.98C168.69,282.86,169.42,282.89,169.84,282.65z"/>
				<path class="st7" d="M151.19,302.45l5.2-3.01c0.42-0.24,0.37-0.66-0.12-0.94l-5.16-2.98c-0.48-0.28-1.21-0.31-1.63-0.07l-5.2,3
					c-0.42,0.24-0.37,0.66,0.12,0.94l5.16,2.98C150.04,302.66,150.77,302.7,151.19,302.45z"/>
				<path class="st7" d="M143.15,307.09l5.2-3.01c0.42-0.24,0.37-0.66-0.12-0.94l-5.16-2.98c-0.48-0.28-1.21-0.31-1.63-0.07l-5.2,3
					c-0.42,0.24-0.37,0.66,0.12,0.94l5.16,2.98C142,307.31,142.73,307.34,143.15,307.09z"/>
				<path class="st7" d="M135.11,311.74l5.2-3.01c0.42-0.24,0.37-0.66-0.12-0.94l-5.16-2.98c-0.48-0.28-1.21-0.31-1.63-0.07l-5.2,3
					c-0.42,0.24-0.37,0.66,0.12,0.94l5.16,2.98C133.96,311.95,134.69,311.98,135.11,311.74z"/>
				<path class="st7" d="M127.07,316.38l5.2-3.01c0.42-0.24,0.37-0.66-0.12-0.94l-5.16-2.98c-0.48-0.28-1.21-0.31-1.63-0.07
					l-5.2,3.01c-0.42,0.24-0.37,0.66,0.12,0.94l5.16,2.98C125.92,316.59,126.65,316.62,127.07,316.38z"/>
				<path class="st7" d="M119.03,321.02l5.2-3.01c0.42-0.24,0.37-0.66-0.12-0.94l-5.16-2.98c-0.48-0.28-1.21-0.31-1.63-0.07
					l-5.2,3.01c-0.42,0.24-0.37,0.66,0.12,0.94l5.16,2.98C117.89,321.23,118.62,321.26,119.03,321.02z"/>
				<path class="st7" d="M111,325.66l5.2-3.01c0.42-0.24,0.37-0.66-0.12-0.94l-5.16-2.98c-0.48-0.28-1.21-0.31-1.63-0.07l-5.2,3.01
					c-0.42,0.24-0.37,0.66,0.12,0.94l5.16,2.98C109.85,325.87,110.58,325.9,111,325.66z"/>
				<path class="st7" d="M102.96,330.3l5.2-3.01c0.42-0.24,0.37-0.66-0.12-0.94l-5.16-2.98c-0.48-0.28-1.21-0.31-1.63-0.07
					l-5.2,3.01c-0.42,0.24-0.37,0.66,0.12,0.94l5.16,2.98C101.81,330.51,102.54,330.54,102.96,330.3z"/>
				<path class="st7" d="M94.92,334.94l5.2-3.01c0.42-0.24,0.37-0.66-0.12-0.94l-5.16-2.98c-0.48-0.28-1.21-0.31-1.63-0.07
					l-5.2,3.01c-0.42,0.24-0.37,0.66,0.12,0.94l5.16,2.98C93.77,335.15,94.5,335.18,94.92,334.94z"/>
				<path class="st7" d="M86.88,339.58l5.2-3.01c0.42-0.24,0.37-0.66-0.12-0.94l-5.16-2.98c-0.48-0.28-1.21-0.31-1.63-0.07
					l-5.2,3.01c-0.42,0.24-0.37,0.66,0.12,0.94l5.16,2.98C85.74,339.79,86.47,339.82,86.88,339.58z"/>
				<path class="st7" d="M72.59,347.83l11.36-6.56c0.42-0.24,0.37-0.66-0.12-0.94l-5.16-2.98c-0.48-0.28-1.21-0.31-1.63-0.07
					l-11.36,6.56c-0.42,0.24-0.37,0.66,0.12,0.94l5.16,2.98C71.45,348.04,72.18,348.07,72.59,347.83z"/>
				<path class="st7" d="M56.95,338.79l9.59-5.53c0.42-0.24,0.37-0.66-0.12-0.94l-5.16-2.98c-0.48-0.28-1.21-0.31-1.63-0.07
					l-9.59,5.53c-0.42,0.24-0.37,0.66,0.12,0.94l5.16,2.98C55.8,339.01,56.53,339.04,56.95,338.79z"/>
				<path class="st7" d="M137.11,301.55l5.2-3.01c0.42-0.24,0.37-0.66-0.12-0.94l-5.16-2.98c-0.48-0.28-1.21-0.31-1.63-0.07
					l-5.2,3.01c-0.42,0.24-0.37,0.66,0.12,0.94l5.16,2.98C135.96,301.76,136.69,301.79,137.11,301.55z"/>
				<path class="st7" d="M145.35,296.79l5.2-3c0.42-0.24,0.37-0.66-0.12-0.94l-5.16-2.98c-0.48-0.28-1.21-0.31-1.63-0.07l-5.2,3
					c-0.42,0.24-0.37,0.66,0.12,0.94l5.16,2.98C144.2,297,144.93,297.03,145.35,296.79z"/>
				<path class="st7" d="M153.58,292.03l5.2-3.01c0.42-0.24,0.37-0.66-0.12-0.94l-5.16-2.98c-0.48-0.28-1.21-0.31-1.63-0.07
					l-5.2,3.01c-0.42,0.24-0.37,0.66,0.12,0.94l5.16,2.98C152.44,292.24,153.17,292.28,153.58,292.03z"/>
				<path class="st7" d="M161.82,287.28l5.2-3c0.42-0.24,0.37-0.66-0.12-0.94l-5.16-2.98c-0.48-0.28-1.21-0.31-1.63-0.07l-5.2,3.01
					c-0.42,0.24-0.37,0.66,0.12,0.94l5.16,2.98C160.67,287.49,161.4,287.52,161.82,287.28z"/>
				<path class="st7" d="M129.07,306.19l5.2-3c0.42-0.24,0.37-0.66-0.12-0.94l-5.16-2.98c-0.48-0.28-1.21-0.31-1.63-0.07l-5.2,3.01
					c-0.42,0.24-0.37,0.66,0.12,0.94l5.16,2.98C127.92,306.4,128.65,306.43,129.07,306.19z"/>
				<path class="st7" d="M121.03,310.83l5.2-3c0.42-0.24,0.37-0.66-0.12-0.94l-5.16-2.98c-0.48-0.28-1.21-0.31-1.63-0.07l-5.2,3.01
					c-0.42,0.24-0.37,0.66,0.12,0.94l5.16,2.98C119.89,311.04,120.62,311.07,121.03,310.83z"/>
				<path class="st7" d="M113,315.47l5.2-3c0.42-0.24,0.37-0.66-0.12-0.94l-5.16-2.98c-0.48-0.28-1.21-0.31-1.63-0.07l-5.2,3.01
					c-0.42,0.24-0.37,0.66,0.12,0.94l5.16,2.98C111.85,315.68,112.58,315.71,113,315.47z"/>
				<path class="st7" d="M104.96,320.11l5.2-3c0.42-0.24,0.37-0.66-0.12-0.94l-5.16-2.98c-0.48-0.28-1.21-0.31-1.63-0.07l-5.2,3.01
					c-0.42,0.24-0.37,0.66,0.12,0.94l5.16,2.98C103.81,320.32,104.54,320.35,104.96,320.11z"/>
				<path class="st7" d="M96.92,324.75l5.2-3c0.42-0.24,0.37-0.66-0.12-0.94l-5.16-2.98c-0.48-0.28-1.21-0.31-1.63-0.07l-5.2,3
					c-0.42,0.24-0.37,0.66,0.12,0.94l5.16,2.98C95.77,324.96,96.5,324.99,96.92,324.75z"/>
				<path class="st7" d="M88.88,329.39l5.2-3c0.42-0.24,0.37-0.66-0.12-0.94l-5.16-2.98c-0.48-0.28-1.21-0.31-1.63-0.07l-5.2,3
					c-0.42,0.24-0.37,0.66,0.12,0.94l5.16,2.98C87.73,329.6,88.46,329.63,88.88,329.39z"/>
				<path class="st7" d="M80.85,334.03l5.2-3c0.42-0.24,0.37-0.66-0.12-0.94l-5.16-2.98c-0.48-0.28-1.21-0.31-1.63-0.07l-5.2,3
					c-0.42,0.24-0.37,0.66,0.12,0.94l5.16,2.98C79.7,334.24,80.43,334.27,80.85,334.03z"/>
				<path class="st7" d="M72.81,338.67l5.2-3c0.42-0.24,0.37-0.66-0.12-0.94l-5.16-2.98c-0.48-0.28-1.21-0.31-1.63-0.07l-5.2,3
					c-0.42,0.24-0.37,0.66,0.12,0.94l5.16,2.98C71.66,338.88,72.39,338.91,72.81,338.67z"/>
				<path class="st7" d="M64.77,343.31l5.2-3.01c0.42-0.24,0.37-0.66-0.12-0.94l-5.16-2.98c-0.48-0.28-1.21-0.31-1.63-0.07l-5.2,3
					c-0.42,0.24-0.37,0.66,0.12,0.94l5.16,2.98C63.62,343.52,64.35,343.55,64.77,343.31z"/>
				<path class="st7" d="M141.34,290.07l5.2-3.01c0.42-0.24,0.37-0.66-0.12-0.94l-5.16-2.98c-0.48-0.28-1.21-0.31-1.63-0.07
					l-5.2,3.01c-0.42,0.24-0.37,0.66,0.12,0.94l5.16,2.98C140.19,290.28,140.92,290.31,141.34,290.07z"/>
				<path class="st7" d="M149.34,285.45l5.2-3.01c0.42-0.24,0.37-0.66-0.12-0.94l-5.16-2.98c-0.48-0.28-1.21-0.31-1.63-0.07
					l-5.2,3.01c-0.42,0.24-0.37,0.66,0.12,0.94l5.16,2.98C148.19,285.66,148.92,285.69,149.34,285.45z"/>
				<path class="st7" d="M157.34,280.83l5.2-3.01c0.42-0.24,0.37-0.66-0.12-0.94l-5.16-2.98c-0.48-0.28-1.21-0.31-1.63-0.07l-5.2,3
					c-0.42,0.24-0.37,0.66,0.12,0.94l5.16,2.98C156.19,281.04,156.92,281.07,157.34,280.83z"/>
				<path class="st7" d="M165.34,276.22l5.2-3c0.42-0.24,0.37-0.66-0.12-0.94l-5.16-2.98c-0.48-0.28-1.21-0.31-1.63-0.07l-5.2,3.01
					c-0.42,0.24-0.37,0.66,0.12,0.94l5.16,2.98C164.19,276.43,164.92,276.46,165.34,276.22z"/>
				<path class="st7" d="M157.11,271.47l5.2-3.01c0.42-0.24,0.37-0.66-0.12-0.94l-1.7-0.98c-0.48-0.28-1.21-0.31-1.63-0.07l-5.2,3
					c-0.42,0.24-0.37,0.66,0.12,0.94l1.7,0.98C155.96,271.68,156.69,271.71,157.11,271.47z"/>
				<path class="st7" d="M146.67,277.49l5.2-3c0.42-0.24,0.37-0.66-0.12-0.94l-1.7-0.98c-0.48-0.28-1.21-0.31-1.63-0.07l-5.2,3.01
					c-0.42,0.24-0.37,0.66,0.12,0.94l1.7,0.98C145.53,277.7,146.26,277.73,146.67,277.49z"/>
				<path class="st7" d="M138.71,282.09l5.2-3.01c0.42-0.24,0.37-0.66-0.12-0.94l-1.7-0.98c-0.48-0.28-1.21-0.31-1.63-0.07l-5.2,3
					c-0.42,0.24-0.37,0.66,0.12,0.94l1.7,0.98C137.56,282.3,138.29,282.33,138.71,282.09z"/>
				<path class="st7" d="M130.74,286.69l5.2-3c0.42-0.24,0.37-0.66-0.12-0.94l-1.7-0.98c-0.48-0.28-1.21-0.31-1.63-0.07l-5.2,3.01
					c-0.42,0.24-0.37,0.66,0.12,0.94l1.7,0.98C129.6,286.9,130.33,286.93,130.74,286.69z"/>
				<path class="st7" d="M122.78,291.29l5.2-3.01c0.42-0.24,0.37-0.66-0.12-0.94l-1.7-0.98c-0.48-0.28-1.21-0.31-1.63-0.07l-5.2,3
					c-0.42,0.24-0.37,0.66,0.12,0.94l1.7,0.98C121.63,291.5,122.36,291.53,122.78,291.29z"/>
				<path class="st7" d="M78.32,316.96l5.2-3c0.42-0.24,0.37-0.66-0.12-0.94l-1.7-0.98c-0.48-0.28-1.21-0.31-1.63-0.07l-5.2,3.01
					c-0.42,0.24-0.37,0.66,0.12,0.94l1.7,0.98C77.17,317.17,77.9,317.2,78.32,316.96z"/>
				<path class="st7" d="M70.35,321.56l5.2-3.01c0.42-0.24,0.37-0.66-0.12-0.94l-1.7-0.98c-0.48-0.28-1.21-0.31-1.63-0.07l-5.2,3
					c-0.42,0.24-0.37,0.66,0.12,0.94l1.7,0.98C69.2,321.77,69.93,321.8,70.35,321.56z"/>
				<path class="st7" d="M62.39,326.16l5.2-3.01c0.42-0.24,0.37-0.66-0.12-0.94l-1.7-0.98c-0.48-0.28-1.21-0.31-1.63-0.07l-5.2,3.01
					c-0.42,0.24-0.37,0.66,0.12,0.94l1.7,0.98C61.24,326.37,61.97,326.4,62.39,326.16z"/>
				<path class="st7" d="M54.42,330.75l5.2-3.01c0.42-0.24,0.37-0.66-0.12-0.94l-1.7-0.98c-0.48-0.28-1.21-0.31-1.63-0.07l-5.2,3.01
					c-0.42,0.24-0.37,0.66,0.12,0.94l1.7,0.98C53.27,330.96,54,331,54.42,330.75z"/>
				<path class="st7" d="M133.3,294.71l5.2-3c0.42-0.24,0.37-0.66-0.12-0.94l-5.16-2.98c-0.48-0.28-1.21-0.31-1.63-0.07l-5.2,3.01
					c-0.42,0.24-0.37,0.66,0.12,0.94l5.16,2.98C132.16,294.92,132.89,294.95,133.3,294.71z"/>
				<path class="st7" d="M125.27,299.35l5.2-3c0.42-0.24,0.37-0.66-0.12-0.94l-5.16-2.98c-0.48-0.28-1.21-0.31-1.63-0.07l-5.2,3.01
					c-0.42,0.24-0.37,0.66,0.12,0.94l5.16,2.98C124.12,299.56,124.85,299.59,125.27,299.35z"/>
				<path class="st7" d="M117.23,303.99l5.2-3c0.42-0.24,0.37-0.66-0.12-0.94l-5.16-2.98c-0.48-0.28-1.21-0.31-1.63-0.07l-5.2,3.01
					c-0.42,0.24-0.37,0.66,0.12,0.94l5.16,2.98C116.08,304.2,116.81,304.23,117.23,303.99z"/>
				<path class="st7" d="M109.19,308.63l5.2-3c0.42-0.24,0.37-0.66-0.12-0.94l-5.16-2.98c-0.48-0.28-1.21-0.31-1.63-0.07l-5.2,3
					c-0.42,0.24-0.37,0.66,0.12,0.94l5.16,2.98C108.04,308.84,108.77,308.87,109.19,308.63z"/>
				<path class="st7" d="M101.15,313.27l5.2-3c0.42-0.24,0.37-0.66-0.12-0.94l-5.16-2.98c-0.48-0.28-1.21-0.31-1.63-0.07l-5.2,3
					c-0.42,0.24-0.37,0.66,0.12,0.94l5.16,2.98C100.01,313.48,100.74,313.51,101.15,313.27z"/>
				<path class="st7" d="M93.12,317.91l5.2-3c0.42-0.24,0.37-0.66-0.12-0.94l-5.16-2.98c-0.48-0.28-1.21-0.31-1.63-0.07l-5.2,3
					c-0.42,0.24-0.37,0.66,0.12,0.94l5.16,2.98C91.97,318.12,92.7,318.15,93.12,317.91z"/>
				<path class="st7" d="M85.08,322.55l5.2-3c0.42-0.24,0.37-0.66-0.12-0.94l-5.16-2.98c-0.48-0.28-1.21-0.31-1.63-0.07l-5.2,3
					c-0.42,0.24-0.37,0.66,0.12,0.94l5.16,2.98C83.93,322.76,84.66,322.79,85.08,322.55z"/>
				<path class="st7" d="M77.04,327.19l5.2-3c0.42-0.24,0.37-0.66-0.12-0.94l-5.16-2.98c-0.48-0.28-1.21-0.31-1.63-0.07l-5.2,3
					c-0.42,0.24-0.37,0.66,0.12,0.94l5.16,2.98C75.89,327.4,76.62,327.43,77.04,327.19z"/>
				<path class="st7" d="M69,331.83l5.2-3.01c0.42-0.24,0.37-0.66-0.12-0.94l-5.16-2.98c-0.48-0.28-1.21-0.31-1.63-0.07l-5.2,3
					c-0.42,0.24-0.37,0.66,0.12,0.94l5.16,2.98C67.85,332.04,68.58,332.07,69,331.83z"/>
				<path class="st7" d="M179.26,295.28l15.33-8.85c0.42-0.24,0.37-0.66-0.12-0.94l-5.16-2.98c-0.48-0.28-1.21-0.31-1.63-0.07
					l-15.33,8.85c-0.42,0.24-0.37,0.66,0.12,0.94l5.16,2.98C178.11,295.49,178.84,295.52,179.26,295.28z"/>
				<path class="st7" d="M80.51,352.29l15.33-8.85c0.42-0.24,0.37-0.66-0.12-0.94l-5.16-2.98c-0.48-0.28-1.21-0.31-1.63-0.07
					l-15.33,8.85c-0.42,0.24-0.37,0.66,0.12,0.94l5.16,2.98C79.36,352.5,80.09,352.53,80.51,352.29z"/>
				<path class="st7" d="M112.66,343.98l5.2-3.01c0.42-0.24,0.37-0.66-0.12-0.94l-6.14-3.55c-0.48-0.28-1.21-0.31-1.63-0.07l-5.2,3
					c-0.42,0.24-0.37,0.66,0.12,0.94l6.14,3.55C111.51,344.2,112.24,344.23,112.66,343.98z"/>
				<path class="st7" d="M171.03,310.28l8.32-4.81c0.42-0.24,0.37-0.66-0.12-0.94l-6.14-3.55c-0.48-0.28-1.21-0.31-1.63-0.07
					l-8.32,4.81c-0.42,0.24-0.37,0.66,0.12,0.94l6.14,3.55C169.88,310.5,170.61,310.53,171.03,310.28z"/>
				<path class="st7" d="M120.4,339.51l8.32-4.81c0.42-0.24,0.37-0.66-0.12-0.94l-6.14-3.55c-0.48-0.28-1.21-0.31-1.63-0.07
					l-8.32,4.81c-0.42,0.24-0.37,0.66,0.12,0.94l6.14,3.55C119.25,339.72,119.98,339.75,120.4,339.51z"/>
				<path class="st7" d="M159.43,316.98l8.32-4.81c0.42-0.24,0.37-0.66-0.12-0.94l-6.14-3.55c-0.48-0.28-1.21-0.31-1.63-0.07
					l-8.32,4.81c-0.42,0.24-0.37,0.66,0.12,0.94l6.14,3.55C158.28,317.19,159.01,317.22,159.43,316.98z"/>
				<path class="st7" d="M159.81,307.65l-36.19,20.89c-0.45,0.26-0.45,0.68,0,0.94l6.26,3.62c0.45,0.26,1.18,0.26,1.63,0
					l36.19-20.89L159.81,307.65z"/>
				<path class="st7" d="M90.19,352.4l-5.8,3.35c-0.34,0.2-0.3,0.54,0.1,0.77l2.51,1.45c0.4,0.23,0.99,0.25,1.34,0.06l5.8-3.35
					c0.34-0.2,0.3-0.54-0.1-0.77l-2.51-1.45C91.13,352.23,90.53,352.2,90.19,352.4z"/>
				<path class="st7" d="M98.3,347.72l-5.8,3.35c-0.34,0.2-0.3,0.54,0.1,0.77l2.51,1.45c0.4,0.23,0.99,0.25,1.34,0.06l5.8-3.35
					c0.34-0.2,0.3-0.54-0.1-0.77l-2.51-1.45C99.24,347.55,98.64,347.52,98.3,347.72z"/>
				<path class="st7" d="M106.33,343.08l-5.8,3.35c-0.34,0.2-0.3,0.54,0.1,0.77l2.51,1.45c0.4,0.23,0.99,0.25,1.34,0.06l5.8-3.35
					c0.34-0.2,0.3-0.54-0.1-0.77l-2.51-1.45C107.27,342.91,106.68,342.88,106.33,343.08z"/>
				<path class="st7" d="M93.86,345.16l-5.8,3.35c-0.34,0.2-0.3,0.54,0.1,0.77l2.51,1.45c0.4,0.23,0.99,0.25,1.34,0.06l5.8-3.35
					c0.34-0.2,0.3-0.54-0.1-0.77l-2.51-1.45C94.8,344.98,94.2,344.96,93.86,345.16z"/>
			</g>
			<g>
				<polygon class="st8" points="62.11,254.61 105.4,229.61 104.85,226.79 61.55,251.79 				"/>
				<polygon class="st8" points="77.61,259.36 107.84,241.91 107.28,239.09 77.06,256.54 				"/>
				<polygon class="st8" points="80.47,250.85 106.62,235.76 106.06,232.94 79.92,248.04 				"/>
				<polygon class="st7" points="63.32,260.75 76.4,253.21 75.84,250.39 62.77,257.94 				"/>
				<polygon class="st8" points="110.01,205.05 123.09,197.51 122.53,194.69 109.46,202.24 				"/>
				<polygon class="st8" points="111.43,211.59 124.5,204.05 123.95,201.23 110.87,208.78 				"/>
				<polygon class="st8" points="47.27,302.32 60.34,294.77 59.78,291.96 46.71,299.51 				"/>
				<polygon class="st8" points="114.27,224.68 127.34,217.13 126.78,214.31 113.71,221.86 				"/>
			</g>
			<g>
				<path class="st7" d="M86.02,226.7c0.42,0.91,1.47,1.23,2.35,0.72c0.88-0.51,1.26-1.66,0.84-2.57s-1.47-1.23-2.35-0.72
					C85.98,224.64,85.61,225.79,86.02,226.7z"/>
				<path class="st8" d="M80.39,229.95c0.42,0.91,1.47,1.23,2.35,0.72c0.88-0.51,1.26-1.66,0.84-2.57
					c-0.42-0.91-1.47-1.23-2.35-0.72C80.35,227.9,79.98,229.04,80.39,229.95z"/>
				<path class="st8" d="M74.76,233.2c0.42,0.91,1.47,1.23,2.35,0.72c0.88-0.51,1.26-1.66,0.84-2.57c-0.42-0.91-1.47-1.23-2.35-0.72
					S74.34,232.3,74.76,233.2z"/>
				<path class="st7" d="M69.13,236.46c0.42,0.91,1.47,1.23,2.35,0.72s1.26-1.66,0.84-2.57c-0.42-0.91-1.47-1.23-2.35-0.72
					C69.09,234.4,68.71,235.55,69.13,236.46z"/>
			</g>
		</g>
		<g>
			<g>
				<polygon class="st7" points="308.35,83.68 311.47,82.11 308.4,79.78 				"/>
				<polygon class="st7" points="317.25,73.82 320.41,72.23 314.33,66.44 				"/>
				<g>
					<path class="st7" d="M310.56,82.01l-14.78-8.7c-0.75-0.44-1.36-1.55-1.35-2.48l0.05-17.11l17.49,10.3l-0.05,17.11
						C311.92,82.05,311.31,82.45,310.56,82.01z"/>
					<path class="st7" d="M301.97,41.31l-15.96,10.27c-0.68,0.44-0.13,2.06,0.9,2.67l16.3,9.6l16.3,9.6
						c1.03,0.61,1.58-0.37,0.91-1.6l-15.85-29C303.89,41.59,302.66,40.86,301.97,41.31z"/>
				</g>
				<g>
					<path class="st8" d="M307.39,83.6l-14.78-8.7c-0.75-0.44-1.36-1.55-1.35-2.48l0.05-17.11l17.49,10.3l-0.05,17.11
						C308.75,83.65,308.14,84.05,307.39,83.6z"/>
					<path class="st8" d="M298.8,41.6l-15.96,10.27c-0.68,0.44-0.13,2.06,0.9,2.67l16.3,9.6l16.3,9.6c1.03,0.61,1.58-0.37,0.91-1.6
						l-15.85-29C300.72,41.88,299.49,41.15,298.8,41.6z"/>
				</g>
			</g>
		</g>
		<g>
			<g>
				<path class="st13" d="M246.93,341.23L246.93,341.23c-0.04-0.08-0.13-0.11-0.21-0.1l-2.77,0.57l1.07,1.87l1.89-2.11
					C246.97,341.4,246.98,341.31,246.93,341.23z"/>
				<g>
					<path class="st7" d="M245.83,342.59c0-0.4-0.28-0.89-0.62-1.09c-0.16-0.09-0.3-0.11-0.41-0.06c-3.2-0.06-6.35,0.75-9.13,2.35
						l-0.2,0.12l3.38,5.88l1.02-0.66c2.16-1.4,3.99-3.26,5.36-5.45l0.44-0.71C245.77,342.9,245.83,342.77,245.83,342.59z"/>
					<path class="st9" d="M239.55,348.24c0-1.53-1.07-3.39-2.39-4.16c-1.32-0.77-2.4-0.15-2.4,1.38c0,1.53,1.07,3.39,2.39,4.16
						C238.47,350.39,239.55,349.77,239.55,348.24z"/>
					<polygon class="st9" points="212,365.93 238.84,349.79 235.46,343.91 208.01,358.97 					"/>
					<path class="st13" d="M212.83,364.09c0-1.81-1.26-4.01-2.82-4.92c-1.56-0.91-2.83-0.18-2.84,1.63s1.26,4.01,2.82,4.92
						C211.56,366.63,212.83,365.9,212.83,364.09z"/>
				</g>
				<g>
					<path class="st13" d="M211.66,364.76c0-1.81-1.26-4.01-2.82-4.92c-1.56-0.91-2.83-0.18-2.84,1.63c0,1.81,1.26,4.01,2.82,4.92
						C210.39,367.3,211.66,366.57,211.66,364.76z"/>
					
						<rect x="179.6" y="366.91" transform="matrix(0.8671 -0.4982 0.4982 0.8671 -158.8338 146.5818)" class="st9" width="31.31" height="8.02"/>
					<path class="st17" d="M184.51,380.36c0-1.81-1.26-4.01-2.82-4.92c-1.56-0.91-2.83-0.18-2.84,1.63c0,1.81,1.26,4.01,2.82,4.92
						C183.24,382.9,184.51,382.17,184.51,380.36z"/>
					<path class="st7" d="M183.5,379.78c-0.05-1.07-0.91-2.4-1.91-2.99c-1-0.58-1.78-0.19-1.72,0.88c0.05,1.07,0.91,2.4,1.91,2.99
						C182.78,381.24,183.55,380.84,183.5,379.78z"/>
				</g>
				<g>
					<path class="st7" d="M213.04,363.97c0-1.81-1.26-4.01-2.82-4.92c-1.56-0.91-2.83-0.18-2.84,1.63c0,1.81,1.26,4.01,2.82,4.92
						C211.77,366.51,213.04,365.78,213.04,363.97z"/>
					<path class="st8" d="M213.04,363.97c0-1.81-1.26-4.01-2.82-4.92c-0.63-0.37-1.21-0.46-1.68-0.33c0.52-0.53,1.35-0.58,2.3-0.03
						c1.56,0.91,2.83,3.11,2.82,4.92c0,1.08-0.46,1.77-1.16,1.96C212.84,365.23,213.04,364.69,213.04,363.97z"/>
					
						<rect x="208.55" y="358.76" transform="matrix(0.8671 -0.4982 0.4982 0.8671 -152.8901 152.5671)" class="st7" width="1.77" height="8.02"/>
					<path class="st9" d="M211.5,364.86c0-1.81-1.26-4.01-2.82-4.92c-1.56-0.91-2.83-0.18-2.84,1.63c0,1.81,1.26,4.01,2.82,4.92
						C210.23,367.39,211.5,366.66,211.5,364.86z"/>
				</g>
				<g>
					<path class="st6" d="M182.22,380.57l-1.72-3l-5.75,3.31c-0.83,0.48-1.11,1.53-0.64,2.36l0,0c0.48,0.83,1.53,1.11,2.36,0.64
						L182.22,380.57z"/>
					<path class="st6" d="M182.58,379.78c0-0.78-0.54-1.73-1.22-2.12c-0.67-0.39-1.22-0.08-1.22,0.7c0,0.78,0.54,1.73,1.22,2.12
						C182.03,380.87,182.58,380.56,182.58,379.78z"/>
				</g>
				<g>
					<path class="st7" d="M189.04,369.31l-0.85-0.5c-0.49-0.28-1.14-0.22-1.84,0.18l-2.96,1.7c-0.56,0.32-1.01,1.11-1.01,1.75
						l0,1.47c0,0.25-0.12,0.53-0.3,0.74l0.1,0.68l-0.73-0.43l0,0c-0.11-0.05-0.17-0.18-0.17-0.36l0-1.47c0-1.34,0.95-2.98,2.12-3.65
						l2.96-1.7c0.99-0.57,1.92-0.66,2.61-0.25l0.85,0.5c0.49,0.28,1.14,0.22,1.84-0.18l11.92-6.85c0.15-0.09,0.29-0.09,0.39-0.03
						l0,0l0.73,0.43l-0.63,0.23c-0.09,0.26-0.28,0.52-0.49,0.64l-11.92,6.85C190.67,369.63,189.74,369.72,189.04,369.31z"/>
					<path class="st7" d="M188.93,369.25c-0.49-0.28-1.14-0.22-1.84,0.18l-2.96,1.7c-0.56,0.32-1.01,1.11-1.01,1.75l0,1.47
						c0,0.35-0.25,0.77-0.55,0.95c-0.3,0.17-0.55,0.03-0.55-0.32l0-1.47c0-1.34,0.95-2.98,2.12-3.65l2.96-1.7
						c0.99-0.57,1.92-0.66,2.61-0.25l0.85,0.5c0.49,0.28,1.14,0.22,1.84-0.18l11.92-6.85c0.3-0.17,0.55-0.03,0.55,0.32
						c0,0.35-0.25,0.77-0.55,0.95l-11.92,6.85c-0.99,0.57-1.92,0.66-2.61,0.25L188.93,369.25z"/>
				</g>
			</g>
		</g>
	</g>
</g>
</svg>
