<?xml version="1.0" encoding="utf-8"?>
<!-- Generator: Adobe Illustrator 24.0.0, SVG Export Plug-In . SVG Version: 6.00 Build 0)  -->
<svg version="1.1" id="Capa_1" xmlns="http://www.w3.org/2000/svg" xmlns:xlink="http://www.w3.org/1999/xlink" x="0px" y="0px"
	 viewBox="0 0 400 400" style="enable-background:new 0 0 400 400;" xml:space="preserve">
<style type="text/css">
	.st0{opacity:0.25;fill:#585857;}
	.st1{opacity:0.25;}
	.st2{fill:#585857;}
	.st3{fill:#B0C2CD;}
	.st4{fill:#E6EBEE;}
	.st5{fill:#596B7B;}
	.st6{fill:#E23B21;}
	.st7{fill:#F29104;}
	.st8{fill:#FFFFFF;}
	.st9{fill:#F8B133;}
	.st10{fill:#E8501D;}
	.st11{fill:#1C3F76;}
	.st12{fill:#396EAC;}
	.st13{fill:#D4EBFA;}
	.st14{fill:#93A5B1;}
	.st15{fill:#75838D;}
	.st16{fill:#83949E;}
	.st17{fill:#DEE4EC;}
	.st18{enable-background:new    ;}
	.st19{clip-path:url(#SVGID_2_);enable-background:new    ;}
	.st20{clip-path:url(#SVGID_4_);enable-background:new    ;}
	.st21{clip-path:url(#SVGID_6_);enable-background:new    ;}
	.st22{clip-path:url(#SVGID_8_);enable-background:new    ;}
	.st23{clip-path:url(#SVGID_10_);enable-background:new    ;}
	.st24{clip-path:url(#SVGID_14_);enable-background:new    ;}
	.st25{opacity:0.57;}
	.st26{fill:none;}
	.st27{fill:#E98C4D;}
	.st28{fill:#F9DBB5;}
	.st29{fill:#F6B65F;}
	.st30{fill:#EE7A07;}
	.st31{fill:#903178;}
	.st32{fill:#425562;}
	.st33{fill:#F6A873;}
	.st34{clip-path:url(#SVGID_16_);enable-background:new    ;}
	.st35{fill:#121011;}
	.st36{clip-path:url(#SVGID_18_);enable-background:new    ;}
	.st37{clip-path:url(#SVGID_20_);enable-background:new    ;}
	.st38{clip-path:url(#SVGID_22_);enable-background:new    ;}
	.st39{clip-path:url(#SVGID_24_);enable-background:new    ;}
	.st40{fill:#141213;}
	.st41{clip-path:url(#SVGID_28_);enable-background:new    ;}
	.st42{fill:#939393;}
	.st43{fill:#989999;}
	.st44{fill:#9D9D9D;}
	.st45{fill:#A3A1A1;}
	.st46{fill:#A7A6A6;}
	.st47{fill:#ACACAC;}
	.st48{fill:#B4B4B2;}
	.st49{fill:#B8B7B7;}
	.st50{fill:#8D8E8E;}
	.st51{fill:#888A8A;}
	.st52{fill:#848685;}
	.st53{fill:#151212;}
	.st54{fill:#161415;}
	.st55{fill:#171414;}
	.st56{fill:#171415;}
	.st57{fill:#191516;}
	.st58{fill:#191717;}
	.st59{fill:#191618;}
	.st60{fill:#C8D2DF;}
	.st61{fill:#171517;}
	.st62{fill:#A5539A;}
	.st63{fill:#CDCAE6;}
	.st64{fill:#7975B5;}
	.st65{fill:url(#SVGID_29_);}
	.st66{fill:#E5352B;}
	.st67{fill:url(#SVGID_30_);}
	.st68{opacity:0.5;fill:#CDCAE6;}
	.st69{fill:url(#SVGID_31_);}
	.st70{fill:url(#SVGID_32_);}
	.st71{fill:url(#SVGID_33_);}
	.st72{fill:url(#SVGID_34_);}
	.st73{fill:url(#SVGID_35_);}
	.st74{fill:url(#SVGID_36_);}
	.st75{fill:url(#SVGID_37_);}
	.st76{fill:#F07E1B;}
	.st77{fill:#F5F5F7;}
	.st78{fill:#683D90;}
	.st79{fill:#D0D9E4;}
	.st80{font-family:'Lato-Bold';}
	.st81{font-size:7.9647px;}
	.st82{fill:url(#SVGID_38_);}
	.st83{fill:#005E77;}
	.st84{fill:#519BD5;}
	.st85{fill:#F8F8FA;}
	.st86{fill:url(#SVGID_39_);}
	.st87{fill:#D3DBE6;}
</style>
<g>
	<g class="st1">
		<g>
			<g>
				<g>
					<path class="st2" d="M277.45,250.75L63.1,374.5c-8.9,5.14-16.11-0.32-16.11-12.18V195.62c0-11.86,7.22-25.64,16.11-30.78
						L277.45,41.07c8.9-5.14,16.11,0.32,16.11,12.18v166.71C293.56,231.83,286.35,245.61,277.45,250.75z"/>
				</g>
				<g>
					<polygon class="st2" points="287.46,217.43 53.09,352.74 53.09,190.28 287.46,54.97 					"/>
				</g>
			</g>
			<g>
				<path class="st2" d="M46.98,362.32V195.62c0-11.86,7.22-25.64,16.11-30.78L277.45,41.07c4.08-2.36,7.8-2.48,10.64-0.78l0-0.01
					l-13.29-7.8c-2.86-1.78-6.64-1.69-10.78,0.7L49.67,156.95c-8.9,5.14-16.11,18.92-16.11,30.78v166.71
					c0,6.43,2.12,10.98,5.49,12.97l13.55,7.97v-0.01C49.16,373.41,46.98,368.84,46.98,362.32z"/>
				<polygon class="st2" points="63.1,164.83 49.67,156.95 264.03,33.19 277.45,41.07 				"/>
			</g>
		</g>
		<polygon class="st2" points="322.04,237.77 87.67,372.75 87.67,210.29 322.04,75.31 		"/>
		<polygon class="st2" points="322.04,80.6 87.67,215.58 87.67,210.29 322.04,75.31 		"/>
		<polygon class="st2" points="322.04,92.11 87.67,227.1 87.67,215.58 322.04,80.6 		"/>
		<path class="st2" d="M87.67,227.1v145.66l13.39-7.73c10.53-6.08,17.02-17.32,17.02-29.48v-73.82l30.41-17.56v52.08
			c0,9.63,6.81,13.52,15.21,8.67l0,0c8.4-4.85,15.2-16.59,15.2-26.23v-14.7c0-9.64,6.81-21.38,15.21-26.23l0,0
			c8.4-4.85,15.2-0.97,15.2,8.67v30.69c0,11.29,12.23,18.35,22,12.7l90.73-52.05V92.11L87.67,227.1z"/>
		<g>
			<g>
				<path class="st2" d="M145.39,295.59v-21.99h-9.15l0,21.99c-0.02,0.69,0.42,1.38,1.33,1.9c1.78,1.03,4.68,1.03,6.47-0.01
					C144.94,296.96,145.39,296.28,145.39,295.59z"/>
				<path class="st2" d="M144.06,271.73c1.78,1.03,1.77,2.7-0.02,3.74c-1.79,1.03-4.69,1.04-6.47,0.01
					c-1.78-1.03-1.77-2.7,0.02-3.74C139.38,270.71,142.28,270.7,144.06,271.73z"/>
			</g>
			<path class="st2" d="M158.02,246.46c-0.8-0.46-1.83-0.39-2.83,0.19l-32.87,19.28l1,1.72l32.86-19.28
				c0.43-0.25,0.72-0.25,0.84-0.18c0.12,0.07,0.25,0.32,0.25,0.79v2.96c0,1.27-0.97,2.95-2.09,3.59l-12.29,7.15
				c-1.73,1-3.08,3.33-3.08,5.32l0.01,5.65c0.01,0.14,0.1,0.28,0.28,0.38c0.39,0.23,1.02,0.22,1.41,0c0.18-0.11,0.27-0.24,0.28-0.38
				l0.01-5.65c0-1.27,0.98-2.95,2.09-3.59l12.29-7.15c1.73-1,3.08-3.33,3.08-5.32v-2.96C159.27,247.83,158.81,246.91,158.02,246.46z
				"/>
			<path class="st2" d="M157.23,253.15c0-3.4-2.4-7.54-5.37-9.25c-1.58-0.91-3-0.94-3.98-0.26l-0.01-0.01l-28.86,16.66l7.62,13.07
				c0,0,21.23-12.44,28.85-16.68C156.52,256.1,157.23,254.94,157.23,253.15z"/>
			<g>
				<path class="st2" d="M117.46,263.72c0,3.4,2.4,7.54,5.37,9.26s5.37,0.34,5.37-3.06c0-3.4-2.4-7.54-5.37-9.26
					C119.86,258.95,117.46,260.32,117.46,263.72z"/>
				<path class="st2" d="M121.02,265.78c0,1.14,0.81,2.54,1.81,3.12c1,0.58,1.81,0.11,1.81-1.03c0-1.15-0.81-2.54-1.81-3.12
					C121.82,264.17,121.02,264.63,121.02,265.78z"/>
				<path class="st2" d="M121.7,266.17c0,0.71,0.5,1.58,1.12,1.94c0.62,0.36,1.13,0.07,1.13-0.64c0-0.71-0.5-1.58-1.13-1.94
					C122.2,265.17,121.7,265.46,121.7,266.17z"/>
			</g>
		</g>
		<g>
			<polygon class="st2" points="84.72,208.54 84.72,371 87.67,372.75 87.67,210.29 			"/>
			<polygon class="st2" points="84.72,208.54 87.67,210.29 322.04,75.31 319.09,73.23 			"/>
		</g>
		<g>
			<g>
				<polygon class="st2" points="307.74,139.28 154.47,227.77 154.47,213.25 307.74,124.76 				"/>
				<text transform="matrix(0.8715 -0.5031 0 1 195.3986 199.3121)" class="st2 st80 st81">www.decodingrg.com.ar</text>
			</g>
			<polygon class="st2" points="152.72,212.24 154.47,213.25 307.74,124.76 305.99,123.75 			"/>
			<polygon class="st2" points="154.47,227.77 152.72,226.76 152.72,212.24 154.47,213.25 			"/>
		</g>
		<polygon class="st2" points="93.36,93.13 34.17,127.3 34.17,75.94 93.36,41.77 		"/>
		<polygon class="st2" points="93.36,41.77 34.17,75.94 30.86,74.15 90.05,39.97 		"/>
		<g>
			<path class="st2" d="M82.73,77.31v-0.02c0-8.17-5.77-11.46-12.89-7.35c-5.17,2.98-9.62,9.04-11.68,15.26
				c-1.04,0.15-2.16,0.56-3.33,1.23c-5.23,3.02-9.48,10.34-9.48,16.35c0,6.01,4.24,8.43,9.48,5.4l27.5-15.88
				c3.56-2.05,6.44-7.03,6.44-11.12C88.78,77.26,86.11,75.6,82.73,77.31z"/>
			<g>
				<path class="st2" d="M82.73,77.29v0.02c1.6-0.81,3.04-0.85,4.11-0.27l0-0.01l-3.19-1.72c-0.33-0.2-0.71-0.33-1.11-0.4
					C82.66,75.65,82.73,76.44,82.73,77.29z"/>
				<path class="st2" d="M45.36,102.78c0-6,4.24-13.32,9.48-16.35c1.17-0.67,2.29-1.08,3.33-1.23c2.05-6.22,6.51-12.28,11.68-15.26
					c3.48-2.01,6.63-2.24,8.95-1.02v0l-3.27-1.77c-2.32-1.25-5.49-1.02-8.99,1c-5.16,2.98-9.62,9.04-11.67,15.26
					c-1.03,0.15-2.16,0.55-3.33,1.23c-5.23,3.02-9.48,10.34-9.48,16.35c0,3,1.06,5.1,2.77,6.08l3.48,1.89v-0.01
					C46.49,108,45.36,105.87,45.36,102.78z"/>
			</g>
		</g>
		<polygon class="st2" points="138.58,93.13 79.39,127.3 79.39,75.94 138.58,41.77 		"/>
		<polygon class="st2" points="138.58,41.77 79.39,75.94 76.08,74.15 135.27,39.97 		"/>
		<polygon class="st2" points="76.08,125.51 79.39,127.3 79.39,75.94 76.08,74.15 		"/>
		<polygon class="st2" points="31.08,125.44 34.39,127.23 34.39,75.87 31.08,74.08 		"/>
		<line class="st2" x1="103.39" y1="85.2" x2="100.08" y2="83.41"/>
		<polygon class="st2" points="334.74,162.49 244.25,215.19 242.53,214.2 333.02,161.51 		"/>
		<polygon class="st2" points="213.51,289.95 129.91,338.28 128.19,337.3 211.79,288.96 		"/>
		<polygon class="st2" points="244.25,215.19 244.54,291.99 242.81,291.01 242.53,214.2 		"/>
		<polygon class="st2" points="129.91,338.28 129.88,397.98 128.15,397 128.19,337.3 		"/>
		<polygon class="st2" points="333.84,238.63 245.71,289.95 245.44,215.85 333.57,164.53 		"/>
		<g>
			<path class="st2" d="M335.03,239.3l-90.49,52.7l-0.29-76.8l90.49-52.69L335.03,239.3z M246.89,287.9l85.77-49.94l-0.27-71.38
				l-85.77,49.94L246.89,287.9z"/>
		</g>
		<polygon class="st2" points="355.13,174.25 264.64,226.95 262.91,225.96 353.41,173.27 		"/>
		<polygon class="st2" points="264.64,226.95 264.92,303.75 263.2,302.77 262.91,225.96 		"/>
		<polygon class="st2" points="354.23,250.39 266.1,301.71 265.82,227.62 353.95,176.3 		"/>
		<g>
			<path class="st2" d="M355.41,251.06l-90.49,52.69l-0.29-76.81l90.49-52.69L355.41,251.06z M267.27,299.66l85.77-49.95
				l-0.27-71.38L267,228.29L267.27,299.66z"/>
		</g>
		<g>
			<g>
				<polygon class="st2" points="297.56,336.7 257.17,360.02 257.17,323.01 297.56,299.69 				"/>
			</g>
			<polygon class="st2" points="297.56,299.69 257.17,323.01 254.43,321.52 294.81,298.2 			"/>
			<polygon class="st2" points="254.43,358.53 257.17,360.02 257.17,323.01 254.43,321.52 			"/>
			<g>
				<polygon class="st2" points="275.6,340.13 272.85,338.65 272.85,325.64 284.56,325.38 287.31,326.88 275.6,327.13 				"/>
				<polygon class="st2" points="287.31,326.88 275.6,327.13 275.6,340.13 				"/>
			</g>
		</g>
		<g>
			<g>
				<path class="st2" d="M232.03,51.95c4.23-2.44,7.66-8.36,7.66-13.22c0-4.86-3.43-6.81-7.66-4.37c-0.58,0.33-1.14,0.74-1.68,1.19
					c-0.66,3.66-2.91,7.53-5.78,9.92c-0.13,0.71-0.2,1.42-0.2,2.1C224.37,52.44,227.8,54.39,232.03,51.95z"/>
				<path class="st2" d="M245.87,19.38L245.87,19.38l-0.02-0.01C245.85,19.37,245.86,19.38,245.87,19.38z"/>
				<path class="st2" d="M212.52,54.43L212.52,54.43c0-4.19,15.91-31.57,19.51-33.66c5.38-3.11,10.25-3.42,13.78-1.41l-8.47-4.86
					c-3.57-2.45-8.72-2.31-14.46,1c-10.78,6.22-19.51,21.29-19.51,33.66l0,0c0,7.28,1.99,15.66,9.75,19.96l8.86,5.11
					C214.46,69.87,212.52,61.62,212.52,54.43z"/>
				<path class="st2" d="M222.33,74.42l0.04,0.02v0C222.36,74.43,222.34,74.43,222.33,74.42z"/>
			</g>
			<path class="st2" d="M232.03,20.77c-10.78,6.22-19.51,21.29-19.51,33.66l0,0c0,9.71,3.53,21.33,19.51,22.71
				c15.98-19.83,19.51-35.54,19.51-45.24v0C251.55,19.53,242.81,14.55,232.03,20.77z M232.03,51.95c-4.23,2.44-7.66,0.49-7.66-4.37
				c0-4.85,3.43-10.77,7.66-13.22c4.23-2.44,7.66-0.49,7.66,4.37C239.69,43.59,236.27,49.51,232.03,51.95z"/>
		</g>
		<g>
			<g>
				<polygon class="st2" points="91.86,99.63 95.4,95.46 95.4,95.46 104.06,85.26 100.75,83.47 88.55,97.84 88.55,99.93 
					91.86,101.72 91.86,100 91.86,100 				"/>
				<path class="st2" d="M97.28,97.54c0.65-0.2,1.23-0.31,1.75-0.32l4.28,0.19c0.19,0,0.32,0.04,0.44,0.12l0.02-0.01l-3.34-1.82
					l0,0.02c-0.11-0.06-0.24-0.11-0.42-0.1l-0.76-0.03l-0.21,0.25C98.51,96.42,97.93,96.99,97.28,97.54z"/>
			</g>
			<path class="st2" d="M114.71,75.09c0.2-0.7,0.51-1.33,0.92-1.88c0.41-0.55,0.89-0.98,1.43-1.29l1.99-1.15l0,0l-3.31-1.8
				l-1.99,1.15c-0.54,0.31-1.02,0.74-1.43,1.29c-0.41,0.55-0.72,1.17-0.92,1.88L102.84,104l3.31,1.79l0-0.01L114.71,75.09z"/>
			<g>
				<path class="st2" d="M118.14,78.07l0,0.02l3.39,1.84v0c-0.09-0.04-0.17-0.1-0.23-0.18c-0.12-0.16-0.17-0.37-0.17-0.63V75.4
					l12.2,0.28l-3.31-1.8l-11.77-0.27l-0.43,1.55v2.16c0,0.26,0.06,0.48,0.17,0.63C118.04,78,118.09,78.03,118.14,78.07z"/>
				<path class="st2" d="M121.31,87.58c0.12-0.29,0.31-0.59,0.58-0.9l4.28-5.13c0.51-0.58,1.09-1.15,1.75-1.7
					c-0.65,0.2-1.23,0.31-1.75,0.32l-3.53-0.14l-4.06,4.86c-0.27,0.31-0.46,0.61-0.58,0.9c-0.11,0.29-0.17,0.57-0.17,0.83v3.72
					l3.31,1.8v-3.72C121.14,88.15,121.19,87.87,121.31,87.58z"/>
			</g>
			<g>
				<path class="st2" d="M99.03,95.84c-0.51,0.58-1.09,1.15-1.75,1.7c0.65-0.2,1.23-0.31,1.75-0.32l4.28,0.19
					c0.27-0.01,0.47,0.07,0.58,0.23c0.12,0.16,0.17,0.37,0.17,0.64v3.72l-12.2-0.27v-2.09l12.2-14.37v3.72
					c0,0.27-0.06,0.54-0.17,0.84c-0.12,0.29-0.31,0.6-0.58,0.91L99.03,95.84z"/>
				<path class="st2" d="M110.58,101.32c-0.11,0.37-0.25,0.73-0.43,1.08c-0.18,0.34-0.37,0.66-0.59,0.95
					c-0.22,0.29-0.45,0.54-0.69,0.76c-0.24,0.22-0.49,0.4-0.73,0.54l-1.99,1.15l8.55-30.71c0.2-0.7,0.51-1.33,0.92-1.88
					c0.41-0.55,0.89-0.98,1.43-1.29l1.99-1.15L110.58,101.32z"/>
				<path class="st2" d="M133.34,75.69v2.09l-12.2,14.36v-3.72c0-0.26,0.06-0.54,0.17-0.83c0.12-0.29,0.31-0.59,0.58-0.9l4.28-5.13
					c0.51-0.58,1.09-1.15,1.75-1.7c-0.65,0.2-1.23,0.31-1.75,0.32l-4.28-0.17c-0.27,0-0.46-0.09-0.58-0.24
					c-0.12-0.16-0.17-0.37-0.17-0.63V75.4L133.34,75.69z"/>
			</g>
		</g>
		<g>
			<polygon class="st2" points="310.13,289.68 310.13,374.69 362.05,344.72 362.05,344.72 362.05,259.71 			"/>
			<polygon class="st2" points="308,374.69 310.13,374.69 310.13,289.68 308,288.45 			"/>
			<polygon class="st2" points="308,288.45 310.13,289.68 362.05,259.71 359.93,258.48 			"/>
			<polygon class="st2" points="354.11,306.57 318.07,327.37 318.07,324.15 354.11,303.35 			"/>
			<polygon class="st2" points="354.11,312.65 318.07,333.46 318.07,330.24 354.11,309.43 			"/>
			<polygon class="st2" points="354.11,324.83 318.07,345.63 318.07,342.41 354.11,321.6 			"/>
			<polygon class="st2" points="354.11,330.92 318.07,351.72 318.07,348.5 354.11,327.69 			"/>
			<polygon class="st2" points="354.11,337 318.07,357.81 318.07,354.59 354.11,333.78 			"/>
			<polygon class="st2" points="354.11,278.85 318.07,299.66 318.07,296.44 354.11,275.63 			"/>
			<polygon class="st2" points="354.11,284.94 318.07,305.75 318.07,302.52 354.11,281.71 			"/>
			<polygon class="st2" points="354.11,291.03 318.07,311.83 318.07,308.61 354.11,287.8 			"/>
			<polygon class="st2" points="354.11,343.09 318.07,363.9 318.07,360.68 354.11,339.87 			"/>
		</g>
		<g>
			<polygon class="st2" points="213.51,349.7 129.88,397.98 129.88,338.31 213.51,290.02 			"/>
		</g>
		<path class="st2" d="M166.33,342.41l36.86-22.01c0,0,6.15-2.72,7.8,1.76c0.94,2.57-1.03,5.99-5.78,9.3l-36.37,21.48
			c0,0-5.43,3.29-7.13-1.87C160.93,348.74,161.39,344.79,166.33,342.41z"/>
		<path class="st2" d="M166.33,357.24l36.86-22.01c0,0,6.15-2.72,7.8,1.76c0.94,2.57-1.03,5.99-5.78,9.3l-36.37,21.48
			c0,0-5.43,3.29-7.13-1.87C160.93,363.58,161.39,359.63,166.33,357.24z"/>
		<path class="st2" d="M134.29,360.63v24.39c0,0,1.01,3.77,5.03,2.01l18.35-10.81c0,0,2.01-1.76,2.26-4.53v-25.14
			c0,0-0.5-2.76-3.52-1.26c-3.02,1.5-20.37,12.32-20.37,12.32S134.29,358.62,134.29,360.63z"/>
		<polygon class="st2" points="129.88,355.24 213.51,306.21 213.51,290.02 129.88,338.31 		"/>
		<path class="st2" d="M137.72,344.14c0.91-1.35,1.05-2.85,0.32-3.34c-0.73-0.49-2.06,0.22-2.96,1.57
			c-0.91,1.36-1.05,2.85-0.32,3.34C135.49,346.2,136.82,345.5,137.72,344.14z"/>
		<path class="st2" d="M146.06,339.71c0.91-1.36,1.05-2.85,0.32-3.34c-0.73-0.49-2.05,0.22-2.96,1.57
			c-0.91,1.36-1.05,2.85-0.32,3.34C143.83,341.77,145.15,341.06,146.06,339.71z"/>
		<path class="st2" d="M154.39,334.49c0.91-1.36,1.05-2.85,0.32-3.34c-0.73-0.49-2.06,0.22-2.96,1.57
			c-0.91,1.36-1.05,2.85-0.32,3.34C152.16,336.55,153.49,335.85,154.39,334.49z"/>
		<path class="st2" d="M149.93,363.17c2.52-3.77,2.92-7.92,0.89-9.28c-2.03-1.35-5.72,0.6-8.23,4.36c-2.52,3.77-2.93,7.93-0.89,9.28
			C143.72,368.9,147.41,366.94,149.93,363.17z"/>
		<path class="st2" d="M137.49,384.17l19.25-11.56c0,0-3.09-8.85-10.49-3.61C138.87,374.24,137.49,384.17,137.49,384.17z"/>
	</g>
	<g>
		<g>
			<g>
				<g>
					<path class="st17" d="M284.54,239.95L70.19,363.71c-8.9,5.14-16.11-0.32-16.11-12.18V184.82c0-11.86,7.22-25.64,16.11-30.78
						L284.54,30.28c8.9-5.14,16.11,0.32,16.11,12.18v166.71C300.66,221.03,293.44,234.81,284.54,239.95z"/>
				</g>
				<g>
					<polygon class="st10" points="294.55,206.63 60.18,341.95 60.18,179.49 294.55,44.17 					"/>
				</g>
			</g>
			<g>
				<linearGradient id="SVGID_2_" gradientUnits="userSpaceOnUse" x1="98.6914" y1="374.4641" x2="158.3338" y2="139.0016">
					<stop  offset="9.313420e-03" style="stop-color:#C8D2DF"/>
					<stop  offset="1" style="stop-color:#F5F5F7"/>
				</linearGradient>
				<path style="fill:url(#SVGID_2_);" d="M54.07,351.53V184.82c0-11.86,7.22-25.64,16.11-30.78L284.54,30.28
					c4.08-2.36,7.8-2.48,10.64-0.78l0-0.01l-13.29-7.8c-2.86-1.78-6.64-1.69-10.78,0.7L56.76,146.15
					c-8.9,5.14-16.11,18.92-16.11,30.78v166.71c0,6.43,2.12,10.98,5.49,12.97l13.55,7.97v-0.01
					C56.25,362.62,54.07,358.04,54.07,351.53z"/>
				<polygon class="st77" points="70.19,154.04 56.76,146.15 271.12,22.39 284.54,30.28 				"/>
			</g>
		</g>
		<polygon class="st28" points="329.13,226.98 94.76,361.96 94.76,199.5 329.13,64.51 		"/>
		<polygon class="st30" points="329.13,69.8 94.76,204.79 94.76,199.5 329.13,64.51 		"/>
		<polygon class="st60" points="329.13,81.32 94.76,216.3 94.76,204.79 329.13,69.8 		"/>
		<path class="st7" d="M94.76,216.3v145.66l13.39-7.73c10.53-6.08,17.02-17.32,17.02-29.48v-73.82l30.41-17.56v52.08
			c0,9.63,6.81,13.52,15.21,8.67l0,0c8.4-4.85,15.2-16.59,15.2-26.23v-14.7c0-9.64,6.81-21.38,15.21-26.23l0,0
			c8.4-4.85,15.2-0.97,15.2,8.67v30.69c0,11.29,12.23,18.35,22,12.7l90.73-52.05V81.32L94.76,216.3z"/>
		<g>
			<g>
				<path class="st10" d="M152.48,284.8v-21.99h-9.15l0,21.99c-0.02,0.69,0.42,1.38,1.33,1.9c1.78,1.03,4.68,1.03,6.47-0.01
					C152.03,286.17,152.48,285.48,152.48,284.8z"/>
				<path class="st6" d="M151.15,260.94c1.78,1.03,1.77,2.7-0.02,3.74c-1.79,1.03-4.69,1.04-6.47,0.01
					c-1.78-1.03-1.77-2.7,0.02-3.74C146.47,259.91,149.37,259.91,151.15,260.94z"/>
			</g>
			<path class="st60" d="M165.11,235.66c-0.8-0.46-1.83-0.39-2.83,0.19l-32.87,19.28l1,1.72l32.86-19.28
				c0.43-0.25,0.72-0.25,0.84-0.18c0.12,0.07,0.25,0.32,0.25,0.79v2.96c0,1.27-0.97,2.95-2.09,3.59l-12.29,7.15
				c-1.73,1-3.08,3.33-3.08,5.32l0.01,5.65c0.01,0.14,0.1,0.27,0.28,0.38c0.39,0.23,1.02,0.22,1.41,0c0.18-0.11,0.27-0.24,0.28-0.38
				l0.01-5.65c0-1.27,0.98-2.95,2.09-3.59l12.29-7.15c1.73-1,3.08-3.33,3.08-5.32v-2.96C166.36,237.04,165.9,236.12,165.11,235.66z"
				/>
			<path class="st9" d="M164.32,242.35c0-3.4-2.4-7.54-5.37-9.25c-1.58-0.91-3-0.94-3.98-0.26l-0.01-0.01l-28.86,16.66l7.62,13.07
				c0,0,21.23-12.44,28.85-16.68C163.61,245.3,164.32,244.15,164.32,242.35z"/>
			<g>
				<path class="st28" d="M124.55,252.93c0,3.4,2.4,7.54,5.37,9.26c2.96,1.71,5.37,0.34,5.37-3.06c0-3.4-2.4-7.54-5.37-9.26
					C126.95,248.16,124.55,249.53,124.55,252.93z"/>
				<path class="st83" d="M128.11,254.98c0,1.14,0.81,2.54,1.81,3.12c1,0.58,1.81,0.11,1.81-1.03c0-1.15-0.81-2.54-1.81-3.12
					C128.92,253.38,128.11,253.84,128.11,254.98z"/>
				<path class="st60" d="M128.79,255.38c0,0.71,0.5,1.58,1.12,1.94c0.62,0.36,1.13,0.07,1.13-0.64c0-0.71-0.5-1.58-1.13-1.94
					C129.29,254.38,128.79,254.66,128.79,255.38z"/>
			</g>
		</g>
		<g>
			<polygon class="st30" points="91.81,197.75 91.81,360.21 94.76,361.96 94.76,199.5 			"/>
			<polygon class="st7" points="91.81,197.75 94.76,199.5 329.13,64.51 326.18,62.43 			"/>
		</g>
		<g>
			<g>
				<polygon class="st77" points="314.83,128.49 161.56,216.98 161.56,202.45 314.83,113.96 				"/>
				<text transform="matrix(0.8715 -0.5031 0 1 202.49 188.5167)" class="st83 st80 st81">www.decodingrg.com.ar</text>
			</g>
			<polygon class="st8" points="159.81,201.44 161.56,202.45 314.83,113.96 313.08,112.95 			"/>
			<polygon class="st60" points="161.56,216.98 159.81,215.96 159.81,201.44 161.56,202.45 			"/>
		</g>
		<polygon class="st9" points="100.45,82.33 41.26,116.51 41.26,65.15 100.45,30.98 		"/>
		<polygon class="st7" points="100.45,30.98 41.26,65.15 37.95,63.35 97.14,29.18 		"/>
		<g>
			<path class="st77" d="M89.82,66.52v-0.02c0-8.17-5.77-11.46-12.89-7.35c-5.17,2.98-9.62,9.04-11.68,15.26
				c-1.04,0.15-2.16,0.56-3.33,1.23c-5.23,3.02-9.48,10.34-9.48,16.35c0,6.01,4.24,8.43,9.48,5.4l27.5-15.88
				c3.56-2.05,6.44-7.03,6.44-11.12C95.88,66.47,93.2,64.8,89.82,66.52z"/>
			<g>
				<path class="st60" d="M89.82,66.49v0.02c1.6-0.81,3.04-0.85,4.11-0.27l0-0.01l-3.19-1.72c-0.33-0.2-0.71-0.33-1.11-0.4
					C89.76,64.86,89.82,65.65,89.82,66.49z"/>
				<path class="st7" d="M52.45,91.98c0-6,4.24-13.32,9.48-16.35c1.17-0.67,2.29-1.08,3.33-1.23c2.05-6.22,6.51-12.28,11.68-15.26
					c3.48-2.01,6.63-2.24,8.95-1.02v0l-3.27-1.77c-2.32-1.25-5.49-1.02-8.99,1c-5.16,2.98-9.62,9.04-11.67,15.26
					c-1.03,0.15-2.16,0.55-3.33,1.23c-5.23,3.02-9.48,10.34-9.48,16.35c0,3,1.06,5.1,2.77,6.08l3.48,1.89v-0.01
					C53.58,97.21,52.45,95.08,52.45,91.98z"/>
			</g>
		</g>
		<polygon class="st9" points="145.67,82.33 86.48,116.51 86.48,65.15 145.67,30.98 		"/>
		<polygon class="st7" points="145.67,30.98 86.48,65.15 83.17,63.35 142.36,29.18 		"/>
		<polygon class="st30" points="83.17,114.71 86.48,116.51 86.48,65.15 83.17,63.35 		"/>
		<polygon class="st30" points="38.17,114.64 41.48,116.44 41.48,65.08 38.17,63.28 		"/>
		<line class="st84" x1="110.48" y1="74.41" x2="107.17" y2="72.62"/>
		<polygon class="st10" points="341.83,151.7 251.34,204.39 249.62,203.4 340.11,150.71 		"/>
		<polygon class="st10" points="220.61,279.15 137,327.49 135.28,326.5 218.88,278.17 		"/>
		<polygon class="st6" points="251.34,204.39 251.63,281.2 249.91,280.21 249.62,203.4 		"/>
		<polygon class="st6" points="137,327.49 136.97,387.19 135.25,386.2 135.28,326.5 		"/>
		<polygon class="st30" points="340.93,227.83 252.8,279.15 252.53,205.06 340.66,153.74 		"/>
		<g>
			<path class="st85" d="M342.12,228.5l-90.49,52.7l-0.29-76.8l90.49-52.69L342.12,228.5z M253.98,277.11l85.77-49.94l-0.27-71.38
				l-85.77,49.94L253.98,277.11z"/>
		</g>
		<polygon class="st10" points="362.22,163.46 271.73,216.15 270.01,215.17 360.5,162.47 		"/>
		<polygon class="st6" points="271.73,216.15 272.01,292.96 270.29,291.97 270.01,215.17 		"/>
		<polygon class="st28" points="361.32,239.59 273.19,290.91 272.91,216.82 361.04,165.5 		"/>
		<g>
			<path class="st85" d="M362.5,240.26l-90.49,52.69l-0.29-76.81l90.49-52.69L362.5,240.26z M274.37,288.87l85.77-49.95l-0.27-71.38
				l-85.77,49.94L274.37,288.87z"/>
		</g>
		<g>
			<g>
				<polygon class="st7" points="304.65,325.91 264.27,349.23 264.27,312.21 304.65,288.9 				"/>
			</g>
			<polygon class="st10" points="304.65,288.9 264.27,312.21 261.52,310.73 301.9,287.41 			"/>
			<polygon class="st6" points="261.52,347.74 264.27,349.23 264.27,312.21 261.52,310.73 			"/>
			<g>
				<polygon class="st79" points="282.69,329.34 279.95,327.85 279.95,314.85 291.65,314.59 294.4,316.08 282.69,316.34 				"/>
				<polygon class="st77" points="294.4,316.08 282.69,316.34 282.69,329.34 				"/>
			</g>
		</g>
		<g>
			<g>
				<path class="st10" d="M239.12,41.16c4.23-2.44,7.66-8.36,7.66-13.22c0-4.86-3.43-6.81-7.66-4.37c-0.58,0.33-1.14,0.74-1.68,1.19
					c-0.66,3.66-2.91,7.53-5.78,9.92c-0.13,0.71-0.2,1.42-0.2,2.1C231.46,41.64,234.89,43.6,239.12,41.16z"/>
				<path class="st83" d="M252.96,8.59L252.96,8.59l-0.02-0.01C252.95,8.58,252.95,8.58,252.96,8.59z"/>
				<path class="st10" d="M219.61,43.63L219.61,43.63c0-4.19,15.91-31.57,19.51-33.66c5.38-3.11,10.25-3.42,13.78-1.41l-8.47-4.86
					c-3.57-2.45-8.72-2.31-14.46,1c-10.78,6.22-19.51,21.29-19.51,33.66l0,0c0,7.28,1.99,15.66,9.75,19.96l8.86,5.11
					C221.55,59.07,219.61,50.82,219.61,43.63z"/>
				<path class="st83" d="M229.42,63.62l0.04,0.02v0C229.45,63.64,229.43,63.63,229.42,63.62z"/>
			</g>
			<path class="st7" d="M239.12,9.97c-10.78,6.22-19.51,21.29-19.51,33.66l0,0c0,9.71,3.53,21.33,19.51,22.71
				c15.98-19.83,19.51-35.54,19.51-45.24v0C258.64,8.73,249.9,3.75,239.12,9.97z M239.12,41.16c-4.23,2.44-7.66,0.49-7.66-4.37
				c0-4.85,3.43-10.77,7.66-13.22c4.23-2.44,7.66-0.49,7.66,4.37C246.79,32.8,243.36,38.71,239.12,41.16z"/>
		</g>
		<g>
			<g>
				<polygon class="st7" points="98.95,88.84 102.49,84.66 102.49,84.66 111.15,74.47 107.84,72.67 95.64,87.04 95.64,89.13 
					98.95,90.93 98.95,89.21 98.95,89.21 				"/>
				<path class="st60" d="M104.37,86.74c0.65-0.2,1.23-0.31,1.75-0.32l4.28,0.19c0.19,0,0.32,0.04,0.44,0.12l0.02-0.01l-3.34-1.82
					l0,0.02c-0.11-0.06-0.24-0.11-0.42-0.1l-0.76-0.03l-0.21,0.25C105.61,85.63,105.02,86.19,104.37,86.74z"/>
			</g>
			<path class="st7" d="M121.8,64.29c0.2-0.7,0.51-1.33,0.92-1.88c0.41-0.55,0.89-0.98,1.43-1.29l1.99-1.15l0,0l-3.31-1.8
				l-1.99,1.15c-0.54,0.31-1.02,0.74-1.43,1.29c-0.41,0.55-0.72,1.17-0.92,1.88l-8.55,30.71l3.31,1.79l0-0.01L121.8,64.29z"/>
			<g>
				<path class="st7" d="M125.23,67.27l0,0.02l3.39,1.84v0c-0.09-0.04-0.17-0.1-0.23-0.18c-0.12-0.16-0.17-0.37-0.17-0.63v-3.72
					l12.2,0.28l-3.31-1.8l-11.77-0.27l-0.43,1.55v2.16c0,0.26,0.06,0.48,0.17,0.63C125.13,67.21,125.18,67.24,125.23,67.27z"/>
				<path class="st7" d="M128.4,76.78c0.12-0.29,0.31-0.59,0.58-0.9l4.28-5.13c0.51-0.58,1.09-1.15,1.75-1.7
					c-0.65,0.2-1.23,0.31-1.75,0.32l-3.53-0.14l-4.06,4.86c-0.27,0.31-0.46,0.61-0.58,0.9c-0.11,0.29-0.17,0.57-0.17,0.83v3.72
					l3.31,1.8v-3.72C128.23,77.36,128.29,77.08,128.4,76.78z"/>
			</g>
			<g>
				<path class="st77" d="M106.12,85.04c-0.51,0.58-1.09,1.15-1.75,1.7c0.65-0.2,1.23-0.31,1.75-0.32l4.28,0.19
					c0.27-0.01,0.47,0.07,0.58,0.23c0.12,0.16,0.17,0.37,0.17,0.64v3.72l-12.2-0.27v-2.09l12.2-14.37v3.72
					c0,0.27-0.06,0.54-0.17,0.84c-0.12,0.29-0.31,0.6-0.58,0.91L106.12,85.04z"/>
				<path class="st77" d="M117.67,90.52c-0.11,0.37-0.25,0.73-0.43,1.08c-0.18,0.34-0.37,0.66-0.59,0.95
					c-0.22,0.29-0.45,0.54-0.69,0.76c-0.24,0.22-0.49,0.4-0.73,0.54L113.24,95l8.55-30.71c0.2-0.7,0.51-1.33,0.92-1.88
					c0.41-0.55,0.89-0.98,1.43-1.29l1.99-1.15L117.67,90.52z"/>
				<path class="st77" d="M140.43,64.89v2.09l-12.2,14.36v-3.72c0-0.26,0.06-0.54,0.17-0.83c0.12-0.29,0.31-0.59,0.58-0.9l4.28-5.13
					c0.51-0.58,1.09-1.15,1.75-1.7c-0.65,0.2-1.23,0.31-1.75,0.32l-4.28-0.17c-0.27,0-0.46-0.09-0.58-0.24
					c-0.12-0.16-0.17-0.37-0.17-0.63v-3.72L140.43,64.89z"/>
			</g>
		</g>
		<g>
			<linearGradient id="SVGID_4_" gradientUnits="userSpaceOnUse" x1="343.1798" y1="454.4846" x2="343.1798" y2="340.3418">
				<stop  offset="0" style="stop-color:#005E77"/>
				<stop  offset="1" style="stop-color:#F5F5F7"/>
			</linearGradient>
			<polygon style="fill:url(#SVGID_4_);" points="317.22,278.89 317.22,363.9 369.14,333.92 369.14,333.92 369.14,248.91 			"/>
			<polygon class="st60" points="315.09,363.9 317.22,363.9 317.22,278.89 315.09,277.66 			"/>
			<polygon class="st87" points="315.09,277.66 317.22,278.89 369.14,248.91 367.02,247.68 			"/>
			<polygon class="st60" points="361.2,295.77 325.16,316.58 325.16,313.36 361.2,292.55 			"/>
			<polygon class="st60" points="361.2,301.86 325.16,322.67 325.16,319.45 361.2,298.64 			"/>
			<polygon class="st60" points="361.2,314.03 325.16,334.84 325.16,331.62 361.2,310.81 			"/>
			<polygon class="st60" points="361.2,320.12 325.16,340.93 325.16,337.71 361.2,316.9 			"/>
			<polygon class="st60" points="361.2,326.21 325.16,347.01 325.16,343.79 361.2,322.98 			"/>
			<polygon class="st60" points="361.2,268.06 325.16,288.86 325.16,285.64 361.2,264.83 			"/>
			<polygon class="st60" points="361.2,274.14 325.16,294.95 325.16,291.73 361.2,270.92 			"/>
			<polygon class="st60" points="361.2,280.23 325.16,301.04 325.16,297.82 361.2,277.01 			"/>
			<polygon class="st60" points="361.2,332.3 325.16,353.1 325.16,349.88 361.2,329.07 			"/>
		</g>
		<g>
			<polygon class="st7" points="220.61,338.9 136.97,387.19 136.97,327.52 220.61,279.23 			"/>
		</g>
		<path class="st28" d="M173.42,331.62l36.86-22.01c0,0,6.15-2.72,7.8,1.76c0.94,2.57-1.03,5.99-5.78,9.3l-36.37,21.48
			c0,0-5.43,3.29-7.13-1.87C168.02,337.95,168.48,334,173.42,331.62z"/>
		<path class="st28" d="M173.42,346.45l36.86-22.01c0,0,6.15-2.72,7.8,1.76c0.94,2.57-1.03,5.99-5.78,9.3l-36.37,21.48
			c0,0-5.43,3.29-7.13-1.87C168.02,352.78,168.48,348.83,173.42,346.45z"/>
		<path class="st28" d="M141.38,349.84v24.39c0,0,1.01,3.77,5.03,2.01l18.35-10.81c0,0,2.01-1.76,2.26-4.53v-25.14
			c0,0-0.5-2.76-3.52-1.26c-3.02,1.5-20.37,12.32-20.37,12.32S141.38,347.82,141.38,349.84z"/>
		<polygon class="st8" points="136.97,344.45 220.61,295.42 220.61,279.23 136.97,327.52 		"/>
		<path class="st10" d="M144.82,333.35c0.91-1.35,1.05-2.85,0.32-3.34c-0.73-0.49-2.06,0.22-2.96,1.57
			c-0.91,1.36-1.05,2.85-0.32,3.34C142.58,335.41,143.91,334.7,144.82,333.35z"/>
		<path class="st10" d="M153.15,328.91c0.91-1.36,1.05-2.85,0.32-3.34c-0.73-0.49-2.05,0.22-2.96,1.57
			c-0.91,1.36-1.05,2.85-0.32,3.34C150.92,330.97,152.24,330.27,153.15,328.91z"/>
		<path class="st10" d="M161.48,323.7c0.91-1.36,1.05-2.85,0.32-3.34c-0.73-0.49-2.06,0.22-2.96,1.57
			c-0.91,1.36-1.05,2.85-0.32,3.34C159.25,325.75,160.58,325.05,161.48,323.7z"/>
		<path class="st10" d="M157.02,352.38c2.52-3.77,2.92-7.92,0.89-9.28c-2.03-1.35-5.72,0.6-8.23,4.36
			c-2.52,3.77-2.93,7.93-0.89,9.28C150.81,358.1,154.5,356.15,157.02,352.38z"/>
		<path class="st10" d="M144.58,373.37l19.25-11.56c0,0-3.09-8.85-10.49-3.61C145.96,363.44,144.58,373.37,144.58,373.37z"/>
	</g>
</g>
</svg>
