<?xml version="1.0" encoding="UTF-8" standalone="no"?>
<svg
   xmlns:dc="http://purl.org/dc/elements/1.1/"
   xmlns:cc="http://creativecommons.org/ns#"
   xmlns:rdf="http://www.w3.org/1999/02/22-rdf-syntax-ns#"
   xmlns:svg="http://www.w3.org/2000/svg"
   xmlns="http://www.w3.org/2000/svg"
   xmlns:sodipodi="http://sodipodi.sourceforge.net/DTD/sodipodi-0.dtd"
   xmlns:inkscape="http://www.inkscape.org/namespaces/inkscape"
   id="Capa_1"
   data-name="Capa 1"
   viewBox="0 0 115 115"
   version="1.1"
   sodipodi:docname="javascript.svg"
   inkscape:version="0.92.3 (2405546, 2018-03-11)">
  <metadata
     id="metadata19">
    <rdf:RDF>
      <cc:Work
         rdf:about="">
        <dc:format>image/svg+xml</dc:format>
        <dc:type
           rdf:resource="http://purl.org/dc/dcmitype/StillImage" />
      </cc:Work>
    </rdf:RDF>
  </metadata>
  <sodipodi:namedview
     pagecolor="#ffffff"
     bordercolor="#666666"
     borderopacity="1"
     objecttolerance="10"
     gridtolerance="10"
     guidetolerance="10"
     inkscape:pageopacity="0"
     inkscape:pageshadow="2"
     inkscape:window-width="1366"
     inkscape:window-height="711"
     id="namedview17"
     showgrid="false"
     inkscape:zoom="2.0521739"
     inkscape:cx="3.8983051"
     inkscape:cy="57.5"
     inkscape:window-x="0"
     inkscape:window-y="36"
     inkscape:window-maximized="1"
     inkscape:current-layer="Capa_1" />
  <defs
     id="defs4">
    <style
       id="style2">.cls-1,.cls-2{fill:#87868a;}.cls-1{fill-rule:evenodd;}</style>
  </defs>
  <title
     id="title6">vectores comolohacemos</title>
  <path
     class="cls-1"
     d="M21.19,78.91A10.6,10.6,0,1,1,10.6,68.31,10.6,10.6,0,0,1,21.19,78.91Z"
     id="path8"
     style="fill:#ffffff" />
  <path
     class="cls-2"
     d="M8.67,4.34V63.69a15.26,15.26,0,0,1,1.93-.13,15.09,15.09,0,0,1,3,.3V9.48h96.43v96H13.62V94a15.86,15.86,0,0,1-3,.3,15.24,15.24,0,0,1-1.93-.14v16.54H115V4.34Z"
     id="path10"
     style="fill:#ffffff" />
  <path
     class="cls-1"
     d="M48.94,39.5H59.1V77s0,13.19-15.76,13.19c-9.83,0-15.61-8.82-15.61-8.82l9-5.64s2.48,4.94,6.59,5.06c5,.15,5.41-3.9,5.41-3.9Z"
     id="path12"
     style="fill:#ffffff" />
  <path
     class="cls-1"
     d="M97.85,46.48,89.9,52.4s-2.61-5.2-7.09-4.91c0,0-4.62-.43-4.77,4.91a5,5,0,0,0,3,4.05s11.71,5.21,12.29,5.93,7.8,4.34,7.08,14.31S89.9,89.45,83.53,89.51a21.49,21.49,0,0,1-18.79-9.93l8-5.35s4,6.66,9.93,6.66,7.71-2.9,7.57-5.21-1.59-4.77-6.8-6.22c0,0-14.89-5.49-15.61-14.45s4-14.09,8.67-15.51S91.05,36.65,97.85,46.48Z"
     id="path14"
     style="fill:#ffffff" />
</svg>
