<?xml version="1.0" encoding="UTF-8" standalone="no"?>
<svg
   xmlns:dc="http://purl.org/dc/elements/1.1/"
   xmlns:cc="http://creativecommons.org/ns#"
   xmlns:rdf="http://www.w3.org/1999/02/22-rdf-syntax-ns#"
   xmlns:svg="http://www.w3.org/2000/svg"
   xmlns="http://www.w3.org/2000/svg"
   xmlns:sodipodi="http://sodipodi.sourceforge.net/DTD/sodipodi-0.dtd"
   xmlns:inkscape="http://www.inkscape.org/namespaces/inkscape"
   id="Capa_1"
   data-name="Capa 1"
   viewBox="0 0 115 115"
   version="1.1"
   sodipodi:docname="python.svg"
   inkscape:version="0.92.3 (2405546, 2018-03-11)">
  <metadata
     id="metadata17">
    <rdf:RDF>
      <cc:Work
         rdf:about="">
        <dc:format>image/svg+xml</dc:format>
        <dc:type
           rdf:resource="http://purl.org/dc/dcmitype/StillImage" />
      </cc:Work>
    </rdf:RDF>
  </metadata>
  <sodipodi:namedview
     pagecolor="#ffffff"
     bordercolor="#666666"
     borderopacity="1"
     objecttolerance="10"
     gridtolerance="10"
     guidetolerance="10"
     inkscape:pageopacity="0"
     inkscape:pageshadow="2"
     inkscape:window-width="1366"
     inkscape:window-height="711"
     id="namedview15"
     showgrid="false"
     inkscape:zoom="2.0521739"
     inkscape:cx="3.8983051"
     inkscape:cy="57.5"
     inkscape:window-x="0"
     inkscape:window-y="36"
     inkscape:window-maximized="1"
     inkscape:current-layer="Capa_1" />
  <defs
     id="defs4">
    <style
       id="style2">.cls-1{fill:#87868a;}</style>
  </defs>
  <title
     id="title6">vectores comolohacemos</title>
  <path
     class="cls-1"
     d="M76.18,77.87A25.64,25.64,0,0,1,65,74.72L62.68,84a29.42,29.42,0,0,0,13.5,2.92c11.94,0,18.11-5.72,18.11-13.52-.09-6.14-3.42-10.17-11.37-12.88-5.1-1.81-6.71-2.84-6.71-4.8,0-2.13,1.78-3.42,4.93-3.42a20.66,20.66,0,0,1,9.06,2.4l2.3-9a28.06,28.06,0,0,0-11.8-2.39c-10.33,0-17,5.9-17,13.67-.09,5,3.23,9.67,11.89,12.56,4.84,1.64,6.13,2.65,6.13,4.78S80.09,77.87,76.18,77.87Z"
     id="path8"
     style="fill:#ffffff" />
  <path
     class="cls-1"
     d="M33.6,65.49a33.32,33.32,0,0,0,4.43.23c7.69,0,14.28-1.87,18.69-6C60.17,56.43,62,51.64,62,46a16.69,16.69,0,0,0-6.16-13.32c-3.83-3.1-9.55-4.62-17.59-4.62a107.65,107.65,0,0,0-17.58,1.2V86.08H33.6V65.49Zm0-27.07A20.86,20.86,0,0,1,39,37.89c6.51,0,10.16,3.15,10.19,8.44,0,5.9-4.3,9.4-11.21,9.4a21,21,0,0,1-4.33-.32Z"
     id="path10"
     style="fill:#ffffff" />
  <path
     class="cls-1"
     d="M0,0V115H115V0ZM107.89,107.89H7.11V7.11H107.89Z"
     id="path12"
     style="fill:#ffffff" />
</svg>
