<?xml version="1.0" encoding="UTF-8" standalone="no"?>
<svg
   xmlns:dc="http://purl.org/dc/elements/1.1/"
   xmlns:cc="http://creativecommons.org/ns#"
   xmlns:rdf="http://www.w3.org/1999/02/22-rdf-syntax-ns#"
   xmlns:svg="http://www.w3.org/2000/svg"
   xmlns="http://www.w3.org/2000/svg"
   xmlns:sodipodi="http://sodipodi.sourceforge.net/DTD/sodipodi-0.dtd"
   xmlns:inkscape="http://www.inkscape.org/namespaces/inkscape"
   id="Capa_1"
   data-name="Capa 1"
   viewBox="0 0 115 115"
   version="1.1"
   sodipodi:docname="photoshop.svg"
   inkscape:version="0.92.3 (2405546, 2018-03-11)">
  <metadata
     id="metadata15">
    <rdf:RDF>
      <cc:Work
         rdf:about="">
        <dc:format>image/svg+xml</dc:format>
        <dc:type
           rdf:resource="http://purl.org/dc/dcmitype/StillImage" />
      </cc:Work>
    </rdf:RDF>
  </metadata>
  <sodipodi:namedview
     pagecolor="#ffffff"
     bordercolor="#666666"
     borderopacity="1"
     objecttolerance="10"
     gridtolerance="10"
     guidetolerance="10"
     inkscape:pageopacity="0"
     inkscape:pageshadow="2"
     inkscape:window-width="1366"
     inkscape:window-height="711"
     id="namedview13"
     showgrid="false"
     inkscape:zoom="2.0521739"
     inkscape:cx="3.8983051"
     inkscape:cy="57.5"
     inkscape:window-x="0"
     inkscape:window-y="36"
     inkscape:window-maximized="1"
     inkscape:current-layer="Capa_1" />
  <defs
     id="defs4">
    <style
       id="style2">.cls-1{fill:#87868a;}</style>
  </defs>
  <title
     id="title6">vectores comolohacemos</title>
  <path
     class="cls-1"
     d="M77.81,17.94A17.94,17.94,0,0,0,59.87,0H49.11A17.94,17.94,0,0,0,31.17,17.94v6.3H54.31v5.07l-33.92,0A17.94,17.94,0,0,0,2.45,47.27V58A17.94,17.94,0,0,0,20.39,76h10.3V55.26H77.82Zm-37.32.89a2.61,2.61,0,1,1,2.61-2.61A2.61,2.61,0,0,1,40.49,18.83Z"
     id="path8"
     style="fill:#ffffff" />
  <path
     class="cls-1"
     d="M93.31,39H83V59.74H35.89V97.06A17.94,17.94,0,0,0,53.83,115H64.6A17.94,17.94,0,0,0,82.53,97.06v-6.3H59.4V85.69l33.91,0a17.94,17.94,0,0,0,17.94-17.93V57A17.94,17.94,0,0,0,93.31,39ZM73.22,96.17a2.61,2.61,0,1,1-2.61,2.61A2.61,2.61,0,0,1,73.22,96.17Z"
     id="path10"
     style="fill:#ffffff" />
</svg>
