<?xml version="1.0" encoding="UTF-8" standalone="no"?>
<!-- Generator: Adobe Illustrator 16.0.0, SVG Export Plug-In . SVG Version: 6.00 Build 0)  -->

<svg
   xmlns:dc="http://purl.org/dc/elements/1.1/"
   xmlns:cc="http://creativecommons.org/ns#"
   xmlns:rdf="http://www.w3.org/1999/02/22-rdf-syntax-ns#"
   xmlns:svg="http://www.w3.org/2000/svg"
   xmlns="http://www.w3.org/2000/svg"
   xmlns:sodipodi="http://sodipodi.sourceforge.net/DTD/sodipodi-0.dtd"
   xmlns:inkscape="http://www.inkscape.org/namespaces/inkscape"
   version="1.1"
   id="Capa_1"
   x="0px"
   y="0px"
   width="150px"
   height="150px"
   viewBox="0 0 150 150"
   enable-background="new 0 0 150 150"
   xml:space="preserve"
   sodipodi:docname="face.svg"
   inkscape:version="0.92.3 (2405546, 2018-03-11)"><metadata
   id="metadata13"><rdf:RDF><cc:Work
       rdf:about=""><dc:format>image/svg+xml</dc:format><dc:type
         rdf:resource="http://purl.org/dc/dcmitype/StillImage" /></cc:Work></rdf:RDF></metadata><defs
   id="defs11">
	
	
</defs><sodipodi:namedview
   pagecolor="#ffffff"
   bordercolor="#666666"
   borderopacity="1"
   objecttolerance="10"
   gridtolerance="10"
   guidetolerance="10"
   inkscape:pageopacity="0"
   inkscape:pageshadow="2"
   inkscape:window-width="1366"
   inkscape:window-height="711"
   id="namedview9"
   showgrid="false"
   inkscape:zoom="1.5733333"
   inkscape:cx="-13.665256"
   inkscape:cy="74.999998"
   inkscape:window-x="0"
   inkscape:window-y="36"
   inkscape:window-maximized="1"
   inkscape:current-layer="Capa_1" />
<path
   style="fill:#ffffff"
   d="M 37.0625 17.382812 C 26.1995 17.382813 17.373047 26.192453 17.373047 37.064453 L 17.373047 112.9375 C 17.373047 123.8115 26.1995 132.61719 37.0625 132.61719 L 78.642578 132.61719 L 78.642578 88.375 L 63.763672 88.375 L 63.763672 71.136719 L 78.642578 71.136719 L 78.642578 58.419922 C 78.642578 43.664922 87.658219 35.619141 100.82422 35.619141 C 107.12922 35.619141 112.54677 36.088828 114.13477 36.298828 L 114.13477 51.726562 L 105.00586 51.726562 C 97.839859 51.726562 96.451172 55.124906 96.451172 60.128906 L 96.451172 71.136719 L 113.52734 71.136719 L 111.31445 88.375 L 96.451172 88.375 L 96.451172 132.61719 L 112.93359 132.61719 C 123.81059 132.61719 132.62695 123.8115 132.62695 112.9375 L 132.62695 37.064453 C 132.62695 26.192453 123.81059 17.382812 112.93359 17.382812 L 37.0625 17.382812 z "
   id="path2" />
</svg>