<?xml version="1.0" encoding="UTF-8" standalone="no"?>
<!-- Generator: Adobe Illustrator 16.0.0, SVG Export Plug-In . SVG Version: 6.00 Build 0)  -->

<svg
   xmlns:dc="http://purl.org/dc/elements/1.1/"
   xmlns:cc="http://creativecommons.org/ns#"
   xmlns:rdf="http://www.w3.org/1999/02/22-rdf-syntax-ns#"
   xmlns:svg="http://www.w3.org/2000/svg"
   xmlns="http://www.w3.org/2000/svg"
   xmlns:sodipodi="http://sodipodi.sourceforge.net/DTD/sodipodi-0.dtd"
   xmlns:inkscape="http://www.inkscape.org/namespaces/inkscape"
   version="1.1"
   id="Capa_1"
   x="0px"
   y="0px"
   width="115"
   height="115"
   viewBox="0 0 115 115"
   enable-background="new 0 0 150 150"
   xml:space="preserve"
   sodipodi:docname="face.svg"
   inkscape:version="0.92.3 (2405546, 2018-03-11)"><metadata
   id="metadata13"><rdf:RDF><cc:Work
       rdf:about=""><dc:format>image/svg+xml</dc:format><dc:type
         rdf:resource="http://purl.org/dc/dcmitype/StillImage" /><dc:title></dc:title></cc:Work></rdf:RDF></metadata><defs
   id="defs11">
	
	
</defs><sodipodi:namedview
   pagecolor="#ffffff"
   bordercolor="#666666"
   borderopacity="1"
   objecttolerance="10"
   gridtolerance="10"
   guidetolerance="10"
   inkscape:pageopacity="0"
   inkscape:pageshadow="2"
   inkscape:window-width="1366"
   inkscape:window-height="711"
   id="namedview9"
   showgrid="false"
   inkscape:zoom="1.5733333"
   inkscape:cx="-110.27543"
   inkscape:cy="74.999996"
   inkscape:window-x="0"
   inkscape:window-y="36"
   inkscape:window-maximized="1"
   inkscape:current-layer="Capa_1" />
<path
   style="fill:#ffffff"
   d="m 19.562501,-0.117189 c -10.8629995,1e-6 -19.6894525,8.809641 -19.6894525,19.681641 v 75.873047 c 0,10.874001 8.826453,19.679691 19.6894525,19.679691 H 61.142579 V 70.874999 H 46.263673 V 53.636718 H 61.142579 V 40.919921 c 0,-14.755 9.015641,-22.800781 22.181642,-22.800781 6.305,0 11.72255,0.469687 13.31055,0.679687 v 15.427734 h -9.12891 c -7.166001,0 -8.554688,3.398344 -8.554688,8.402344 v 11.007813 h 17.076168 l -2.21289,17.238281 H 78.951173 v 44.242191 h 16.482418 c 10.876999,0 19.693359,-8.80569 19.693359,-19.679691 V 19.564452 c 0,-10.872 -8.81636,-19.681641 -19.693359,-19.681641 z"
   id="path2"
   inkscape:connector-curvature="0" />
</svg>