<?xml version="1.0" encoding="UTF-8" standalone="no"?>
<!-- Generator: Adobe Illustrator 16.0.0, SVG Export Plug-In . SVG Version: 6.00 Build 0)  -->

<svg
   xmlns:dc="http://purl.org/dc/elements/1.1/"
   xmlns:cc="http://creativecommons.org/ns#"
   xmlns:rdf="http://www.w3.org/1999/02/22-rdf-syntax-ns#"
   xmlns:svg="http://www.w3.org/2000/svg"
   xmlns="http://www.w3.org/2000/svg"
   xmlns:sodipodi="http://sodipodi.sourceforge.net/DTD/sodipodi-0.dtd"
   xmlns:inkscape="http://www.inkscape.org/namespaces/inkscape"
   version="1.1"
   id="Capa_1"
   x="0px"
   y="0px"
   width="150px"
   height="150px"
   viewBox="0 0 150 150"
   enable-background="new 0 0 150 150"
   xml:space="preserve"
   sodipodi:docname="git.svg"
   inkscape:version="0.92.3 (2405546, 2018-03-11)"><metadata
   id="metadata3816"><rdf:RDF><cc:Work
       rdf:about=""><dc:format>image/svg+xml</dc:format><dc:type
         rdf:resource="http://purl.org/dc/dcmitype/StillImage" /></cc:Work></rdf:RDF></metadata><defs
   id="defs3814">
	
	
</defs><sodipodi:namedview
   pagecolor="#ffffff"
   bordercolor="#666666"
   borderopacity="1"
   objecttolerance="10"
   gridtolerance="10"
   guidetolerance="10"
   inkscape:pageopacity="0"
   inkscape:pageshadow="2"
   inkscape:window-width="1366"
   inkscape:window-height="711"
   id="namedview3812"
   showgrid="false"
   inkscape:zoom="3.4266667"
   inkscape:cx="-15.025346"
   inkscape:cy="75"
   inkscape:window-x="0"
   inkscape:window-y="36"
   inkscape:window-maximized="1"
   inkscape:current-layer="Capa_1" />

<path
   style="fill:#ffffff"
   d="m 37.062501,17.381836 c -10.863,0 -19.689453,8.809641 -19.689453,19.68164 v 75.873044 c 0,10.874 8.826453,19.68164 19.689453,19.68164 h 24.382812 c 0.0045,-2.41499 -0.0039,-4.83507 -0.0039,-7.30078 -3.153,0 -5.843828,0.0242 -8.548828,-0.01 -7.248,-0.066 -12.218469,-3.27293 -15.480469,-9.96093 -1.664,-3.4 -4.845984,-6.05702 -7.333984,-9.04102 -0.78,-0.944 -1.589485,-1.87205 -2.771484,-3.24805 1.416,-0.394 2.027297,-0.67484 2.654297,-0.71484 5.649,-0.316 9.028015,3.09831 11.916015,7.32031 4.357,6.365 10.054047,8.47231 16.998047,6.19531 1.033,-0.334 2.251125,-1.10418 2.703125,-1.99218 1.314,-2.597 2.263156,-5.35383 3.410156,-8.17383 -0.791,-0.047 -1.457531,-0.0765 -2.144531,-0.14649 -23.153,-2.435 -36.342625,-27.535882 -24.640625,-47.212882 1.859,-3.143 3.153547,-5.75211 2.310547,-9.66211 -0.675,-3.178 0.296219,-6.727281 0.699219,-10.113281 0.264,-2.121 1.253218,-3.438138 2.933593,-3.486328 0.560125,-0.01606 1.195704,0.109578 1.908204,0.392578 4.409999,1.748 8.709906,3.767578 13.128906,5.517578 1.376,0.549 3.074843,1.015468 4.464844,0.730469 9.903,-2.082998 19.747921,-2.105172 29.669921,-0.07617 1.612,0.331 3.567219,-0.311734 5.199219,-0.927734 4.444005,-1.68 8.755265,-3.692703 13.197265,-5.345703 2.142,-0.796 3.89513,0.02983 4.07813,2.548828 0.326,4.418 0.42356,8.847297 0.72656,13.279297 0.104,1.458 0.36047,2.971656 0.85547,4.347656 1.726,4.681 4.8222,9.210031 5.1582,13.957031 1.35799,18.540225 -5.81917,30.850271 -23.285162,35.123271 -2.324,0.557 -4.7175,0.85014 -7.5625,1.36914 4.129,4.828 4.492985,10.33291 4.333984,16.00391 -0.09309,3.54304 -0.0765,7.08634 -0.06641,10.62695 h 16.980468 c 10.877,0 19.69336,-8.80764 19.69336,-19.68164 V 37.063476 c 0,-10.871999 -8.81636,-19.68164 -19.69336,-19.68164 z"
   id="path2-3"
   inkscape:connector-curvature="0" /></svg>