<?xml version="1.0" encoding="UTF-8" standalone="no"?>
<!-- Generator: Adobe Illustrator 16.0.0, SVG Export Plug-In . SVG Version: 6.00 Build 0)  -->

<svg
   xmlns:dc="http://purl.org/dc/elements/1.1/"
   xmlns:cc="http://creativecommons.org/ns#"
   xmlns:rdf="http://www.w3.org/1999/02/22-rdf-syntax-ns#"
   xmlns:svg="http://www.w3.org/2000/svg"
   xmlns="http://www.w3.org/2000/svg"
   xmlns:sodipodi="http://sodipodi.sourceforge.net/DTD/sodipodi-0.dtd"
   xmlns:inkscape="http://www.inkscape.org/namespaces/inkscape"
   version="1.1"
   id="Capa_1"
   x="0px"
   y="0px"
   width="150px"
   height="150px"
   viewBox="0 0 150 150"
   enable-background="new 0 0 150 150"
   xml:space="preserve"
   sodipodi:docname="insta.svg"
   inkscape:version="0.92.3 (2405546, 2018-03-11)"><metadata
   id="metadata29"><rdf:RDF><cc:Work
       rdf:about=""><dc:format>image/svg+xml</dc:format><dc:type
         rdf:resource="http://purl.org/dc/dcmitype/StillImage" /></cc:Work></rdf:RDF></metadata><defs
   id="defs27">
	
	

		
		
		
	
			
		
			
		
			
		</defs><sodipodi:namedview
   pagecolor="#ffffff"
   bordercolor="#666666"
   borderopacity="1"
   objecttolerance="10"
   gridtolerance="10"
   guidetolerance="10"
   inkscape:pageopacity="0"
   inkscape:pageshadow="2"
   inkscape:window-width="1366"
   inkscape:window-height="711"
   id="namedview25"
   showgrid="false"
   inkscape:zoom="2.2250293"
   inkscape:cx="25.001695"
   inkscape:cy="68.856689"
   inkscape:window-x="0"
   inkscape:window-y="36"
   inkscape:window-maximized="1"
   inkscape:current-layer="Capa_1" />

<path
   style="fill:#ffffff"
   d="M 37.066406 17.378906 C 26.197406 17.378906 17.375 26.199172 17.375 37.076172 L 17.375 112.9375 C 17.375 123.8175 26.197406 132.62109 37.066406 132.62109 L 112.92773 132.62109 C 123.81373 132.62109 132.625 123.8175 132.625 112.9375 L 132.62305 112.9375 L 132.62305 37.076172 C 132.62305 26.199172 123.81473 17.378906 112.92773 17.378906 L 37.066406 17.378906 z M 56.650391 29.296875 L 93.353516 29.296875 C 109.63552 29.296875 122.88672 42.549172 122.88672 58.826172 L 122.88672 91.181641 C 122.88772 107.47364 109.63552 120.71875 93.353516 120.71875 L 56.650391 120.71875 C 40.356391 120.71875 27.107422 107.47364 27.107422 91.181641 L 27.107422 58.826172 C 27.107422 42.549172 40.356391 29.296875 56.650391 29.296875 z M 56.650391 35.861328 C 43.975391 35.861328 33.675781 46.165172 33.675781 58.826172 L 33.675781 91.181641 C 33.675781 103.85764 43.975391 114.16211 56.650391 114.16211 L 93.353516 114.16211 C 106.01852 114.16211 116.33008 103.85664 116.33008 91.181641 L 116.33008 58.826172 C 116.33008 46.165172 106.01852 35.861328 93.353516 35.861328 L 56.650391 35.861328 z M 100.90039 44.058594 C 103.90339 44.059594 106.34766 46.514391 106.34766 49.525391 C 106.34766 52.526391 103.90439 54.974609 100.90039 54.974609 C 97.882391 54.974609 95.4375 52.526391 95.4375 49.525391 C 95.4375 46.513391 97.882391 44.058594 100.90039 44.058594 z M 75.001953 48.714844 C 89.508953 48.714844 101.29883 60.506766 101.29883 75.009766 C 101.29883 89.506766 89.508953 101.30859 75.001953 101.30859 C 60.494953 101.30859 48.701172 89.506766 48.701172 75.009766 C 48.701172 60.506766 60.494953 48.714844 75.001953 48.714844 z M 75.001953 55.277344 C 64.124953 55.277344 55.269531 64.125766 55.269531 75.009766 C 55.269531 85.882766 64.124953 94.738281 75.001953 94.738281 C 85.887953 94.738281 94.736328 85.882766 94.736328 75.009766 C 94.736328 64.125766 85.887953 55.277344 75.001953 55.277344 z "
   id="path6" />
</svg>