<?xml version="1.0" encoding="UTF-8" standalone="no"?>
<!-- Generator: Adobe Illustrator 16.0.0, SVG Export Plug-In . SVG Version: 6.00 Build 0)  -->

<svg
   xmlns:dc="http://purl.org/dc/elements/1.1/"
   xmlns:cc="http://creativecommons.org/ns#"
   xmlns:rdf="http://www.w3.org/1999/02/22-rdf-syntax-ns#"
   xmlns:svg="http://www.w3.org/2000/svg"
   xmlns="http://www.w3.org/2000/svg"
   xmlns:sodipodi="http://sodipodi.sourceforge.net/DTD/sodipodi-0.dtd"
   xmlns:inkscape="http://www.inkscape.org/namespaces/inkscape"
   version="1.1"
   id="Capa_1"
   x="0px"
   y="0px"
   width="115"
   height="115"
   viewBox="0 0 115 115"
   enable-background="new 0 0 150 150"
   xml:space="preserve"
   sodipodi:docname="insta.svg"
   inkscape:version="0.92.3 (2405546, 2018-03-11)"><metadata
   id="metadata29"><rdf:RDF><cc:Work
       rdf:about=""><dc:format>image/svg+xml</dc:format><dc:type
         rdf:resource="http://purl.org/dc/dcmitype/StillImage" /><dc:title></dc:title></cc:Work></rdf:RDF></metadata><defs
   id="defs27">
	
	

		
		
		
	
			
		
			
		
			
		</defs><sodipodi:namedview
   pagecolor="#ffffff"
   bordercolor="#666666"
   borderopacity="1"
   objecttolerance="10"
   gridtolerance="10"
   guidetolerance="10"
   inkscape:pageopacity="0"
   inkscape:pageshadow="2"
   inkscape:window-width="1366"
   inkscape:window-height="711"
   id="namedview25"
   showgrid="false"
   inkscape:zoom="2.2250293"
   inkscape:cx="-43.312012"
   inkscape:cy="68.856689"
   inkscape:window-x="0"
   inkscape:window-y="36"
   inkscape:window-maximized="1"
   inkscape:current-layer="Capa_1" />

<path
   style="fill:#ffffff"
   d="m 19.566406,-0.121092 c -10.869,0 -19.691406,8.820266 -19.691406,19.697266 v 75.861328 c 0,10.879998 8.822406,19.683588 19.691406,19.683588 H 95.42773 c 10.886,0 19.69727,-8.80359 19.69727,-19.683588 h -0.002 V 19.576174 c 0,-10.877 -8.80832,-19.697266 -19.69532,-19.697266 z m 19.583985,11.917969 h 36.703125 c 16.282004,0 29.533204,13.252297 29.533204,29.529297 v 32.355469 c 0.001,16.291999 -13.2512,29.537107 -29.533204,29.537107 H 39.150391 c -16.294,0 -29.542969,-13.245108 -29.542969,-29.537107 V 41.326174 c 0,-16.277 13.248969,-29.529297 29.542969,-29.529297 z m 0,6.564453 c -12.675,0 -22.97461,10.303844 -22.97461,22.964844 v 32.355469 c 0,12.675999 10.29961,22.980469 22.97461,22.980469 h 36.703125 c 12.665004,0 22.976564,-10.30547 22.976564,-22.980469 V 41.326174 c 0,-12.661 -10.31156,-22.964844 -22.976564,-22.964844 z m 44.249999,8.197266 c 3.003,10e-4 5.44727,2.455797 5.44727,5.466797 0,3.001 -2.44327,5.449218 -5.44727,5.449218 -3.017999,0 -5.46289,-2.448218 -5.46289,-5.449218 0,-3.012 2.444891,-5.466797 5.46289,-5.466797 z m -25.898437,4.65625 c 14.507,0 26.296877,11.791922 26.296877,26.294922 0,14.497 -11.789877,26.298824 -26.296877,26.298824 -14.507,0 -26.300781,-11.801824 -26.300781,-26.298824 0,-14.503 11.793781,-26.294922 26.300781,-26.294922 z m 0,6.5625 c -10.877,0 -19.732422,8.848422 -19.732422,19.732422 0,10.873 8.855422,19.728515 19.732422,19.728515 10.886,0 19.734375,-8.855515 19.734375,-19.728515 0,-10.884 -8.848375,-19.732422 -19.734375,-19.732422 z"
   id="path6"
   inkscape:connector-curvature="0" />
</svg>