<?xml version="1.0" encoding="UTF-8" standalone="no"?>
<!-- Generator: Adobe Illustrator 16.0.0, SVG Export Plug-In . SVG Version: 6.00 Build 0)  -->

<svg
   xmlns:dc="http://purl.org/dc/elements/1.1/"
   xmlns:cc="http://creativecommons.org/ns#"
   xmlns:rdf="http://www.w3.org/1999/02/22-rdf-syntax-ns#"
   xmlns:svg="http://www.w3.org/2000/svg"
   xmlns="http://www.w3.org/2000/svg"
   xmlns:sodipodi="http://sodipodi.sourceforge.net/DTD/sodipodi-0.dtd"
   xmlns:inkscape="http://www.inkscape.org/namespaces/inkscape"
   version="1.1"
   id="Capa_1"
   x="0px"
   y="0px"
   width="115"
   height="115"
   viewBox="0 0 115 115"
   enable-background="new 0 0 150 150"
   xml:space="preserve"
   sodipodi:docname="mail.svg"
   inkscape:version="0.92.3 (2405546, 2018-03-11)"><metadata
   id="metadata13"><rdf:RDF><cc:Work
       rdf:about=""><dc:format>image/svg+xml</dc:format><dc:type
         rdf:resource="http://purl.org/dc/dcmitype/StillImage" /><dc:title></dc:title></cc:Work></rdf:RDF></metadata><defs
   id="defs11">
	
	
</defs><sodipodi:namedview
   pagecolor="#ffffff"
   bordercolor="#666666"
   borderopacity="1"
   objecttolerance="10"
   gridtolerance="10"
   guidetolerance="10"
   inkscape:pageopacity="0"
   inkscape:pageshadow="2"
   inkscape:window-width="1366"
   inkscape:window-height="711"
   id="namedview9"
   showgrid="false"
   inkscape:snap-intersection-paths="true"
   inkscape:snap-midpoints="true"
   inkscape:zoom="3.1466667"
   inkscape:cx="-13.645214"
   inkscape:cy="76.332521"
   inkscape:window-x="0"
   inkscape:window-y="36"
   inkscape:window-maximized="1"
   inkscape:current-layer="Capa_1" />
<path
   style="fill:#ffffff"
   d="m 19.568358,-0.128908 c -10.8740005,0 -19.6914065,8.828218 -19.6914065,19.699218 v 75.863278 c 0,10.875002 8.817406,19.695322 19.6914065,19.695322 h 75.85937 c 10.880002,0 19.695322,-8.82032 19.695322,-19.695322 V 19.57031 c 0,-10.871 -8.81532,-19.699218 -19.695321,-19.699218 z m 4.453125,24.152344 h 66.957036 c 6.16085,0 11.158201,4.994959 11.158201,11.158203 v 44.636718 c 0,6.163241 -4.997351,11.158201 -11.158201,11.158201 H 24.021483 c -6.162047,0 -11.158203,-4.99496 -11.158203,-11.158201 V 35.181639 c 0,-6.163244 4.996156,-11.158203 11.158203,-11.158203 z m 0,5.578124 c -0.371063,0 -0.695403,0.142271 -1.044922,0.212891 L 57.499999,59.406248 92.023438,29.814451 c -0.349509,-0.07062 -0.676249,-0.212891 -1.04492,-0.212891 z m -5.25,3.957032 c -0.16279,0.52308 -0.330078,1.046103 -0.330078,1.623047 v 44.636718 c 0,0.386625 0.145294,0.724766 0.220703,1.089844 L 42.384765,53.79492 Z m 77.458985,0 -23.621094,20.242187 23.722655,27.113281 c 0.0778,-0.365079 0.22656,-0.709078 0.22656,-1.095703 V 35.181639 c 0,-0.576944 -0.16414,-1.099967 -0.328121,-1.623047 z M 46.623046,57.427732 22.429687,85.076168 c 0.515898,0.158 1.028019,0.32031 1.591796,0.32031 h 66.957036 c 0.563779,0 1.07828,-0.16231 1.59179,-0.32031 l -24.193357,-27.648436 -9.0625,7.765625 c -0.520686,0.453655 -1.169282,0.675782 -1.814453,0.675782 -0.645172,0 -1.293768,-0.222127 -1.814453,-0.675782 z"
   id="path2"
   inkscape:connector-curvature="0" />
</svg>